# Exported by SolidWorks
g 
v 12.41921913 10.29704232 0.00000000
v 12.33445387 10.27629990 19.99999955
v 12.33445387 10.27629990 0.00000000
v 12.24950980 10.25629882 19.99999955
v 12.24950980 10.25629882 0.00000000
v 12.16439623 10.23703907 19.99999955
v 12.16439623 10.23703907 0.00000000
v 12.07911689 10.21852344 19.99999955
v 12.07911689 10.21852344 0.00000000
v 11.99367922 10.20075288 19.99999955
v 11.99367922 10.20075288 0.00000000
v 11.90808974 10.18372737 19.99999955
v 11.90808974 10.18372737 0.00000000
v 11.82235498 10.16745064 19.99999955
v 11.82235498 10.16745064 0.00000000
v 11.73648145 10.15192177 19.99999955
v 11.73648145 10.15192177 0.00000000
v 11.65047567 10.13714354 19.99999955
v 11.65047567 10.13714354 0.00000000
v 11.56434417 10.12311596 19.99999955
v 11.56434417 10.12311596 0.00000000
v 11.47809438 10.10984089 19.99999955
v 11.47809438 10.10984089 0.00000000
v 11.39173005 10.09731926 19.99999955
v 11.39173005 10.09731926 0.00000000
v 11.30526140 10.08555107 19.99999955
v 11.30526140 10.08555107 0.00000000
v 11.21869311 10.07453818 19.99999955
v 11.21869311 10.07453818 0.00000000
v 11.13203168 10.06428059 19.99999955
v 11.13203168 10.06428059 0.00000000
v 11.04528457 10.05478017 19.99999955
v 11.04528457 10.05478017 0.00000000
v 10.95845737 10.04603785 19.99999955
v 10.95845737 10.04603785 0.00000000
v 10.87155752 10.03805269 19.99999955
v 10.87155752 10.03805269 0.00000000
v 10.78459062 10.03082655 19.99999955
v 10.78459062 10.03082655 0.00000000
v 10.69756411 10.02435945 19.99999955
v 10.69756411 10.02435945 0.00000000
v 10.61048545 10.01865137 19.99999955
v 10.61048545 10.01865137 0.00000000
v 10.52335929 10.01370419 19.99999955
v 10.52335929 10.01370419 0.00000000
v 10.43619309 10.00951696 19.99999955
v 10.43619309 10.00951696 0.00000000
v 10.34899522 10.00609156 19.99999955
v 10.34899522 10.00609156 0.00000000
v 10.26176941 10.00342611 19.99999955
v 10.26176941 10.00342611 0.00000000
v 10.17452404 10.00152249 19.99999955
v 10.17452404 10.00152249 0.00000000
v 10.08726470 10.00038069 19.99999955
v 10.08726470 10.00038069 0.00000000
v 9.99999978 9.99999978 19.99999955
v 9.99999978 9.99999978 0.00000000
v 9.91273392 10.00038069 19.99999955
v 9.91273392 10.00038069 0.00000000
v 9.82547551 10.00152249 19.99999955
v 9.82547551 10.00152249 0.00000000
v 9.73823108 10.00342611 19.99999955
v 9.73823108 10.00342611 0.00000000
v 9.65100434 10.00609156 19.99999955
v 9.65100434 10.00609156 0.00000000
v 9.56380554 10.00951696 19.99999955
v 9.56380554 10.00951696 0.00000000
v 9.47663933 10.01370419 19.99999955
v 9.47663933 10.01370419 0.00000000
v 9.38951410 10.01865137 19.99999955
v 9.38951410 10.01865137 0.00000000
v 9.30243451 10.02435945 19.99999955
v 9.30243451 10.02435945 0.00000000
v 9.21540894 10.03082655 19.99999955
v 9.21540894 10.03082655 0.00000000
v 9.12844297 10.03805269 19.99999955
v 9.12844297 10.03805269 0.00000000
v 9.04154219 10.04603785 19.99999955
v 9.04154219 10.04603785 0.00000000
v 8.95471498 10.05478017 19.99999955
v 8.95471498 10.05478017 0.00000000
v 8.86796787 10.06428059 19.99999955
v 8.86796787 10.06428059 0.00000000
v 8.78130645 10.07453818 19.99999955
v 8.78130645 10.07453818 0.00000000
v 8.69473722 10.08555107 19.99999955
v 8.69473722 10.08555107 0.00000000
v 8.60826857 10.09731926 19.99999955
v 8.60826857 10.09731926 0.00000000
v 8.52190610 10.10984089 19.99999955
v 8.52190610 10.10984089 0.00000000
v 8.43565539 10.12311596 19.99999955
v 8.43565539 10.12311596 0.00000000
v 8.34952388 10.13714354 19.99999955
v 8.34952388 10.13714354 0.00000000
v 8.26351810 10.15192177 19.99999955
v 8.26351810 10.15192177 0.00000000
v 8.17764457 10.16745064 19.99999955
v 8.17764457 10.16745064 0.00000000
v 8.09190981 10.18372737 19.99999955
v 8.09190981 10.18372737 0.00000000
v 8.00632033 10.20075288 19.99999955
v 8.00632033 10.20075288 0.00000000
v 7.92088266 10.21852344 19.99999955
v 7.92088266 10.21852344 0.00000000
v 7.83560332 10.23703907 19.99999955
v 7.83560332 10.23703907 0.00000000
v 7.75048928 10.25629882 19.99999955
v 7.75048928 10.25629882 0.00000000
v 7.66554615 10.27629990 19.99999955
v 7.66554615 10.27629990 0.00000000
v 7.58078089 10.29704232 19.99999955
v 7.58078089 10.29704232 0.00000000
v 7.49619957 10.31852327 19.99999955
v 7.49619957 10.31852327 0.00000000
v 7.41180964 10.34074090 19.99999955
v 7.41180964 10.34074090 0.00000000
v 7.32761621 10.36369521 19.99999955
v 7.32761621 10.36369521 0.00000000
v 7.24362629 10.38738247 19.99999955
v 7.24362629 10.38738247 0.00000000
v 7.15984637 10.41180175 19.99999955
v 7.15984637 10.41180175 0.00000000
v 7.07628299 10.43695305 19.99999955
v 7.07628299 10.43695305 0.00000000
v 6.99294172 10.46282984 19.99999955
v 6.99294172 10.46282984 0.00000000
v 6.90982956 10.48943400 19.99999955
v 6.90982956 10.48943400 0.00000000
v 6.82695350 10.51676273 19.99999955
v 6.82695350 10.51676273 0.00000000
v 6.74431818 10.54481417 19.99999955
v 6.74431818 10.54481417 0.00000000
v 6.66193152 10.57358459 19.99999955
v 6.66193152 10.57358459 0.00000000
v 6.57979818 10.60307305 19.99999955
v 6.57979818 10.60307305 0.00000000
v 6.49792608 10.63327771 19.99999955
v 6.49792608 10.63327771 0.00000000
v 6.41632034 10.66419575 19.99999955
v 6.41632034 10.66419575 0.00000000
v 6.33498747 10.69582347 19.99999955
v 6.33498747 10.69582347 0.00000000
v 6.25393400 10.72816085 19.99999955
v 6.25393400 10.72816085 0.00000000
v 6.17316552 10.76120418 19.99999955
v 6.17316552 10.76120418 0.00000000
v 6.09268853 10.79495065 19.99999955
v 6.09268853 10.79495065 0.00000000
v 6.01250958 10.82939841 19.99999955
v 6.01250958 10.82939841 0.00000000
v 5.93263330 10.86454466 19.99999955
v 5.93263330 10.86454466 0.00000000
v 5.85306715 10.90038661 19.99999955
v 5.85306715 10.90038661 0.00000000
v 5.77381719 10.93692146 19.99999955
v 5.77381719 10.93692146 0.00000000
v 5.69488900 10.97414643 19.99999955
v 5.69488900 10.97414643 0.00000000
v 5.61628817 11.01205871 19.99999955
v 5.61628817 11.01205871 0.00000000
v 5.53802168 11.05065551 19.99999955
v 19.78147589 17.92088337 0.00000000
v 19.76296119 17.83560403 19.99999955
v 19.76296119 17.83560403 0.00000000
v 19.74369958 17.75048859 19.99999955
v 19.74369958 17.75048859 0.00000000
v 19.72370036 17.66554639 19.99999955
v 19.72370036 17.66554639 0.00000000
v 19.70295794 17.58077927 19.99999955
v 19.70295794 17.58077927 0.00000000
v 19.68147606 17.49619842 19.99999955
v 19.68147606 17.49619842 0.00000000
v 19.65925843 17.41180941 19.99999955
v 19.65925843 17.41180941 0.00000000
v 19.63630505 17.32761599 19.99999955
v 19.63630505 17.32761599 0.00000000
v 19.61261779 17.24362560 19.99999955
v 19.61261779 17.24362560 0.00000000
v 19.58819851 17.15984568 19.99999955
v 19.58819851 17.15984568 0.00000000
v 19.56304722 17.07628183 19.99999955
v 19.56304722 17.07628183 0.00000000
v 19.53716949 16.99294150 19.99999955
v 19.53716949 16.99294150 0.00000000
v 19.51056533 16.90983027 19.99999955
v 19.51056533 16.90983027 0.00000000
v 19.48323660 16.82695374 19.99999955
v 19.48323660 16.82695374 0.00000000
v 19.45518516 16.74431749 19.99999955
v 19.45518516 16.74431749 0.00000000
v 19.42641474 16.66193269 19.99999955
v 19.42641474 16.66193269 0.00000000
v 19.39692721 16.57979749 19.99999955
v 19.39692721 16.57979749 0.00000000
v 19.36672255 16.49792679 19.99999955
v 19.36672255 16.49792679 0.00000000
v 19.33580451 16.41632058 19.99999955
v 19.33580451 16.41632058 0.00000000
v 19.30417679 16.33498818 19.99999955
v 19.30417679 16.33498818 0.00000000
v 19.27183941 16.25393331 19.99999955
v 19.27183941 16.25393331 0.00000000
v 19.23879422 16.17316529 19.99999955
v 19.23879422 16.17316529 0.00000000
v 19.20504868 16.09268785 19.99999955
v 19.20504868 16.09268785 0.00000000
v 19.17060092 16.01250842 19.99999955
v 19.17060092 16.01250842 0.00000000
v 19.13545467 15.93263261 19.99999955
v 19.13545467 15.93263261 0.00000000
v 19.09961365 15.85306786 19.99999955
v 19.09961365 15.85306786 0.00000000
v 19.06307787 15.77381790 19.99999955
v 19.06307787 15.77381790 0.00000000
v 19.02585290 15.69488831 19.99999955
v 19.02585290 15.69488831 0.00000000
v 18.98794062 15.61628841 19.99999955
v 18.98794062 15.61628841 0.00000000
v 18.94934475 15.53802099 19.99999955
v 18.94934475 15.53802099 0.00000000
v 18.91006529 15.46009444 19.99999955
v 18.91006529 15.46009444 0.00000000
v 18.87010783 15.38251340 19.99999955
v 18.87010783 15.38251340 0.00000000
v 18.82947609 15.30528348 19.99999955
v 18.82947609 15.30528348 0.00000000
v 18.78817193 15.22841211 19.99999955
v 18.78817193 15.22841211 0.00000000
v 18.74619722 15.15190303 19.99999955
v 18.74619722 15.15190303 0.00000000
v 18.70355569 15.07576369 19.99999955
v 18.70355569 15.07576369 0.00000000
v 18.66025291 14.99999966 19.99999955
v 18.66025291 14.99999966 0.00000000
v 18.61629076 14.92461562 19.99999955
v 18.61629076 14.92461562 0.00000000
v 18.57167296 14.84961901 19.99999955
v 18.57167296 14.84961901 0.00000000
v 18.52640137 14.77501355 19.99999955
v 18.52640137 14.77501355 0.00000000
v 18.48047972 14.70080670 19.99999955
v 18.48047972 14.70080670 0.00000000
v 18.43391359 14.62700404 19.99999955
v 18.43391359 14.62700404 0.00000000
v 18.38670485 14.55360930 19.99999955
v 18.38670485 14.55360930 0.00000000
v 18.33885722 14.48062994 19.99999955
v 18.33885722 14.48062994 0.00000000
v 18.29037443 14.40807059 19.99999955
v 18.29037443 14.40807059 0.00000000
v 18.24126206 14.33593780 19.99999955
v 18.24126206 14.33593780 0.00000000
v 18.19152012 14.26423527 19.99999955
v 18.19152012 14.26423527 0.00000000
v 18.14115606 14.19297047 19.99999955
v 18.14115606 14.19297047 0.00000000
v 18.09016988 14.12214711 19.99999955
v 18.09016988 14.12214711 0.00000000
v 18.03856902 14.05177172 19.99999955
v 18.03856902 14.05177172 0.00000000
v 17.98635535 13.98184989 19.99999955
v 17.98635535 13.98184989 0.00000000
v 17.93353260 13.91238533 19.99999955
v 17.93353260 13.91238533 0.00000000
v 17.88010821 13.84338457 19.99999955
v 17.88010821 13.84338457 0.00000000
v 17.82608032 13.77485320 19.99999955
v 17.82608032 13.77485320 0.00000000
v 17.77146012 13.70679587 19.99999955
v 17.77146012 13.70679587 0.00000000
v 17.71624573 13.63921724 19.99999955
v 17.71624573 13.63921724 0.00000000
v 17.66044460 13.57212383 19.99999955
v 17.66044460 13.57212383 0.00000000
v 17.60405861 13.50551937 19.99999955
v 17.60405861 13.50551937 0.00000000
v 17.54709706 13.43940943 19.99999955
v 17.54709706 13.43940943 0.00000000
v 17.48955809 13.37379962 19.99999955
v 17.48955809 13.37379962 0.00000000
v 17.43144728 13.30869365 19.99999955
v 17.43144728 13.30869365 0.00000000
v 17.37277210 13.24409805 19.99999955
v 17.37277210 13.24409805 0.00000000
v 17.31353812 13.18001654 19.99999955
v 17.31353812 13.18001654 0.00000000
v 17.25374348 13.11645377 19.99999955
v 17.25374348 13.11645377 0.00000000
v 17.19339751 13.05341627 19.99999955
v 17.19339751 13.05341627 0.00000000
v 17.13250391 12.99090683 19.99999955
v 17.13250391 12.99090683 0.00000000
v 17.07106829 12.92893197 19.99999955
v 17.07106829 12.92893197 0.00000000
v 17.00909249 12.86749449 19.99999955
v 17.00909249 12.86749449 0.00000000
v 16.94658212 12.80660182 19.99999955
v 16.94658212 12.80660182 0.00000000
v 16.88354462 12.74625584 19.99999955
v 16.88354462 12.74625584 0.00000000
v 16.81998186 12.68646214 19.99999955
v 16.81998186 12.68646214 0.00000000
v 16.75590128 12.62722630 19.99999955
v 16.75590128 12.62722630 0.00000000
v 16.69130474 12.56855112 19.99999955
v 16.69130474 12.56855112 0.00000000
v 16.62619971 12.51044217 19.99999955
v 16.62619971 12.51044217 0.00000000
v 16.56058989 12.45290413 19.99999955
v 16.56058989 12.45290413 0.00000000
v 16.49448089 12.39593979 19.99999955
v 16.49448089 12.39593979 0.00000000
v 16.42787643 12.33955473 19.99999955
v 16.42787643 12.33955473 0.00000000
v 16.36078209 12.28375360 19.99999955
v 16.36078209 12.28375360 0.00000000
v 16.29320346 12.22854014 19.99999955
v 16.29320346 12.22854014 0.00000000
v 16.22514613 12.17391808 19.99999955
v 16.22514613 12.17391808 0.00000000
v 16.15661383 12.11989205 19.99999955
v 16.15661383 12.11989205 0.00000000
v 16.08761400 12.06646580 19.99999955
v 16.08761400 12.06646580 0.00000000
v 16.01815037 12.01364491 19.99999955
v 16.01815037 12.01364491 0.00000000
v 15.94822854 11.96143124 19.99999955
v 15.94822854 11.96143124 0.00000000
v 15.87785222 11.90982945 19.99999955
v 15.87785222 11.90982945 0.00000000
v 15.80702886 11.85884420 19.99999955
v 15.80702886 11.85884420 0.00000000
v 15.73576406 11.80847920 19.99999955
v 15.73576406 11.80847920 0.00000000
v 15.66406153 11.75873727 19.99999955
v 15.66406153 11.75873727 0.00000000
v 15.59192874 11.70962397 19.99999955
v 15.59192874 11.70962397 0.00000000
v 15.51937032 11.66114118 19.99999955
v 15.51937032 11.66114118 0.00000000
v 15.44639003 11.61329355 19.99999955
v 15.44639003 11.61329355 0.00000000
v 15.37299529 11.56608481 19.99999955
v 15.37299529 11.56608481 0.00000000
v 15.29919263 11.51951868 19.99999955
v 15.29919263 11.51951868 0.00000000
v 15.22498485 11.47359796 19.99999955
v 15.22498485 11.47359796 0.00000000
v 15.15038032 11.42832637 19.99999955
v 15.15038032 11.42832637 0.00000000
v 15.07538278 11.38370764 19.99999955
v 15.07538278 11.38370764 0.00000000
v 14.99999966 11.33974548 19.99999955
v 14.99999966 11.33974548 0.00000000
v 14.92423564 11.29644271 19.99999955
v 14.92423564 11.29644271 0.00000000
v 14.84809630 11.25380211 19.99999955
v 14.84809630 11.25380211 0.00000000
v 14.77158722 11.21182833 19.99999955
v 14.77158722 11.21182833 0.00000000
v 14.69471585 11.17052324 19.99999955
v 14.69471585 11.17052324 0.00000000
v 14.61748593 11.12989150 19.99999955
v 14.61748593 11.12989150 0.00000000
v 14.53990489 11.08993404 19.99999955
v 14.53990489 11.08993404 0.00000000
v 14.46197834 11.05065551 19.99999955
v 14.46197834 11.05065551 0.00000000
v 14.38371185 11.01205871 19.99999955
v 14.38371185 11.01205871 0.00000000
v 14.30511102 10.97414643 19.99999955
v 14.30511102 10.97414643 0.00000000
v 14.22618236 10.93692146 19.99999955
v 14.22618236 10.93692146 0.00000000
v 14.14693240 10.90038661 19.99999955
v 14.14693240 10.90038661 0.00000000
v 14.06736672 10.86454466 19.99999955
v 14.06736672 10.86454466 0.00000000
v 13.98749091 10.82939841 19.99999955
v 13.98749091 10.82939841 0.00000000
v 13.90731148 10.79495065 19.99999955
v 13.90731148 10.79495065 0.00000000
v 13.82683404 10.76120418 19.99999955
v 13.82683404 10.76120418 0.00000000
v 13.74606602 10.72816085 19.99999955
v 13.74606602 10.72816085 0.00000000
v 13.66501208 10.69582347 19.99999955
v 13.66501208 10.69582347 0.00000000
v 13.58367875 10.66419575 19.99999955
v 13.58367875 10.66419575 0.00000000
v 13.50207347 10.63327771 19.99999955
v 13.50207347 10.63327771 0.00000000
v 13.42020091 10.60307305 19.99999955
v 13.42020091 10.60307305 0.00000000
v 13.33806757 10.57358459 19.99999955
v 13.33806757 10.57358459 0.00000000
v 13.25568091 10.54481417 19.99999955
v 13.25568091 10.54481417 0.00000000
v 13.17304652 10.51676273 19.99999955
v 13.17304652 10.51676273 0.00000000
v 13.09016999 10.48943400 19.99999955
v 13.09016999 10.48943400 0.00000000
v 13.00705783 10.46282984 19.99999955
v 13.00705783 10.46282984 0.00000000
v 12.92371657 10.43695305 19.99999955
v 12.92371657 10.43695305 0.00000000
v 12.84015272 10.41180175 19.99999955
v 12.84015272 10.41180175 0.00000000
v 12.75637373 10.38738247 19.99999955
v 12.75637373 10.38738247 0.00000000
v 12.67238334 10.36369521 19.99999955
v 12.67238334 10.36369521 0.00000000
v 12.58818991 10.34074090 19.99999955
v 12.58818991 10.34074090 0.00000000
v 12.50379905 10.31852327 19.99999955
v 12.50379905 10.31852327 0.00000000
v 12.41921913 10.29704232 19.99999955
v 16.15661383 27.88010798 0.00000000
v 16.22514613 27.82608010 19.99999955
v 16.22514613 27.82608010 0.00000000
v 16.29320346 27.77145989 19.99999955
v 16.29320346 27.77145989 0.00000000
v 16.36078209 27.71624550 19.99999955
v 16.36078209 27.71624550 0.00000000
v 16.42787643 27.66044438 19.99999955
v 16.42787643 27.66044438 0.00000000
v 16.49448089 27.60405838 19.99999955
v 16.49448089 27.60405838 0.00000000
v 16.56058989 27.54709683 19.99999955
v 16.56058989 27.54709683 0.00000000
v 16.62619971 27.48955786 19.99999955
v 16.62619971 27.48955786 0.00000000
v 16.69130474 27.43144706 19.99999955
v 16.69130474 27.43144706 0.00000000
v 16.75590128 27.37277187 19.99999955
v 16.75590128 27.37277187 0.00000000
v 16.81998186 27.31353603 19.99999955
v 16.81998186 27.31353603 0.00000000
v 16.88354462 27.25374326 19.99999955
v 16.88354462 27.25374326 0.00000000
v 16.94658212 27.19339728 19.99999955
v 16.94658212 27.19339728 0.00000000
v 17.00909249 27.13250369 19.99999955
v 17.00909249 27.13250369 0.00000000
v 17.07106829 27.07106806 19.99999955
v 17.07106829 27.07106806 0.00000000
v 17.13250391 27.00909227 19.99999955
v 17.13250391 27.00909227 0.00000000
v 17.19339751 26.94658190 19.99999955
v 17.19339751 26.94658190 0.00000000
v 17.25374348 26.88354440 19.99999955
v 17.25374348 26.88354440 0.00000000
v 17.31353812 26.81998163 19.99999955
v 17.31353812 26.81998163 0.00000000
v 17.37277210 26.75590105 19.99999955
v 17.37277210 26.75590105 0.00000000
v 17.43144728 26.69130452 19.99999955
v 17.43144728 26.69130452 0.00000000
v 17.48955809 26.62619948 19.99999955
v 17.48955809 26.62619948 0.00000000
v 17.54709706 26.56058967 19.99999955
v 17.54709706 26.56058967 0.00000000
v 17.60405861 26.49448067 19.99999955
v 17.60405861 26.49448067 0.00000000
v 17.66044460 26.42787620 19.99999955
v 17.66044460 26.42787620 0.00000000
v 17.71624573 26.36078186 19.99999955
v 17.71624573 26.36078186 0.00000000
v 17.77146012 26.29320323 19.99999955
v 17.77146012 26.29320323 0.00000000
v 17.82608032 26.22514591 19.99999955
v 17.82608032 26.22514591 0.00000000
v 17.88010821 26.15661360 19.99999955
v 17.88010821 26.15661360 0.00000000
v 17.93353260 26.08761378 19.99999955
v 17.93353260 26.08761378 0.00000000
v 17.98635535 26.01815015 19.99999955
v 17.98635535 26.01815015 0.00000000
v 18.03856902 25.94822645 19.99999955
v 18.03856902 25.94822645 0.00000000
v 18.09016988 25.87785199 19.99999955
v 18.09016988 25.87785199 0.00000000
v 18.14115606 25.80703050 19.99999955
v 18.14115606 25.80703050 0.00000000
v 18.19152012 25.73576383 19.99999955
v 18.19152012 25.73576383 0.00000000
v 18.24126206 25.66406317 19.99999955
v 18.24126206 25.66406317 0.00000000
v 18.29037443 25.59192851 19.99999955
v 18.29037443 25.59192851 0.00000000
v 18.33885722 25.51936917 19.99999955
v 18.33885722 25.51936917 0.00000000
v 18.38670485 25.44639073 19.99999955
v 18.38670485 25.44639073 0.00000000
v 18.43391359 25.37299506 19.99999955
v 18.43391359 25.37299506 0.00000000
v 18.48047972 25.29919334 19.99999955
v 18.48047972 25.29919334 0.00000000
v 18.52640137 25.22498555 19.99999955
v 18.52640137 25.22498555 0.00000000
v 18.57167296 25.15037917 19.99999955
v 18.57167296 25.15037917 0.00000000
v 18.61629076 25.07538162 19.99999955
v 18.61629076 25.07538162 0.00000000
v 18.66025291 25.00000037 19.99999955
v 18.66025291 25.00000037 0.00000000
v 18.70355569 24.92423356 19.99999955
v 18.70355569 24.92423356 0.00000000
v 18.74619722 24.84809421 19.99999955
v 18.74619722 24.84809421 0.00000000
v 18.78817193 24.77158792 19.99999955
v 18.78817193 24.77158792 0.00000000
v 18.82947609 24.69471470 19.99999955
v 18.82947609 24.69471470 0.00000000
v 18.87010783 24.61748570 19.99999955
v 18.87010783 24.61748570 0.00000000
v 18.91006529 24.53990467 19.99999955
v 18.91006529 24.53990467 0.00000000
v 18.94934475 24.46197718 19.99999955
v 18.94934475 24.46197718 0.00000000
v 18.98794062 24.38371070 19.99999955
v 18.98794062 24.38371070 0.00000000
v 19.02585290 24.30511080 19.99999955
v 19.02585290 24.30511080 0.00000000
v 19.06307787 24.22618307 19.99999955
v 19.06307787 24.22618307 0.00000000
v 19.09961365 24.14693311 19.99999955
v 19.09961365 24.14693311 0.00000000
v 19.13545467 24.06736650 19.99999955
v 19.13545467 24.06736650 0.00000000
v 19.17060092 23.98748882 19.99999955
v 19.17060092 23.98748882 0.00000000
v 19.20504868 23.90731126 19.99999955
v 19.20504868 23.90731126 0.00000000
v 19.23879422 23.82683381 19.99999955
v 19.23879422 23.82683381 0.00000000
v 19.27183941 23.74606580 19.99999955
v 19.27183941 23.74606580 0.00000000
v 19.30417679 23.66501279 19.99999955
v 19.30417679 23.66501279 0.00000000
v 19.33580451 23.58367853 19.99999955
v 19.33580451 23.58367853 0.00000000
v 19.36672255 23.50207418 19.99999955
v 19.36672255 23.50207418 0.00000000
v 19.39692721 23.42019975 19.99999955
v 19.39692721 23.42019975 0.00000000
v 19.42641474 23.33806828 19.99999955
v 19.42641474 23.33806828 0.00000000
v 19.45518516 23.25568162 19.99999955
v 19.45518516 23.25568162 0.00000000
v 19.48323660 23.17304537 19.99999955
v 19.48323660 23.17304537 0.00000000
v 19.51056533 23.09017070 19.99999955
v 19.51056533 23.09017070 0.00000000
v 19.53716949 23.00705761 19.99999955
v 19.53716949 23.00705761 0.00000000
v 19.56304722 22.92371728 19.99999955
v 19.56304722 22.92371728 0.00000000
v 19.58819851 22.84015343 19.99999955
v 19.58819851 22.84015343 0.00000000
v 19.61261779 22.75637165 19.99999955
v 19.61261779 22.75637165 0.00000000
v 19.63630505 22.67238498 19.99999955
v 19.63630505 22.67238498 0.00000000
v 19.65925843 22.58818969 19.99999955
v 19.65925843 22.58818969 0.00000000
v 19.68147606 22.50379883 19.99999955
v 19.68147606 22.50379883 0.00000000
v 19.70295794 22.41921797 19.99999955
v 19.70295794 22.41921797 0.00000000
v 19.72370036 22.33445272 19.99999955
v 19.72370036 22.33445272 0.00000000
v 19.74369958 22.24951051 19.99999955
v 19.74369958 22.24951051 0.00000000
v 19.76296119 22.16439694 19.99999955
v 19.76296119 22.16439694 0.00000000
v 19.78147589 22.07911760 19.99999955
v 19.78147589 22.07911760 0.00000000
v 19.79924552 21.99367993 19.99999955
v 19.79924552 21.99367993 0.00000000
v 19.81627196 21.90808952 19.99999955
v 19.81627196 21.90808952 0.00000000
v 19.83254775 21.82235569 19.99999955
v 19.83254775 21.82235569 0.00000000
v 19.84807849 21.73648030 19.99999955
v 19.84807849 21.73648030 0.00000000
v 19.86285672 21.65047638 19.99999955
v 19.86285672 21.65047638 0.00000000
v 19.87688243 21.56434394 19.99999955
v 19.87688243 21.56434394 0.00000000
v 19.89015751 21.47809416 19.99999955
v 19.89015751 21.47809416 0.00000000
v 19.90268007 21.39173076 19.99999955
v 19.90268007 21.39173076 0.00000000
v 19.91444826 21.30526118 19.99999955
v 19.91444826 21.30526118 0.00000000
v 19.92546022 21.21869288 19.99999955
v 19.92546022 21.21869288 0.00000000
v 19.93571781 21.13203332 19.99999955
v 19.93571781 21.13203332 0.00000000
v 19.94521916 21.04528435 19.99999955
v 19.94521916 21.04528435 0.00000000
v 19.95396242 20.95845714 19.99999955
v 19.95396242 20.95845714 0.00000000
v 19.96194571 20.87155730 19.99999955
v 19.96194571 20.87155730 0.00000000
v 19.96917278 20.78459039 19.99999955
v 19.96917278 20.78459039 0.00000000
v 19.97563988 20.69756575 19.99999955
v 19.97563988 20.69756575 0.00000000
v 19.98134889 20.61048523 19.99999955
v 19.98134889 20.61048523 0.00000000
v 19.98629607 20.52336000 19.99999955
v 19.98629607 20.52336000 0.00000000
v 19.99048144 20.43619379 19.99999955
v 19.99048144 20.43619379 0.00000000
v 19.99390870 20.34899592 19.99999955
v 19.99390870 20.34899592 0.00000000
v 19.99657229 20.26176825 19.99999955
v 19.99657229 20.26176825 0.00000000
v 19.99847591 20.17452382 19.99999955
v 19.99847591 20.17452382 0.00000000
v 19.99961771 20.08726448 19.99999955
v 19.99961771 20.08726448 0.00000000
v 19.99999955 19.99999955 19.99999955
v 19.99999955 19.99999955 0.00000000
v 19.99961771 19.91273463 19.99999955
v 19.99961771 19.91273463 0.00000000
v 19.99847591 19.82547529 19.99999955
v 19.99847591 19.82547529 0.00000000
v 19.99657229 19.73822899 19.99999955
v 19.99657229 19.73822899 0.00000000
v 19.99390870 19.65100504 19.99999955
v 19.99390870 19.65100504 0.00000000
v 19.99048144 19.56380717 19.99999955
v 19.99048144 19.56380717 0.00000000
v 19.98629607 19.47664097 19.99999955
v 19.98629607 19.47664097 0.00000000
v 19.98134889 19.38951574 19.99999955
v 19.98134889 19.38951574 0.00000000
v 19.97563988 19.30243522 19.99999955
v 19.97563988 19.30243522 0.00000000
v 19.96917278 19.21540871 19.99999955
v 19.96917278 19.21540871 0.00000000
v 19.96194571 19.12844367 19.99999955
v 19.96194571 19.12844367 0.00000000
v 19.95396242 19.04154196 19.99999955
v 19.95396242 19.04154196 0.00000000
v 19.94521916 18.95471662 19.99999955
v 19.94521916 18.95471662 0.00000000
v 19.93571781 18.86796765 19.99999955
v 19.93571781 18.86796765 0.00000000
v 19.92546022 18.78130622 19.99999955
v 19.92546022 18.78130622 0.00000000
v 19.91444826 18.69473793 19.99999955
v 19.91444826 18.69473793 0.00000000
v 19.90268007 18.60826835 19.99999955
v 19.90268007 18.60826835 0.00000000
v 19.89015751 18.52190681 19.99999955
v 19.89015751 18.52190681 0.00000000
v 19.87688243 18.43565516 19.99999955
v 19.87688243 18.43565516 0.00000000
v 19.86285672 18.34952272 19.99999955
v 19.86285672 18.34952272 0.00000000
v 19.84807849 18.26351695 19.99999955
v 19.84807849 18.26351695 0.00000000
v 19.83254775 18.17764528 19.99999955
v 19.83254775 18.17764528 0.00000000
v 19.81627196 18.09190959 19.99999955
v 19.81627196 18.09190959 0.00000000
v 19.79924552 18.00632104 19.99999955
v 19.79924552 18.00632104 0.00000000
v 19.78147589 17.92088337 19.99999955
v 5.61628817 28.98794040 0.00000000
v 5.69488900 29.02585268 19.99999955
v 5.69488900 29.02585268 0.00000000
v 5.77381719 29.06307764 19.99999955
v 5.77381719 29.06307764 0.00000000
v 5.85306715 29.09961343 19.99999955
v 5.85306715 29.09961343 0.00000000
v 5.93263330 29.13545445 19.99999955
v 5.93263330 29.13545445 0.00000000
v 6.01250958 29.17060070 19.99999955
v 6.01250958 29.17060070 0.00000000
v 6.09268853 29.20504846 19.99999955
v 6.09268853 29.20504846 0.00000000
v 6.17316552 29.23879400 19.99999955
v 6.17316552 29.23879400 0.00000000
v 6.25393400 29.27183919 19.99999955
v 6.25393400 29.27183919 0.00000000
v 6.33498747 29.30417657 19.99999955
v 6.33498747 29.30417657 0.00000000
v 6.41632034 29.33580428 19.99999955
v 6.41632034 29.33580428 0.00000000
v 6.49792608 29.36672233 19.99999955
v 6.49792608 29.36672233 0.00000000
v 6.57979818 29.39692698 19.99999955
v 6.57979818 29.39692698 0.00000000
v 6.66193152 29.42641452 19.99999955
v 6.66193152 29.42641452 0.00000000
v 6.74431818 29.45518494 19.99999955
v 6.74431818 29.45518494 0.00000000
v 6.82695350 29.48323637 19.99999955
v 6.82695350 29.48323637 0.00000000
v 6.90982956 29.51056510 19.99999955
v 6.90982956 29.51056510 0.00000000
v 6.99294172 29.53716926 19.99999955
v 6.99294172 29.53716926 0.00000000
v 7.07628299 29.56304699 19.99999955
v 7.07628299 29.56304699 0.00000000
v 7.15984637 29.58819829 19.99999955
v 7.15984637 29.58819829 0.00000000
v 7.24362629 29.61261757 19.99999955
v 7.24362629 29.61261757 0.00000000
v 7.32761621 29.63630296 19.99999955
v 7.32761621 29.63630296 0.00000000
v 7.41180964 29.65925820 19.99999955
v 7.41180964 29.65925820 0.00000000
v 7.49619957 29.68147583 19.99999955
v 7.49619957 29.68147583 0.00000000
v 7.58078089 29.70295772 19.99999955
v 7.58078089 29.70295772 0.00000000
v 7.66554615 29.72370014 19.99999955
v 7.66554615 29.72370014 0.00000000
v 7.75048928 29.74369936 19.99999955
v 7.75048928 29.74369936 0.00000000
v 7.83560332 29.76296097 19.99999955
v 7.83560332 29.76296097 0.00000000
v 7.92088266 29.78147566 19.99999955
v 7.92088266 29.78147566 0.00000000
v 8.00632033 29.79924530 19.99999955
v 8.00632033 29.79924530 0.00000000
v 8.09190981 29.81627174 19.99999955
v 8.09190981 29.81627174 0.00000000
v 8.17764457 29.83254753 19.99999955
v 8.17764457 29.83254753 0.00000000
v 8.26351810 29.84807827 19.99999955
v 8.26351810 29.84807827 0.00000000
v 8.34952388 29.86285649 19.99999955
v 8.34952388 29.86285649 0.00000000
v 8.43565539 29.87688221 19.99999955
v 8.43565539 29.87688221 0.00000000
v 8.52190610 29.89015728 19.99999955
v 8.52190610 29.89015728 0.00000000
v 8.60826857 29.90267985 19.99999955
v 8.60826857 29.90267985 0.00000000
v 8.69473722 29.91444804 19.99999955
v 8.69473722 29.91444804 0.00000000
v 8.78130645 29.92546000 19.99999955
v 8.78130645 29.92546000 0.00000000
v 8.86796787 29.93571945 19.99999955
v 8.86796787 29.93571945 0.00000000
v 8.95471498 29.94521894 19.99999955
v 8.95471498 29.94521894 0.00000000
v 9.04154219 29.95396033 19.99999955
v 9.04154219 29.95396033 0.00000000
v 9.12844297 29.96194735 19.99999955
v 9.12844297 29.96194735 0.00000000
v 9.21540894 29.96917255 19.99999955
v 9.21540894 29.96917255 0.00000000
v 9.30243451 29.97563966 19.99999955
v 9.30243451 29.97563966 0.00000000
v 9.38951410 29.98134866 19.99999955
v 9.38951410 29.98134866 0.00000000
v 9.47663933 29.98629585 19.99999955
v 9.47663933 29.98629585 0.00000000
v 9.56380554 29.99048308 19.99999955
v 9.56380554 29.99048308 0.00000000
v 9.65100434 29.99390848 19.99999955
v 9.65100434 29.99390848 0.00000000
v 9.73823108 29.99657206 19.99999955
v 9.73823108 29.99657206 0.00000000
v 9.82547551 29.99847569 19.99999955
v 9.82547551 29.99847569 0.00000000
v 9.91273392 29.99961935 19.99999955
v 9.91273392 29.99961935 0.00000000
v 9.99999978 29.99999933 19.99999955
v 9.99999978 29.99999933 0.00000000
v 10.08726470 29.99961935 19.99999955
v 10.08726470 29.99961935 0.00000000
v 10.17452404 29.99847569 19.99999955
v 10.17452404 29.99847569 0.00000000
v 10.26176941 29.99657206 19.99999955
v 10.26176941 29.99657206 0.00000000
v 10.34899522 29.99390848 19.99999955
v 10.34899522 29.99390848 0.00000000
v 10.43619309 29.99048308 19.99999955
v 10.43619309 29.99048308 0.00000000
v 10.52335929 29.98629585 19.99999955
v 10.52335929 29.98629585 0.00000000
v 10.61048545 29.98134866 19.99999955
v 10.61048545 29.98134866 0.00000000
v 10.69756411 29.97563966 19.99999955
v 10.69756411 29.97563966 0.00000000
v 10.78459062 29.96917255 19.99999955
v 10.78459062 29.96917255 0.00000000
v 10.87155752 29.96194735 19.99999955
v 10.87155752 29.96194735 0.00000000
v 10.95845737 29.95396033 19.99999955
v 10.95845737 29.95396033 0.00000000
v 11.04528457 29.94521894 19.99999955
v 11.04528457 29.94521894 0.00000000
v 11.13203168 29.93571945 19.99999955
v 11.13203168 29.93571945 0.00000000
v 11.21869311 29.92546000 19.99999955
v 11.21869311 29.92546000 0.00000000
v 11.30526140 29.91444804 19.99999955
v 11.30526140 29.91444804 0.00000000
v 11.39173005 29.90267985 19.99999955
v 11.39173005 29.90267985 0.00000000
v 11.47809438 29.89015728 19.99999955
v 11.47809438 29.89015728 0.00000000
v 11.56434417 29.87688221 19.99999955
v 11.56434417 29.87688221 0.00000000
v 11.65047567 29.86285649 19.99999955
v 11.65047567 29.86285649 0.00000000
v 11.73648145 29.84807827 19.99999955
v 11.73648145 29.84807827 0.00000000
v 11.82235498 29.83254753 19.99999955
v 11.82235498 29.83254753 0.00000000
v 11.90808974 29.81627174 19.99999955
v 11.90808974 29.81627174 0.00000000
v 11.99367922 29.79924530 19.99999955
v 11.99367922 29.79924530 0.00000000
v 12.07911689 29.78147566 19.99999955
v 12.07911689 29.78147566 0.00000000
v 12.16439623 29.76296097 19.99999955
v 12.16439623 29.76296097 0.00000000
v 12.24950980 29.74369936 19.99999955
v 12.24950980 29.74369936 0.00000000
v 12.33445387 29.72370014 19.99999955
v 12.33445387 29.72370014 0.00000000
v 12.41921913 29.70295772 19.99999955
v 12.41921913 29.70295772 0.00000000
v 12.50379905 29.68147583 19.99999955
v 12.50379905 29.68147583 0.00000000
v 12.58818991 29.65925820 19.99999955
v 12.58818991 29.65925820 0.00000000
v 12.67238334 29.63630296 19.99999955
v 12.67238334 29.63630296 0.00000000
v 12.75637373 29.61261757 19.99999955
v 12.75637373 29.61261757 0.00000000
v 12.84015272 29.58819829 19.99999955
v 12.84015272 29.58819829 0.00000000
v 12.92371657 29.56304699 19.99999955
v 12.92371657 29.56304699 0.00000000
v 13.00705783 29.53716926 19.99999955
v 13.00705783 29.53716926 0.00000000
v 13.09016999 29.51056510 19.99999955
v 13.09016999 29.51056510 0.00000000
v 13.17304652 29.48323637 19.99999955
v 13.17304652 29.48323637 0.00000000
v 13.25568091 29.45518494 19.99999955
v 13.25568091 29.45518494 0.00000000
v 13.33806757 29.42641452 19.99999955
v 13.33806757 29.42641452 0.00000000
v 13.42020091 29.39692698 19.99999955
v 13.42020091 29.39692698 0.00000000
v 13.50207347 29.36672233 19.99999955
v 13.50207347 29.36672233 0.00000000
v 13.58367875 29.33580428 19.99999955
v 13.58367875 29.33580428 0.00000000
v 13.66501208 29.30417657 19.99999955
v 13.66501208 29.30417657 0.00000000
v 13.74606602 29.27183919 19.99999955
v 13.74606602 29.27183919 0.00000000
v 13.82683404 29.23879400 19.99999955
v 13.82683404 29.23879400 0.00000000
v 13.90731148 29.20504846 19.99999955
v 13.90731148 29.20504846 0.00000000
v 13.98749091 29.17060070 19.99999955
v 13.98749091 29.17060070 0.00000000
v 14.06736672 29.13545445 19.99999955
v 14.06736672 29.13545445 0.00000000
v 14.14693240 29.09961343 19.99999955
v 14.14693240 29.09961343 0.00000000
v 14.22618236 29.06307764 19.99999955
v 14.22618236 29.06307764 0.00000000
v 14.30511102 29.02585268 19.99999955
v 14.30511102 29.02585268 0.00000000
v 14.38371185 28.98794040 19.99999955
v 14.38371185 28.98794040 0.00000000
v 14.46197834 28.94934267 19.99999955
v 14.46197834 28.94934267 0.00000000
v 14.53990489 28.91006507 19.99999955
v 14.53990489 28.91006507 0.00000000
v 14.61748593 28.87010761 19.99999955
v 14.61748593 28.87010761 0.00000000
v 14.69471585 28.82947586 19.99999955
v 14.69471585 28.82947586 0.00000000
v 14.77158722 28.78816985 19.99999955
v 14.77158722 28.78816985 0.00000000
v 14.84809630 28.74619700 19.99999955
v 14.84809630 28.74619700 0.00000000
v 14.92423564 28.70355546 19.99999955
v 14.92423564 28.70355546 0.00000000
v 14.99999966 28.66025269 19.99999955
v 14.99999966 28.66025269 0.00000000
v 15.07538278 28.61629054 19.99999955
v 15.07538278 28.61629054 0.00000000
v 15.15038032 28.57167274 19.99999955
v 15.15038032 28.57167274 0.00000000
v 15.22498485 28.52640115 19.99999955
v 15.22498485 28.52640115 0.00000000
v 15.29919263 28.48047949 19.99999955
v 15.29919263 28.48047949 0.00000000
v 15.37299529 28.43391337 19.99999955
v 15.37299529 28.43391337 0.00000000
v 15.44639003 28.38670462 19.99999955
v 15.44639003 28.38670462 0.00000000
v 15.51937032 28.33885700 19.99999955
v 15.51937032 28.33885700 0.00000000
v 15.59192874 28.29037420 19.99999955
v 15.59192874 28.29037420 0.00000000
v 15.66406153 28.24126184 19.99999955
v 15.66406153 28.24126184 0.00000000
v 15.73576406 28.19151990 19.99999955
v 15.73576406 28.19151990 0.00000000
v 15.80702886 28.14115584 19.99999955
v 15.80702886 28.14115584 0.00000000
v 15.87785222 28.09016965 19.99999955
v 15.87785222 28.09016965 0.00000000
v 15.94822854 28.03856879 19.99999955
v 15.94822854 28.03856879 0.00000000
v 16.01815037 27.98635513 19.99999955
v 16.01815037 27.98635513 0.00000000
v 16.08761400 27.93353237 19.99999955
v 16.08761400 27.93353237 0.00000000
v 16.15661383 27.88010798 19.99999955
v 0.00038091 20.08726448 19.99999955
v 0.00000000 19.99999955 0.00000000
v 0.00000000 19.99999955 19.99999955
v 0.00038091 19.91273463 0.00000000
v 0.00038091 19.91273463 19.99999955
v 0.00152271 19.82547529 0.00000000
v 0.00152271 19.82547529 19.99999955
v 0.00342634 19.73822899 0.00000000
v 0.00342634 19.73822899 19.99999955
v 0.00609178 19.65100504 0.00000000
v 0.00609178 19.65100504 19.99999955
v 0.00951719 19.56380717 0.00000000
v 0.00951719 19.56380717 19.99999955
v 0.01370441 19.47664097 0.00000000
v 0.01370441 19.47664097 19.99999955
v 0.01865160 19.38951574 0.00000000
v 0.01865160 19.38951574 19.99999955
v 0.02435967 19.30243522 0.00000000
v 0.02435967 19.30243522 19.99999955
v 0.03082678 19.21540871 0.00000000
v 0.03082678 19.21540871 19.99999955
v 0.03805291 19.12844367 0.00000000
v 0.03805291 19.12844367 19.99999955
v 0.04603807 19.04154196 0.00000000
v 0.04603807 19.04154196 19.99999955
v 0.05478039 18.95471662 0.00000000
v 0.05478039 18.95471662 19.99999955
v 0.06428082 18.86796765 0.00000000
v 0.06428082 18.86796765 19.99999955
v 0.07453840 18.78130622 0.00000000
v 0.07453840 18.78130622 19.99999955
v 0.08555129 18.69473793 0.00000000
v 0.08555129 18.69473793 19.99999955
v 0.09731948 18.60826835 0.00000000
v 0.09731948 18.60826835 19.99999955
v 0.10984112 18.52190681 0.00000000
v 0.10984112 18.52190681 19.99999955
v 0.12311619 18.43565516 0.00000000
v 0.12311619 18.43565516 19.99999955
v 0.13714375 18.34952272 0.00000000
v 0.13714375 18.34952272 19.99999955
v 0.15192198 18.26351695 0.00000000
v 0.15192198 18.26351695 19.99999955
v 0.16745088 18.17764528 0.00000000
v 0.16745088 18.17764528 19.99999955
v 0.18372759 18.09190959 0.00000000
v 0.18372759 18.09190959 19.99999955
v 0.20075309 18.00632104 0.00000000
v 0.20075309 18.00632104 19.99999955
v 0.21852367 17.92088337 0.00000000
v 0.21852367 17.92088337 19.99999955
v 0.23703930 17.83560403 0.00000000
v 0.23703930 17.83560403 19.99999955
v 0.25629904 17.75048859 0.00000000
v 0.25629904 17.75048859 19.99999955
v 0.27630012 17.66554639 0.00000000
v 0.27630012 17.66554639 19.99999955
v 0.29704254 17.58077927 0.00000000
v 0.29704254 17.58077927 19.99999955
v 0.31852350 17.49619842 0.00000000
v 0.31852350 17.49619842 19.99999955
v 0.34074113 17.41180941 0.00000000
v 0.34074113 17.41180941 19.99999955
v 0.36369544 17.32761599 0.00000000
v 0.36369544 17.32761599 19.99999955
v 0.38738269 17.24362560 0.00000000
v 0.38738269 17.24362560 19.99999955
v 0.41180197 17.15984568 0.00000000
v 0.41180197 17.15984568 19.99999955
v 0.43695237 17.07628183 0.00000000
v 0.43695237 17.07628183 19.99999955
v 0.46283007 16.99294150 0.00000000
v 0.46283007 16.99294150 19.99999955
v 0.48943423 16.90983027 0.00000000
v 0.48943423 16.90983027 19.99999955
v 0.51676296 16.82695374 0.00000000
v 0.51676296 16.82695374 19.99999955
v 0.54481439 16.74431749 0.00000000
v 0.54481439 16.74431749 19.99999955
v 0.57358481 16.66193269 0.00000000
v 0.57358481 16.66193269 19.99999955
v 0.60307328 16.57979749 0.00000000
v 0.60307328 16.57979749 19.99999955
v 0.63327793 16.49792679 0.00000000
v 0.63327793 16.49792679 19.99999955
v 0.66419598 16.41632058 0.00000000
v 0.66419598 16.41632058 19.99999955
v 0.69582369 16.33498818 0.00000000
v 0.69582369 16.33498818 19.99999955
v 0.72816107 16.25393331 0.00000000
v 0.72816107 16.25393331 19.99999955
v 0.76120440 16.17316529 0.00000000
v 0.76120440 16.17316529 19.99999955
v 0.79495081 16.09268785 0.00000000
v 0.79495081 16.09268785 19.99999955
v 0.82939863 16.01250842 0.00000000
v 0.82939863 16.01250842 19.99999955
v 0.86454488 15.93263261 0.00000000
v 0.86454488 15.93263261 19.99999955
v 0.90038683 15.85306786 0.00000000
v 0.90038683 15.85306786 19.99999955
v 0.93692174 15.77381790 0.00000000
v 0.93692174 15.77381790 19.99999955
v 0.97414665 15.69488831 0.00000000
v 0.97414665 15.69488831 19.99999955
v 1.01205893 15.61628841 0.00000000
v 1.01205893 15.61628841 19.99999955
v 1.05065573 15.53802099 0.00000000
v 1.05065573 15.53802099 19.99999955
v 1.08993426 15.46009444 0.00000000
v 1.08993426 15.46009444 19.99999955
v 1.12989172 15.38251340 0.00000000
v 1.12989172 15.38251340 19.99999955
v 1.17052335 15.30528348 0.00000000
v 1.17052335 15.30528348 19.99999955
v 1.21182855 15.22841211 0.00000000
v 1.21182855 15.22841211 19.99999955
v 1.25380233 15.15190303 0.00000000
v 1.25380233 15.15190303 19.99999955
v 1.29644293 15.07576369 0.00000000
v 1.29644293 15.07576369 19.99999955
v 1.33974571 14.99999966 0.00000000
v 1.33974571 14.99999966 19.99999955
v 1.38370786 14.92461562 0.00000000
v 1.38370786 14.92461562 19.99999955
v 1.42832659 14.84961901 0.00000000
v 1.42832659 14.84961901 19.99999955
v 1.47359830 14.77501355 0.00000000
v 1.47359830 14.77501355 19.99999955
v 1.51951890 14.70080670 0.00000000
v 1.51951890 14.70080670 19.99999955
v 1.56608503 14.62700404 0.00000000
v 1.56608503 14.62700404 19.99999955
v 1.61329377 14.55360930 0.00000000
v 1.61329377 14.55360930 19.99999955
v 1.66114140 14.48062994 0.00000000
v 1.66114140 14.48062994 19.99999955
v 1.70962419 14.40807059 0.00000000
v 1.70962419 14.40807059 19.99999955
v 1.75873749 14.33593780 0.00000000
v 1.75873749 14.33593780 19.99999955
v 1.80847943 14.26423527 0.00000000
v 1.80847943 14.26423527 19.99999955
v 1.85884442 14.19297047 0.00000000
v 1.85884442 14.19297047 19.99999955
v 1.90982956 14.12214711 0.00000000
v 1.90982956 14.12214711 19.99999955
v 1.96143147 14.05177172 0.00000000
v 1.96143147 14.05177172 19.99999955
v 2.01364513 13.98184989 0.00000000
v 2.01364513 13.98184989 19.99999955
v 2.06646603 13.91238533 0.00000000
v 2.06646603 13.91238533 19.99999955
v 2.11989228 13.84338457 0.00000000
v 2.11989228 13.84338457 19.99999955
v 2.17391830 13.77485320 0.00000000
v 2.17391830 13.77485320 19.99999955
v 2.22854037 13.70679587 0.00000000
v 2.22854037 13.70679587 19.99999955
v 2.28375383 13.63921724 0.00000000
v 2.28375383 13.63921724 19.99999955
v 2.33955542 13.57212383 0.00000000
v 2.33955542 13.57212383 19.99999955
v 2.39594001 13.50551937 0.00000000
v 2.39594001 13.50551937 19.99999955
v 2.45290389 13.43940943 0.00000000
v 2.45290389 13.43940943 19.99999955
v 2.51044240 13.37379962 0.00000000
v 2.51044240 13.37379962 19.99999955
v 2.56855134 13.30869365 0.00000000
v 2.56855134 13.30869365 19.99999955
v 2.62722652 13.24409805 0.00000000
v 2.62722652 13.24409805 19.99999955
v 2.68646283 13.18001654 0.00000000
v 2.68646283 13.18001654 19.99999955
v 2.74625607 13.11645377 0.00000000
v 2.74625607 13.11645377 19.99999955
v 2.80660158 13.05341627 0.00000000
v 2.80660158 13.05341627 19.99999955
v 2.86749518 12.99090683 0.00000000
v 2.86749518 12.99090683 19.99999955
v 2.92893220 12.92893197 0.00000000
v 2.92893220 12.92893197 19.99999955
v 2.99090706 12.86749449 0.00000000
v 2.99090706 12.86749449 19.99999955
v 3.05341603 12.80660182 0.00000000
v 3.05341603 12.80660182 19.99999955
v 3.11645400 12.74625584 0.00000000
v 3.11645400 12.74625584 19.99999955
v 3.18001630 12.68646214 0.00000000
v 3.18001630 12.68646214 19.99999955
v 3.24409781 12.62722630 0.00000000
v 3.24409781 12.62722630 19.99999955
v 3.30869388 12.56855112 0.00000000
v 3.30869388 12.56855112 19.99999955
v 3.37379938 12.51044217 0.00000000
v 3.37379938 12.51044217 19.99999955
v 3.43940966 12.45290413 0.00000000
v 3.43940966 12.45290413 19.99999955
v 3.50551913 12.39593979 0.00000000
v 3.50551913 12.39593979 19.99999955
v 3.57212359 12.33955473 0.00000000
v 3.57212359 12.33955473 19.99999955
v 3.63921747 12.28375360 0.00000000
v 3.63921747 12.28375360 19.99999955
v 3.70679609 12.22854014 0.00000000
v 3.70679609 12.22854014 19.99999955
v 3.77485342 12.17391808 0.00000000
v 3.77485342 12.17391808 19.99999955
v 3.84338479 12.11989205 0.00000000
v 3.84338479 12.11989205 19.99999955
v 3.91238555 12.06646580 0.00000000
v 3.91238555 12.06646580 19.99999955
v 3.98184964 12.01364491 0.00000000
v 3.98184964 12.01364491 19.99999955
v 4.05177195 11.96143124 0.00000000
v 4.05177195 11.96143124 19.99999955
v 4.12214734 11.90982945 0.00000000
v 4.12214734 11.90982945 19.99999955
v 4.19297023 11.85884420 0.00000000
v 4.19297023 11.85884420 19.99999955
v 4.26423550 11.80847920 0.00000000
v 4.26423550 11.80847920 19.99999955
v 4.33593756 11.75873727 0.00000000
v 4.33593756 11.75873727 19.99999955
v 4.40807082 11.70962397 0.00000000
v 4.40807082 11.70962397 19.99999955
v 4.48062969 11.66114118 0.00000000
v 4.48062969 11.66114118 19.99999955
v 4.55360953 11.61329355 0.00000000
v 4.55360953 11.61329355 19.99999955
v 4.62700380 11.56608481 0.00000000
v 4.62700380 11.56608481 19.99999955
v 4.70080692 11.51951868 0.00000000
v 4.70080692 11.51951868 19.99999955
v 4.77501424 11.47359796 0.00000000
v 4.77501424 11.47359796 19.99999955
v 4.84961923 11.42832637 0.00000000
v 4.84961923 11.42832637 19.99999955
v 4.92461631 11.38370764 0.00000000
v 4.92461631 11.38370764 19.99999955
v 4.99999989 11.33974548 0.00000000
v 4.99999989 11.33974548 19.99999955
v 5.07576438 11.29644271 0.00000000
v 5.07576438 11.29644271 19.99999955
v 5.15190372 11.25380211 0.00000000
v 5.15190372 11.25380211 19.99999955
v 5.22841234 11.21182833 0.00000000
v 5.22841234 11.21182833 19.99999955
v 5.30528417 11.17052324 0.00000000
v 5.30528417 11.17052324 19.99999955
v 5.38251363 11.12989150 0.00000000
v 5.38251363 11.12989150 19.99999955
v 5.46009466 11.08993404 0.00000000
v 5.46009466 11.08993404 19.99999955
v 5.53802168 11.05065551 0.00000000
v 5.61628817 28.98794040 19.99999955
v 5.53802168 28.94934267 0.00000000
v 5.53802168 28.94934267 19.99999955
v 5.46009466 28.91006507 0.00000000
v 5.46009466 28.91006507 19.99999955
v 5.38251363 28.87010761 0.00000000
v 5.38251363 28.87010761 19.99999955
v 5.30528417 28.82947586 0.00000000
v 5.30528417 28.82947586 19.99999955
v 5.22841234 28.78816985 0.00000000
v 5.22841234 28.78816985 19.99999955
v 5.15190372 28.74619700 0.00000000
v 5.15190372 28.74619700 19.99999955
v 5.07576438 28.70355546 0.00000000
v 5.07576438 28.70355546 19.99999955
v 4.99999989 28.66025269 0.00000000
v 4.99999989 28.66025269 19.99999955
v 4.92461631 28.61629054 0.00000000
v 4.92461631 28.61629054 19.99999955
v 4.84961923 28.57167274 0.00000000
v 4.84961923 28.57167274 19.99999955
v 4.77501424 28.52640115 0.00000000
v 4.77501424 28.52640115 19.99999955
v 4.70080692 28.48047949 0.00000000
v 4.70080692 28.48047949 19.99999955
v 4.62700380 28.43391337 0.00000000
v 4.62700380 28.43391337 19.99999955
v 4.55360953 28.38670462 0.00000000
v 4.55360953 28.38670462 19.99999955
v 4.48062969 28.33885700 0.00000000
v 4.48062969 28.33885700 19.99999955
v 4.40807082 28.29037420 0.00000000
v 4.40807082 28.29037420 19.99999955
v 4.33593756 28.24126184 0.00000000
v 4.33593756 28.24126184 19.99999955
v 4.26423550 28.19151990 0.00000000
v 4.26423550 28.19151990 19.99999955
v 4.19297023 28.14115584 0.00000000
v 4.19297023 28.14115584 19.99999955
v 4.12214734 28.09016965 0.00000000
v 4.12214734 28.09016965 19.99999955
v 4.05177195 28.03856879 0.00000000
v 4.05177195 28.03856879 19.99999955
v 3.98184964 27.98635513 0.00000000
v 3.98184964 27.98635513 19.99999955
v 3.91238555 27.93353237 0.00000000
v 3.91238555 27.93353237 19.99999955
v 3.84338479 27.88010798 0.00000000
v 3.84338479 27.88010798 19.99999955
v 3.77485342 27.82608010 0.00000000
v 3.77485342 27.82608010 19.99999955
v 3.70679609 27.77145989 0.00000000
v 3.70679609 27.77145989 19.99999955
v 3.63921747 27.71624550 0.00000000
v 3.63921747 27.71624550 19.99999955
v 3.57212359 27.66044438 0.00000000
v 3.57212359 27.66044438 19.99999955
v 3.50551913 27.60405838 0.00000000
v 3.50551913 27.60405838 19.99999955
v 3.43940966 27.54709683 0.00000000
v 3.43940966 27.54709683 19.99999955
v 3.37379938 27.48955786 0.00000000
v 3.37379938 27.48955786 19.99999955
v 3.30869388 27.43144706 0.00000000
v 3.30869388 27.43144706 19.99999955
v 3.24409781 27.37277187 0.00000000
v 3.24409781 27.37277187 19.99999955
v 3.18001630 27.31353603 0.00000000
v 3.18001630 27.31353603 19.99999955
v 3.11645400 27.25374326 0.00000000
v 3.11645400 27.25374326 19.99999955
v 3.05341603 27.19339728 0.00000000
v 3.05341603 27.19339728 19.99999955
v 2.99090706 27.13250369 0.00000000
v 2.99090706 27.13250369 19.99999955
v 2.92893220 27.07106806 0.00000000
v 2.92893220 27.07106806 19.99999955
v 2.86749518 27.00909227 0.00000000
v 2.86749518 27.00909227 19.99999955
v 2.80660158 26.94658190 0.00000000
v 2.80660158 26.94658190 19.99999955
v 2.74625607 26.88354440 0.00000000
v 2.74625607 26.88354440 19.99999955
v 2.68646283 26.81998163 0.00000000
v 2.68646283 26.81998163 19.99999955
v 2.62722652 26.75590105 0.00000000
v 2.62722652 26.75590105 19.99999955
v 2.56855134 26.69130452 0.00000000
v 2.56855134 26.69130452 19.99999955
v 2.51044240 26.62619948 0.00000000
v 2.51044240 26.62619948 19.99999955
v 2.45290389 26.56058967 0.00000000
v 2.45290389 26.56058967 19.99999955
v 2.39594001 26.49448067 0.00000000
v 2.39594001 26.49448067 19.99999955
v 2.33955542 26.42787620 0.00000000
v 2.33955542 26.42787620 19.99999955
v 2.28375383 26.36078186 0.00000000
v 2.28375383 26.36078186 19.99999955
v 2.22854037 26.29320323 0.00000000
v 2.22854037 26.29320323 19.99999955
v 2.17391830 26.22514591 0.00000000
v 2.17391830 26.22514591 19.99999955
v 2.11989228 26.15661360 0.00000000
v 2.11989228 26.15661360 19.99999955
v 2.06646603 26.08761378 0.00000000
v 2.06646603 26.08761378 19.99999955
v 2.01364513 26.01815015 0.00000000
v 2.01364513 26.01815015 19.99999955
v 1.96143147 25.94822645 0.00000000
v 1.96143147 25.94822645 19.99999955
v 1.90982956 25.87785199 0.00000000
v 1.90982956 25.87785199 19.99999955
v 1.85884442 25.80703050 0.00000000
v 1.85884442 25.80703050 19.99999955
v 1.80847943 25.73576383 0.00000000
v 1.80847943 25.73576383 19.99999955
v 1.75873749 25.66406317 0.00000000
v 1.75873749 25.66406317 19.99999955
v 1.70962419 25.59192851 0.00000000
v 1.70962419 25.59192851 19.99999955
v 1.66114140 25.51936917 0.00000000
v 1.66114140 25.51936917 19.99999955
v 1.61329377 25.44639073 0.00000000
v 1.61329377 25.44639073 19.99999955
v 1.56608503 25.37299506 0.00000000
v 1.56608503 25.37299506 19.99999955
v 1.51951890 25.29919334 0.00000000
v 1.51951890 25.29919334 19.99999955
v 1.47359830 25.22498555 0.00000000
v 1.47359830 25.22498555 19.99999955
v 1.42832659 25.15037917 0.00000000
v 1.42832659 25.15037917 19.99999955
v 1.38370786 25.07538162 0.00000000
v 1.38370786 25.07538162 19.99999955
v 1.33974571 25.00000037 0.00000000
v 1.33974571 25.00000037 19.99999955
v 1.29644293 24.92423356 0.00000000
v 1.29644293 24.92423356 19.99999955
v 1.25380233 24.84809421 0.00000000
v 1.25380233 24.84809421 19.99999955
v 1.21182855 24.77158792 0.00000000
v 1.21182855 24.77158792 19.99999955
v 1.17052335 24.69471470 0.00000000
v 1.17052335 24.69471470 19.99999955
v 1.12989172 24.61748570 0.00000000
v 1.12989172 24.61748570 19.99999955
v 1.08993426 24.53990467 0.00000000
v 1.08993426 24.53990467 19.99999955
v 1.05065573 24.46197718 0.00000000
v 1.05065573 24.46197718 19.99999955
v 1.01205893 24.38371070 0.00000000
v 1.01205893 24.38371070 19.99999955
v 0.97414665 24.30511080 0.00000000
v 0.97414665 24.30511080 19.99999955
v 0.93692174 24.22618307 0.00000000
v 0.93692174 24.22618307 19.99999955
v 0.90038683 24.14693311 0.00000000
v 0.90038683 24.14693311 19.99999955
v 0.86454488 24.06736650 0.00000000
v 0.86454488 24.06736650 19.99999955
v 0.82939863 23.98748882 0.00000000
v 0.82939863 23.98748882 19.99999955
v 0.79495081 23.90731126 0.00000000
v 0.79495081 23.90731126 19.99999955
v 0.76120440 23.82683381 0.00000000
v 0.76120440 23.82683381 19.99999955
v 0.72816107 23.74606580 0.00000000
v 0.72816107 23.74606580 19.99999955
v 0.69582369 23.66501279 0.00000000
v 0.69582369 23.66501279 19.99999955
v 0.66419598 23.58367853 0.00000000
v 0.66419598 23.58367853 19.99999955
v 0.63327793 23.50207418 0.00000000
v 0.63327793 23.50207418 19.99999955
v 0.60307328 23.42019975 0.00000000
v 0.60307328 23.42019975 19.99999955
v 0.57358481 23.33806828 0.00000000
v 0.57358481 23.33806828 19.99999955
v 0.54481439 23.25568162 0.00000000
v 0.54481439 23.25568162 19.99999955
v 0.51676296 23.17304537 0.00000000
v 0.51676296 23.17304537 19.99999955
v 0.48943423 23.09017070 0.00000000
v 0.48943423 23.09017070 19.99999955
v 0.46283007 23.00705761 0.00000000
v 0.46283007 23.00705761 19.99999955
v 0.43695237 22.92371728 0.00000000
v 0.43695237 22.92371728 19.99999955
v 0.41180197 22.84015343 0.00000000
v 0.41180197 22.84015343 19.99999955
v 0.38738269 22.75637165 0.00000000
v 0.38738269 22.75637165 19.99999955
v 0.36369544 22.67238498 0.00000000
v 0.36369544 22.67238498 19.99999955
v 0.34074113 22.58818969 0.00000000
v 0.34074113 22.58818969 19.99999955
v 0.31852350 22.50379883 0.00000000
v 0.31852350 22.50379883 19.99999955
v 0.29704254 22.41921797 0.00000000
v 0.29704254 22.41921797 19.99999955
v 0.27630012 22.33445272 0.00000000
v 0.27630012 22.33445272 19.99999955
v 0.25629904 22.24951051 0.00000000
v 0.25629904 22.24951051 19.99999955
v 0.23703930 22.16439694 0.00000000
v 0.23703930 22.16439694 19.99999955
v 0.21852367 22.07911760 0.00000000
v 0.21852367 22.07911760 19.99999955
v 0.20075309 21.99367993 0.00000000
v 0.20075309 21.99367993 19.99999955
v 0.18372759 21.90808952 0.00000000
v 0.18372759 21.90808952 19.99999955
v 0.16745088 21.82235569 0.00000000
v 0.16745088 21.82235569 19.99999955
v 0.15192198 21.73648030 0.00000000
v 0.15192198 21.73648030 19.99999955
v 0.13714375 21.65047638 0.00000000
v 0.13714375 21.65047638 19.99999955
v 0.12311619 21.56434394 0.00000000
v 0.12311619 21.56434394 19.99999955
v 0.10984112 21.47809416 0.00000000
v 0.10984112 21.47809416 19.99999955
v 0.09731948 21.39173076 0.00000000
v 0.09731948 21.39173076 19.99999955
v 0.08555129 21.30526118 0.00000000
v 0.08555129 21.30526118 19.99999955
v 0.07453840 21.21869288 0.00000000
v 0.07453840 21.21869288 19.99999955
v 0.06428082 21.13203332 0.00000000
v 0.06428082 21.13203332 19.99999955
v 0.05478039 21.04528435 0.00000000
v 0.05478039 21.04528435 19.99999955
v 0.04603807 20.95845714 0.00000000
v 0.04603807 20.95845714 19.99999955
v 0.03805291 20.87155730 0.00000000
v 0.03805291 20.87155730 19.99999955
v 0.03082678 20.78459039 0.00000000
v 0.03082678 20.78459039 19.99999955
v 0.02435967 20.69756575 0.00000000
v 0.02435967 20.69756575 19.99999955
v 0.01865160 20.61048523 0.00000000
v 0.01865160 20.61048523 19.99999955
v 0.01370441 20.52336000 0.00000000
v 0.01370441 20.52336000 19.99999955
v 0.00951719 20.43619379 0.00000000
v 0.00951719 20.43619379 19.99999955
v 0.00609178 20.34899592 0.00000000
v 0.00609178 20.34899592 19.99999955
v 0.00342634 20.26176825 0.00000000
v 0.00342634 20.26176825 19.99999955
v 0.00152271 20.17452382 0.00000000
v 0.00152271 20.17452382 19.99999955
v 0.00038091 20.08726448 0.00000000
v 9.99999978 19.99999955 0.00000000
v 0.00000000 39.99999911 19.99999955
v 19.99999955 39.99999911 19.99999955
v 0.00000000 0.00000000 19.99999955
v 19.99999955 0.00000000 19.99999955
v 19.99999955 39.99999911 79.99999821
v 19.99999955 0.00000000 79.99999821
v 0.00000000 39.99999911 79.99999821
v 0.00000000 0.00000000 79.99999821
f 1 2 3
f 3 2 4
f 3 4 5
f 5 4 6
f 5 6 7
f 7 6 8
f 7 8 9
f 9 8 10
f 9 10 11
f 11 10 12
f 11 12 13
f 13 12 14
f 13 14 15
f 15 14 16
f 15 16 17
f 17 16 18
f 17 18 19
f 19 18 20
f 19 20 21
f 21 20 22
f 21 22 23
f 23 22 24
f 23 24 25
f 25 24 26
f 25 26 27
f 27 26 28
f 27 28 29
f 29 28 30
f 29 30 31
f 31 30 32
f 31 32 33
f 33 32 34
f 33 34 35
f 35 34 36
f 35 36 37
f 37 36 38
f 37 38 39
f 39 38 40
f 39 40 41
f 41 40 42
f 41 42 43
f 43 42 44
f 43 44 45
f 45 44 46
f 45 46 47
f 47 46 48
f 47 48 49
f 49 48 50
f 49 50 51
f 51 50 52
f 51 52 53
f 53 52 54
f 53 54 55
f 55 54 56
f 55 56 57
f 57 56 58
f 57 58 59
f 59 58 60
f 59 60 61
f 61 60 62
f 61 62 63
f 63 62 64
f 63 64 65
f 65 64 66
f 65 66 67
f 67 66 68
f 67 68 69
f 69 68 70
f 69 70 71
f 71 70 72
f 71 72 73
f 73 72 74
f 73 74 75
f 75 74 76
f 75 76 77
f 77 76 78
f 77 78 79
f 79 78 80
f 79 80 81
f 81 80 82
f 81 82 83
f 83 82 84
f 83 84 85
f 85 84 86
f 85 86 87
f 87 86 88
f 87 88 89
f 89 88 90
f 89 90 91
f 91 90 92
f 91 92 93
f 93 92 94
f 93 94 95
f 95 94 96
f 95 96 97
f 97 96 98
f 97 98 99
f 99 98 100
f 99 100 101
f 101 100 102
f 101 102 103
f 103 102 104
f 103 104 105
f 105 104 106
f 105 106 107
f 107 106 108
f 107 108 109
f 109 108 110
f 109 110 111
f 111 110 112
f 111 112 113
f 113 112 114
f 113 114 115
f 115 114 116
f 115 116 117
f 117 116 118
f 117 118 119
f 119 118 120
f 119 120 121
f 121 120 122
f 121 122 123
f 123 122 124
f 123 124 125
f 125 124 126
f 125 126 127
f 127 126 128
f 127 128 129
f 129 128 130
f 129 130 131
f 131 130 132
f 131 132 133
f 133 132 134
f 133 134 135
f 135 134 136
f 135 136 137
f 137 136 138
f 137 138 139
f 139 138 140
f 139 140 141
f 141 140 142
f 141 142 143
f 143 142 144
f 143 144 145
f 145 144 146
f 145 146 147
f 147 146 148
f 147 148 149
f 149 148 150
f 149 150 151
f 151 150 152
f 151 152 153
f 153 152 154
f 153 154 155
f 155 154 156
f 155 156 157
f 157 156 158
f 157 158 159
f 159 158 160
f 159 160 161
f 161 160 162
f 163 164 165
f 165 164 166
f 165 166 167
f 167 166 168
f 167 168 169
f 169 168 170
f 169 170 171
f 171 170 172
f 171 172 173
f 173 172 174
f 173 174 175
f 175 174 176
f 175 176 177
f 177 176 178
f 177 178 179
f 179 178 180
f 179 180 181
f 181 180 182
f 181 182 183
f 183 182 184
f 183 184 185
f 185 184 186
f 185 186 187
f 187 186 188
f 187 188 189
f 189 188 190
f 189 190 191
f 191 190 192
f 191 192 193
f 193 192 194
f 193 194 195
f 195 194 196
f 195 196 197
f 197 196 198
f 197 198 199
f 199 198 200
f 199 200 201
f 201 200 202
f 201 202 203
f 203 202 204
f 203 204 205
f 205 204 206
f 205 206 207
f 207 206 208
f 207 208 209
f 209 208 210
f 209 210 211
f 211 210 212
f 211 212 213
f 213 212 214
f 213 214 215
f 215 214 216
f 215 216 217
f 217 216 218
f 217 218 219
f 219 218 220
f 219 220 221
f 221 220 222
f 221 222 223
f 223 222 224
f 223 224 225
f 225 224 226
f 225 226 227
f 227 226 228
f 227 228 229
f 229 228 230
f 229 230 231
f 231 230 232
f 231 232 233
f 233 232 234
f 233 234 235
f 235 234 236
f 235 236 237
f 237 236 238
f 237 238 239
f 239 238 240
f 239 240 241
f 241 240 242
f 241 242 243
f 243 242 244
f 243 244 245
f 245 244 246
f 245 246 247
f 247 246 248
f 247 248 249
f 249 248 250
f 249 250 251
f 251 250 252
f 251 252 253
f 253 252 254
f 253 254 255
f 255 254 256
f 255 256 257
f 257 256 258
f 257 258 259
f 259 258 260
f 259 260 261
f 261 260 262
f 261 262 263
f 263 262 264
f 263 264 265
f 265 264 266
f 265 266 267
f 267 266 268
f 267 268 269
f 269 268 270
f 269 270 271
f 271 270 272
f 271 272 273
f 273 272 274
f 273 274 275
f 275 274 276
f 275 276 277
f 277 276 278
f 277 278 279
f 279 278 280
f 279 280 281
f 281 280 282
f 281 282 283
f 283 282 284
f 283 284 285
f 285 284 286
f 285 286 287
f 287 286 288
f 287 288 289
f 289 288 290
f 289 290 291
f 291 290 292
f 291 292 293
f 293 292 294
f 293 294 295
f 295 294 296
f 295 296 297
f 297 296 298
f 297 298 299
f 299 298 300
f 299 300 301
f 301 300 302
f 301 302 303
f 303 302 304
f 303 304 305
f 305 304 306
f 305 306 307
f 307 306 308
f 307 308 309
f 309 308 310
f 309 310 311
f 311 310 312
f 311 312 313
f 313 312 314
f 313 314 315
f 315 314 316
f 315 316 317
f 317 316 318
f 317 318 319
f 319 318 320
f 319 320 321
f 321 320 322
f 321 322 323
f 323 322 324
f 323 324 325
f 325 324 326
f 325 326 327
f 327 326 328
f 327 328 329
f 329 328 330
f 329 330 331
f 331 330 332
f 331 332 333
f 333 332 334
f 333 334 335
f 335 334 336
f 335 336 337
f 337 336 338
f 337 338 339
f 339 338 340
f 339 340 341
f 341 340 342
f 341 342 343
f 343 342 344
f 343 344 345
f 345 344 346
f 345 346 347
f 347 346 348
f 347 348 349
f 349 348 350
f 349 350 351
f 351 350 352
f 351 352 353
f 353 352 354
f 353 354 355
f 355 354 356
f 355 356 357
f 357 356 358
f 357 358 359
f 359 358 360
f 359 360 361
f 361 360 362
f 361 362 363
f 363 362 364
f 363 364 365
f 365 364 366
f 365 366 367
f 367 366 368
f 367 368 369
f 369 368 370
f 369 370 371
f 371 370 372
f 371 372 373
f 373 372 374
f 373 374 375
f 375 374 376
f 375 376 377
f 377 376 378
f 377 378 379
f 379 378 380
f 379 380 381
f 381 380 382
f 381 382 383
f 383 382 384
f 383 384 385
f 385 384 386
f 385 386 387
f 387 386 388
f 387 388 389
f 389 388 390
f 389 390 391
f 391 390 392
f 391 392 393
f 393 392 394
f 393 394 395
f 395 394 396
f 395 396 397
f 397 396 398
f 397 398 399
f 399 398 400
f 399 400 401
f 401 400 402
f 401 402 403
f 403 402 404
f 403 404 405
f 405 404 406
f 405 406 407
f 407 406 408
f 407 408 409
f 409 408 410
f 409 410 411
f 411 410 412
f 411 412 413
f 413 412 414
f 413 414 415
f 415 414 416
f 415 416 417
f 417 416 418
f 417 418 1
f 1 418 2
f 419 420 421
f 421 420 422
f 421 422 423
f 423 422 424
f 423 424 425
f 425 424 426
f 425 426 427
f 427 426 428
f 427 428 429
f 429 428 430
f 429 430 431
f 431 430 432
f 431 432 433
f 433 432 434
f 433 434 435
f 435 434 436
f 435 436 437
f 437 436 438
f 437 438 439
f 439 438 440
f 439 440 441
f 441 440 442
f 441 442 443
f 443 442 444
f 443 444 445
f 445 444 446
f 445 446 447
f 447 446 448
f 447 448 449
f 449 448 450
f 449 450 451
f 451 450 452
f 451 452 453
f 453 452 454
f 453 454 455
f 455 454 456
f 455 456 457
f 457 456 458
f 457 458 459
f 459 458 460
f 459 460 461
f 461 460 462
f 461 462 463
f 463 462 464
f 463 464 465
f 465 464 466
f 465 466 467
f 467 466 468
f 467 468 469
f 469 468 470
f 469 470 471
f 471 470 472
f 471 472 473
f 473 472 474
f 473 474 475
f 475 474 476
f 475 476 477
f 477 476 478
f 477 478 479
f 479 478 480
f 479 480 481
f 481 480 482
f 481 482 483
f 483 482 484
f 483 484 485
f 485 484 486
f 485 486 487
f 487 486 488
f 487 488 489
f 489 488 490
f 489 490 491
f 491 490 492
f 491 492 493
f 493 492 494
f 493 494 495
f 495 494 496
f 495 496 497
f 497 496 498
f 497 498 499
f 499 498 500
f 499 500 501
f 501 500 502
f 501 502 503
f 503 502 504
f 503 504 505
f 505 504 506
f 505 506 507
f 507 506 508
f 507 508 509
f 509 508 510
f 509 510 511
f 511 510 512
f 511 512 513
f 513 512 514
f 513 514 515
f 515 514 516
f 515 516 517
f 517 516 518
f 517 518 519
f 519 518 520
f 519 520 521
f 521 520 522
f 521 522 523
f 523 522 524
f 523 524 525
f 525 524 526
f 525 526 527
f 527 526 528
f 527 528 529
f 529 528 530
f 529 530 531
f 531 530 532
f 531 532 533
f 533 532 534
f 533 534 535
f 535 534 536
f 535 536 537
f 537 536 538
f 537 538 539
f 539 538 540
f 539 540 541
f 541 540 542
f 541 542 543
f 543 542 544
f 543 544 545
f 545 544 546
f 545 546 547
f 547 546 548
f 547 548 549
f 549 548 550
f 549 550 551
f 551 550 552
f 551 552 553
f 553 552 554
f 553 554 555
f 555 554 556
f 555 556 557
f 557 556 558
f 557 558 559
f 559 558 560
f 559 560 561
f 561 560 562
f 561 562 563
f 563 562 564
f 563 564 565
f 565 564 566
f 565 566 567
f 567 566 568
f 567 568 569
f 569 568 570
f 569 570 571
f 571 570 572
f 571 572 573
f 573 572 574
f 573 574 575
f 575 574 576
f 575 576 577
f 577 576 578
f 577 578 579
f 579 578 580
f 579 580 581
f 581 580 582
f 581 582 583
f 583 582 584
f 583 584 585
f 585 584 586
f 585 586 587
f 587 586 588
f 587 588 589
f 589 588 590
f 589 590 591
f 591 590 592
f 591 592 593
f 593 592 594
f 593 594 595
f 595 594 596
f 595 596 597
f 597 596 598
f 597 598 599
f 599 598 600
f 599 600 601
f 601 600 602
f 601 602 603
f 603 602 604
f 603 604 605
f 605 604 606
f 605 606 607
f 607 606 608
f 607 608 609
f 609 608 610
f 609 610 611
f 611 610 612
f 611 612 613
f 613 612 614
f 613 614 615
f 615 614 616
f 615 616 617
f 617 616 618
f 617 618 619
f 619 618 620
f 619 620 621
f 621 620 622
f 621 622 623
f 623 622 624
f 623 624 625
f 625 624 626
f 625 626 627
f 627 626 628
f 627 628 629
f 629 628 630
f 629 630 631
f 631 630 632
f 631 632 633
f 633 632 634
f 633 634 635
f 635 634 636
f 635 636 637
f 637 636 638
f 637 638 639
f 639 638 640
f 639 640 641
f 641 640 642
f 641 642 643
f 643 642 644
f 643 644 645
f 645 644 646
f 645 646 647
f 647 646 648
f 647 648 649
f 649 648 650
f 649 650 651
f 651 650 652
f 651 652 653
f 653 652 654
f 653 654 655
f 655 654 656
f 655 656 657
f 657 656 658
f 657 658 659
f 659 658 660
f 659 660 661
f 661 660 662
f 661 662 663
f 663 662 664
f 663 664 665
f 665 664 666
f 665 666 667
f 667 666 668
f 667 668 669
f 669 668 670
f 669 670 671
f 671 670 672
f 671 672 673
f 673 672 674
f 673 674 163
f 163 674 164
f 675 676 677
f 677 676 678
f 677 678 679
f 679 678 680
f 679 680 681
f 681 680 682
f 681 682 683
f 683 682 684
f 683 684 685
f 685 684 686
f 685 686 687
f 687 686 688
f 687 688 689
f 689 688 690
f 689 690 691
f 691 690 692
f 691 692 693
f 693 692 694
f 693 694 695
f 695 694 696
f 695 696 697
f 697 696 698
f 697 698 699
f 699 698 700
f 699 700 701
f 701 700 702
f 701 702 703
f 703 702 704
f 703 704 705
f 705 704 706
f 705 706 707
f 707 706 708
f 707 708 709
f 709 708 710
f 709 710 711
f 711 710 712
f 711 712 713
f 713 712 714
f 713 714 715
f 715 714 716
f 715 716 717
f 717 716 718
f 717 718 719
f 719 718 720
f 719 720 721
f 721 720 722
f 721 722 723
f 723 722 724
f 723 724 725
f 725 724 726
f 725 726 727
f 727 726 728
f 727 728 729
f 729 728 730
f 729 730 731
f 731 730 732
f 731 732 733
f 733 732 734
f 733 734 735
f 735 734 736
f 735 736 737
f 737 736 738
f 737 738 739
f 739 738 740
f 739 740 741
f 741 740 742
f 741 742 743
f 743 742 744
f 743 744 745
f 745 744 746
f 745 746 747
f 747 746 748
f 747 748 749
f 749 748 750
f 749 750 751
f 751 750 752
f 751 752 753
f 753 752 754
f 753 754 755
f 755 754 756
f 755 756 757
f 757 756 758
f 757 758 759
f 759 758 760
f 759 760 761
f 761 760 762
f 761 762 763
f 763 762 764
f 763 764 765
f 765 764 766
f 765 766 767
f 767 766 768
f 767 768 769
f 769 768 770
f 769 770 771
f 771 770 772
f 771 772 773
f 773 772 774
f 773 774 775
f 775 774 776
f 775 776 777
f 777 776 778
f 777 778 779
f 779 778 780
f 779 780 781
f 781 780 782
f 781 782 783
f 783 782 784
f 783 784 785
f 785 784 786
f 785 786 787
f 787 786 788
f 787 788 789
f 789 788 790
f 789 790 791
f 791 790 792
f 791 792 793
f 793 792 794
f 793 794 795
f 795 794 796
f 795 796 797
f 797 796 798
f 797 798 799
f 799 798 800
f 799 800 801
f 801 800 802
f 801 802 803
f 803 802 804
f 803 804 805
f 805 804 806
f 805 806 807
f 807 806 808
f 807 808 809
f 809 808 810
f 809 810 811
f 811 810 812
f 811 812 813
f 813 812 814
f 813 814 815
f 815 814 816
f 815 816 817
f 817 816 818
f 817 818 819
f 819 818 820
f 819 820 821
f 821 820 822
f 821 822 823
f 823 822 824
f 823 824 825
f 825 824 826
f 825 826 827
f 827 826 828
f 827 828 829
f 829 828 830
f 829 830 831
f 831 830 832
f 831 832 833
f 833 832 834
f 833 834 835
f 835 834 836
f 835 836 837
f 837 836 838
f 837 838 839
f 839 838 840
f 839 840 841
f 841 840 842
f 841 842 843
f 843 842 844
f 843 844 845
f 845 844 846
f 845 846 847
f 847 846 848
f 847 848 849
f 849 848 850
f 849 850 851
f 851 850 852
f 851 852 853
f 853 852 854
f 853 854 855
f 855 854 856
f 855 856 857
f 857 856 858
f 857 858 859
f 859 858 860
f 859 860 861
f 861 860 862
f 861 862 863
f 863 862 864
f 863 864 865
f 865 864 866
f 865 866 867
f 867 866 868
f 867 868 869
f 869 868 870
f 869 870 871
f 871 870 872
f 871 872 873
f 873 872 874
f 873 874 875
f 875 874 876
f 875 876 877
f 877 876 878
f 877 878 879
f 879 878 880
f 879 880 881
f 881 880 882
f 881 882 883
f 883 882 884
f 883 884 885
f 885 884 886
f 885 886 887
f 887 886 888
f 887 888 889
f 889 888 890
f 889 890 891
f 891 890 892
f 891 892 893
f 893 892 894
f 893 894 895
f 895 894 896
f 895 896 897
f 897 896 898
f 897 898 899
f 899 898 900
f 899 900 901
f 901 900 902
f 901 902 903
f 903 902 904
f 903 904 905
f 905 904 906
f 905 906 907
f 907 906 908
f 907 908 909
f 909 908 910
f 909 910 911
f 911 910 912
f 911 912 913
f 913 912 914
f 913 914 915
f 915 914 916
f 915 916 917
f 917 916 918
f 917 918 919
f 919 918 920
f 919 920 921
f 921 920 922
f 921 922 923
f 923 922 924
f 923 924 925
f 925 924 926
f 925 926 927
f 927 926 928
f 927 928 929
f 929 928 930
f 929 930 419
f 419 930 420
f 931 932 933
f 933 932 934
f 933 934 935
f 935 934 936
f 935 936 937
f 937 936 938
f 937 938 939
f 939 938 940
f 939 940 941
f 941 940 942
f 941 942 943
f 943 942 944
f 943 944 945
f 945 944 946
f 945 946 947
f 947 946 948
f 947 948 949
f 949 948 950
f 949 950 951
f 951 950 952
f 951 952 953
f 953 952 954
f 953 954 955
f 955 954 956
f 955 956 957
f 957 956 958
f 957 958 959
f 959 958 960
f 959 960 961
f 961 960 962
f 961 962 963
f 963 962 964
f 963 964 965
f 965 964 966
f 965 966 967
f 967 966 968
f 967 968 969
f 969 968 970
f 969 970 971
f 971 970 972
f 971 972 973
f 973 972 974
f 973 974 975
f 975 974 976
f 975 976 977
f 977 976 978
f 977 978 979
f 979 978 980
f 979 980 981
f 981 980 982
f 981 982 983
f 983 982 984
f 983 984 985
f 985 984 986
f 985 986 987
f 987 986 988
f 987 988 989
f 989 988 990
f 989 990 991
f 991 990 992
f 991 992 993
f 993 992 994
f 993 994 995
f 995 994 996
f 995 996 997
f 997 996 998
f 997 998 999
f 999 998 1000
f 999 1000 1001
f 1001 1000 1002
f 1001 1002 1003
f 1003 1002 1004
f 1003 1004 1005
f 1005 1004 1006
f 1005 1006 1007
f 1007 1006 1008
f 1007 1008 1009
f 1009 1008 1010
f 1009 1010 1011
f 1011 1010 1012
f 1011 1012 1013
f 1013 1012 1014
f 1013 1014 1015
f 1015 1014 1016
f 1015 1016 1017
f 1017 1016 1018
f 1017 1018 1019
f 1019 1018 1020
f 1019 1020 1021
f 1021 1020 1022
f 1021 1022 1023
f 1023 1022 1024
f 1023 1024 1025
f 1025 1024 1026
f 1025 1026 1027
f 1027 1026 1028
f 1027 1028 1029
f 1029 1028 1030
f 1029 1030 1031
f 1031 1030 1032
f 1031 1032 1033
f 1033 1032 1034
f 1033 1034 1035
f 1035 1034 1036
f 1035 1036 1037
f 1037 1036 1038
f 1037 1038 1039
f 1039 1038 1040
f 1039 1040 1041
f 1041 1040 1042
f 1041 1042 1043
f 1043 1042 1044
f 1043 1044 1045
f 1045 1044 1046
f 1045 1046 1047
f 1047 1046 1048
f 1047 1048 1049
f 1049 1048 1050
f 1049 1050 1051
f 1051 1050 1052
f 1051 1052 1053
f 1053 1052 1054
f 1053 1054 1055
f 1055 1054 1056
f 1055 1056 1057
f 1057 1056 1058
f 1057 1058 1059
f 1059 1058 1060
f 1059 1060 1061
f 1061 1060 1062
f 1061 1062 1063
f 1063 1062 1064
f 1063 1064 1065
f 1065 1064 1066
f 1065 1066 1067
f 1067 1066 1068
f 1067 1068 1069
f 1069 1068 1070
f 1069 1070 1071
f 1071 1070 1072
f 1071 1072 1073
f 1073 1072 1074
f 1073 1074 1075
f 1075 1074 1076
f 1075 1076 1077
f 1077 1076 1078
f 1077 1078 1079
f 1079 1078 1080
f 1079 1080 1081
f 1081 1080 1082
f 1081 1082 1083
f 1083 1082 1084
f 1083 1084 1085
f 1085 1084 1086
f 1085 1086 1087
f 1087 1086 1088
f 1087 1088 1089
f 1089 1088 1090
f 1089 1090 1091
f 1091 1090 1092
f 1091 1092 1093
f 1093 1092 1094
f 1093 1094 1095
f 1095 1094 1096
f 1095 1096 1097
f 1097 1096 1098
f 1097 1098 1099
f 1099 1098 1100
f 1099 1100 1101
f 1101 1100 1102
f 1101 1102 1103
f 1103 1102 1104
f 1103 1104 1105
f 1105 1104 1106
f 1105 1106 1107
f 1107 1106 1108
f 1107 1108 1109
f 1109 1108 1110
f 1109 1110 1111
f 1111 1110 1112
f 1111 1112 1113
f 1113 1112 1114
f 1113 1114 1115
f 1115 1114 1116
f 1115 1116 1117
f 1117 1116 1118
f 1117 1118 1119
f 1119 1118 1120
f 1119 1120 1121
f 1121 1120 1122
f 1121 1122 1123
f 1123 1122 1124
f 1123 1124 1125
f 1125 1124 1126
f 1125 1126 1127
f 1127 1126 1128
f 1127 1128 1129
f 1129 1128 1130
f 1129 1130 1131
f 1131 1130 1132
f 1131 1132 1133
f 1133 1132 1134
f 1133 1134 1135
f 1135 1134 1136
f 1135 1136 1137
f 1137 1136 1138
f 1137 1138 1139
f 1139 1138 1140
f 1139 1140 1141
f 1141 1140 1142
f 1141 1142 1143
f 1143 1142 1144
f 1143 1144 1145
f 1145 1144 1146
f 1145 1146 1147
f 1147 1146 1148
f 1147 1148 1149
f 1149 1148 1150
f 1149 1150 1151
f 1151 1150 1152
f 1151 1152 1153
f 1153 1152 1154
f 1153 1154 1155
f 1155 1154 1156
f 1155 1156 1157
f 1157 1156 1158
f 1157 1158 1159
f 1159 1158 1160
f 1159 1160 1161
f 1161 1160 1162
f 1161 1162 1163
f 1163 1162 1164
f 1163 1164 1165
f 1165 1164 1166
f 1165 1166 1167
f 1167 1166 1168
f 1167 1168 1169
f 1169 1168 1170
f 1169 1170 1171
f 1171 1170 1172
f 1171 1172 1173
f 1173 1172 1174
f 1173 1174 1175
f 1175 1174 1176
f 1175 1176 1177
f 1177 1176 1178
f 1177 1178 1179
f 1179 1178 1180
f 1179 1180 1181
f 1181 1180 1182
f 1181 1182 1183
f 1183 1182 1184
f 1183 1184 1185
f 1185 1184 1186
f 1185 1186 162
f 162 1186 161
f 676 675 1187
f 1187 675 1188
f 1187 1188 1189
f 1189 1188 1190
f 1189 1190 1191
f 1191 1190 1192
f 1191 1192 1193
f 1193 1192 1194
f 1193 1194 1195
f 1195 1194 1196
f 1195 1196 1197
f 1197 1196 1198
f 1197 1198 1199
f 1199 1198 1200
f 1199 1200 1201
f 1201 1200 1202
f 1201 1202 1203
f 1203 1202 1204
f 1203 1204 1205
f 1205 1204 1206
f 1205 1206 1207
f 1207 1206 1208
f 1207 1208 1209
f 1209 1208 1210
f 1209 1210 1211
f 1211 1210 1212
f 1211 1212 1213
f 1213 1212 1214
f 1213 1214 1215
f 1215 1214 1216
f 1215 1216 1217
f 1217 1216 1218
f 1217 1218 1219
f 1219 1218 1220
f 1219 1220 1221
f 1221 1220 1222
f 1221 1222 1223
f 1223 1222 1224
f 1223 1224 1225
f 1225 1224 1226
f 1225 1226 1227
f 1227 1226 1228
f 1227 1228 1229
f 1229 1228 1230
f 1229 1230 1231
f 1231 1230 1232
f 1231 1232 1233
f 1233 1232 1234
f 1233 1234 1235
f 1235 1234 1236
f 1235 1236 1237
f 1237 1236 1238
f 1237 1238 1239
f 1239 1238 1240
f 1239 1240 1241
f 1241 1240 1242
f 1241 1242 1243
f 1243 1242 1244
f 1243 1244 1245
f 1245 1244 1246
f 1245 1246 1247
f 1247 1246 1248
f 1247 1248 1249
f 1249 1248 1250
f 1249 1250 1251
f 1251 1250 1252
f 1251 1252 1253
f 1253 1252 1254
f 1253 1254 1255
f 1255 1254 1256
f 1255 1256 1257
f 1257 1256 1258
f 1257 1258 1259
f 1259 1258 1260
f 1259 1260 1261
f 1261 1260 1262
f 1261 1262 1263
f 1263 1262 1264
f 1263 1264 1265
f 1265 1264 1266
f 1265 1266 1267
f 1267 1266 1268
f 1267 1268 1269
f 1269 1268 1270
f 1269 1270 1271
f 1271 1270 1272
f 1271 1272 1273
f 1273 1272 1274
f 1273 1274 1275
f 1275 1274 1276
f 1275 1276 1277
f 1277 1276 1278
f 1277 1278 1279
f 1279 1278 1280
f 1279 1280 1281
f 1281 1280 1282
f 1281 1282 1283
f 1283 1282 1284
f 1283 1284 1285
f 1285 1284 1286
f 1285 1286 1287
f 1287 1286 1288
f 1287 1288 1289
f 1289 1288 1290
f 1289 1290 1291
f 1291 1290 1292
f 1291 1292 1293
f 1293 1292 1294
f 1293 1294 1295
f 1295 1294 1296
f 1295 1296 1297
f 1297 1296 1298
f 1297 1298 1299
f 1299 1298 1300
f 1299 1300 1301
f 1301 1300 1302
f 1301 1302 1303
f 1303 1302 1304
f 1303 1304 1305
f 1305 1304 1306
f 1305 1306 1307
f 1307 1306 1308
f 1307 1308 1309
f 1309 1308 1310
f 1309 1310 1311
f 1311 1310 1312
f 1311 1312 1313
f 1313 1312 1314
f 1313 1314 1315
f 1315 1314 1316
f 1315 1316 1317
f 1317 1316 1318
f 1317 1318 1319
f 1319 1318 1320
f 1319 1320 1321
f 1321 1320 1322
f 1321 1322 1323
f 1323 1322 1324
f 1323 1324 1325
f 1325 1324 1326
f 1325 1326 1327
f 1327 1326 1328
f 1327 1328 1329
f 1329 1328 1330
f 1329 1330 1331
f 1331 1330 1332
f 1331 1332 1333
f 1333 1332 1334
f 1333 1334 1335
f 1335 1334 1336
f 1335 1336 1337
f 1337 1336 1338
f 1337 1338 1339
f 1339 1338 1340
f 1339 1340 1341
f 1341 1340 1342
f 1341 1342 1343
f 1343 1342 1344
f 1343 1344 1345
f 1345 1344 1346
f 1345 1346 1347
f 1347 1346 1348
f 1347 1348 1349
f 1349 1348 1350
f 1349 1350 1351
f 1351 1350 1352
f 1351 1352 1353
f 1353 1352 1354
f 1353 1354 1355
f 1355 1354 1356
f 1355 1356 1357
f 1357 1356 1358
f 1357 1358 1359
f 1359 1358 1360
f 1359 1360 1361
f 1361 1360 1362
f 1361 1362 1363
f 1363 1362 1364
f 1363 1364 1365
f 1365 1364 1366
f 1365 1366 1367
f 1367 1366 1368
f 1367 1368 1369
f 1369 1368 1370
f 1369 1370 1371
f 1371 1370 1372
f 1371 1372 1373
f 1373 1372 1374
f 1373 1374 1375
f 1375 1374 1376
f 1375 1376 1377
f 1377 1376 1378
f 1377 1378 1379
f 1379 1378 1380
f 1379 1380 1381
f 1381 1380 1382
f 1381 1382 1383
f 1383 1382 1384
f 1383 1384 1385
f 1385 1384 1386
f 1385 1386 1387
f 1387 1386 1388
f 1387 1388 1389
f 1389 1388 1390
f 1389 1390 1391
f 1391 1390 1392
f 1391 1392 1393
f 1393 1392 1394
f 1393 1394 1395
f 1395 1394 1396
f 1395 1396 1397
f 1397 1396 1398
f 1397 1398 1399
f 1399 1398 1400
f 1399 1400 1401
f 1401 1400 1402
f 1401 1402 1403
f 1403 1402 1404
f 1403 1404 1405
f 1405 1404 1406
f 1405 1406 1407
f 1407 1406 1408
f 1407 1408 1409
f 1409 1408 1410
f 1409 1410 1411
f 1411 1410 1412
f 1411 1412 1413
f 1413 1412 1414
f 1413 1414 1415
f 1415 1414 1416
f 1415 1416 1417
f 1417 1416 1418
f 1417 1418 1419
f 1419 1418 1420
f 1419 1420 1421
f 1421 1420 1422
f 1421 1422 1423
f 1423 1422 1424
f 1423 1424 1425
f 1425 1424 1426
f 1425 1426 1427
f 1427 1426 1428
f 1427 1428 1429
f 1429 1428 1430
f 1429 1430 1431
f 1431 1430 1432
f 1431 1432 1433
f 1433 1432 1434
f 1433 1434 1435
f 1435 1434 1436
f 1435 1436 1437
f 1437 1436 1438
f 1437 1438 1439
f 1439 1438 1440
f 1439 1440 931
f 931 1440 932
f 623 625 1441
f 1441 625 627
f 1441 627 629
f 617 619 1441
f 1441 619 621
f 1441 621 623
f 611 613 1441
f 1441 613 615
f 1441 615 617
f 605 607 1441
f 1441 607 609
f 1441 609 611
f 599 601 1441
f 1441 601 603
f 1441 603 605
f 593 595 1441
f 1441 595 597
f 1441 597 599
f 587 589 1441
f 1441 589 591
f 1441 591 593
f 581 583 1441
f 1441 583 585
f 1441 585 587
f 575 577 1441
f 1441 577 579
f 1441 579 581
f 569 571 1441
f 1441 571 573
f 1441 573 575
f 563 565 1441
f 1441 565 567
f 1441 567 569
f 557 559 1441
f 1441 559 561
f 1441 561 563
f 551 553 1441
f 1441 553 555
f 1441 555 557
f 545 547 1441
f 1441 547 549
f 1441 549 551
f 539 541 1441
f 1441 541 543
f 1441 543 545
f 533 535 1441
f 1441 535 537
f 1441 537 539
f 527 529 1441
f 1441 529 531
f 1441 531 533
f 521 523 1441
f 1441 523 525
f 1441 525 527
f 515 517 1441
f 1441 517 519
f 1441 519 521
f 509 511 1441
f 1441 511 513
f 1441 513 515
f 503 505 1441
f 1441 505 507
f 1441 507 509
f 497 499 1441
f 1441 499 501
f 1441 501 503
f 491 493 1441
f 1441 493 495
f 1441 495 497
f 485 487 1441
f 1441 487 489
f 1441 489 491
f 479 481 1441
f 1441 481 483
f 1441 483 485
f 473 475 1441
f 1441 475 477
f 1441 477 479
f 467 469 1441
f 1441 469 471
f 1441 471 473
f 461 463 1441
f 1441 463 465
f 1441 465 467
f 455 457 1441
f 1441 457 459
f 1441 459 461
f 449 451 1441
f 1441 451 453
f 1441 453 455
f 443 445 1441
f 1441 445 447
f 1441 447 449
f 437 439 1441
f 1441 439 441
f 1441 441 443
f 431 433 1441
f 1441 433 435
f 1441 435 437
f 425 427 1441
f 1441 427 429
f 1441 429 431
f 419 421 1441
f 1441 421 423
f 1441 423 425
f 925 927 1441
f 1441 927 929
f 1441 929 419
f 919 921 1441
f 1441 921 923
f 1441 923 925
f 913 915 1441
f 1441 915 917
f 1441 917 919
f 907 909 1441
f 1441 909 911
f 1441 911 913
f 901 903 1441
f 1441 903 905
f 1441 905 907
f 895 897 1441
f 1441 897 899
f 1441 899 901
f 889 891 1441
f 1441 891 893
f 1441 893 895
f 883 885 1441
f 1441 885 887
f 1441 887 889
f 877 879 1441
f 1441 879 881
f 1441 881 883
f 871 873 1441
f 1441 873 875
f 1441 875 877
f 865 867 1441
f 1441 867 869
f 1441 869 871
f 859 861 1441
f 1441 861 863
f 1441 863 865
f 853 855 1441
f 1441 855 857
f 1441 857 859
f 847 849 1441
f 1441 849 851
f 1441 851 853
f 841 843 1441
f 1441 843 845
f 1441 845 847
f 835 837 1441
f 1441 837 839
f 1441 839 841
f 829 831 1441
f 1441 831 833
f 1441 833 835
f 823 825 1441
f 1441 825 827
f 1441 827 829
f 817 819 1441
f 1441 819 821
f 1441 821 823
f 811 813 1441
f 1441 813 815
f 1441 815 817
f 805 807 1441
f 1441 807 809
f 1441 809 811
f 799 801 1441
f 1441 801 803
f 1441 803 805
f 793 795 1441
f 1441 795 797
f 1441 797 799
f 787 789 1441
f 1441 789 791
f 1441 791 793
f 781 783 1441
f 1441 783 785
f 1441 785 787
f 775 777 1441
f 1441 777 779
f 1441 779 781
f 769 771 1441
f 1441 771 773
f 1441 773 775
f 763 765 1441
f 1441 765 767
f 1441 767 769
f 757 759 1441
f 1441 759 761
f 1441 761 763
f 751 753 1441
f 1441 753 755
f 1441 755 757
f 745 747 1441
f 1441 747 749
f 1441 749 751
f 739 741 1441
f 1441 741 743
f 1441 743 745
f 733 735 1441
f 1441 735 737
f 1441 737 739
f 727 729 1441
f 1441 729 731
f 1441 731 733
f 721 723 1441
f 1441 723 725
f 1441 725 727
f 715 717 1441
f 1441 717 719
f 1441 719 721
f 709 711 1441
f 1441 711 713
f 1441 713 715
f 703 705 1441
f 1441 705 707
f 1441 707 709
f 697 699 1441
f 1441 699 701
f 1441 701 703
f 691 693 1441
f 1441 693 695
f 1441 695 697
f 685 687 1441
f 1441 687 689
f 1441 689 691
f 679 681 1441
f 1441 681 683
f 1441 683 685
f 1188 675 1441
f 1441 675 677
f 1441 677 679
f 1194 1192 1441
f 1441 1192 1190
f 1441 1190 1188
f 1200 1198 1441
f 1441 1198 1196
f 1441 1196 1194
f 1206 1204 1441
f 1441 1204 1202
f 1441 1202 1200
f 1212 1210 1441
f 1441 1210 1208
f 1441 1208 1206
f 1218 1216 1441
f 1441 1216 1214
f 1441 1214 1212
f 1224 1222 1441
f 1441 1222 1220
f 1441 1220 1218
f 1230 1228 1441
f 1441 1228 1226
f 1441 1226 1224
f 1236 1234 1441
f 1441 1234 1232
f 1441 1232 1230
f 1242 1240 1441
f 1441 1240 1238
f 1441 1238 1236
f 1248 1246 1441
f 1441 1246 1244
f 1441 1244 1242
f 1254 1252 1441
f 1441 1252 1250
f 1441 1250 1248
f 1260 1258 1441
f 1441 1258 1256
f 1441 1256 1254
f 1266 1264 1441
f 1441 1264 1262
f 1441 1262 1260
f 1272 1270 1441
f 1441 1270 1268
f 1441 1268 1266
f 1278 1276 1441
f 1441 1276 1274
f 1441 1274 1272
f 1284 1282 1441
f 1441 1282 1280
f 1441 1280 1278
f 1290 1288 1441
f 1441 1288 1286
f 1441 1286 1284
f 1296 1294 1441
f 1441 1294 1292
f 1441 1292 1290
f 1302 1300 1441
f 1441 1300 1298
f 1441 1298 1296
f 1308 1306 1441
f 1441 1306 1304
f 1441 1304 1302
f 1314 1312 1441
f 1441 1312 1310
f 1441 1310 1308
f 1320 1318 1441
f 1441 1318 1316
f 1441 1316 1314
f 1326 1324 1441
f 1441 1324 1322
f 1441 1322 1320
f 1332 1330 1441
f 1441 1330 1328
f 1441 1328 1326
f 1338 1336 1441
f 1441 1336 1334
f 1441 1334 1332
f 1344 1342 1441
f 1441 1342 1340
f 1441 1340 1338
f 1350 1348 1441
f 1441 1348 1346
f 1441 1346 1344
f 1356 1354 1441
f 1441 1354 1352
f 1441 1352 1350
f 1362 1360 1441
f 1441 1360 1358
f 1441 1358 1356
f 1368 1366 1441
f 1441 1366 1364
f 1441 1364 1362
f 1374 1372 1441
f 1441 1372 1370
f 1441 1370 1368
f 1380 1378 1441
f 1441 1378 1376
f 1441 1376 1374
f 1386 1384 1441
f 1441 1384 1382
f 1441 1382 1380
f 1392 1390 1441
f 1441 1390 1388
f 1441 1388 1386
f 1398 1396 1441
f 1441 1396 1394
f 1441 1394 1392
f 1404 1402 1441
f 1441 1402 1400
f 1441 1400 1398
f 1410 1408 1441
f 1441 1408 1406
f 1441 1406 1404
f 1416 1414 1441
f 1441 1414 1412
f 1441 1412 1410
f 1422 1420 1441
f 1441 1420 1418
f 1441 1418 1416
f 1428 1426 1441
f 1441 1426 1424
f 1441 1424 1422
f 1434 1432 1441
f 1441 1432 1430
f 1441 1430 1428
f 1440 1438 1441
f 1441 1438 1436
f 1441 1436 1434
f 936 934 1441
f 1441 934 932
f 1441 932 1440
f 942 940 1441
f 1441 940 938
f 1441 938 936
f 948 946 1441
f 1441 946 944
f 1441 944 942
f 954 952 1441
f 1441 952 950
f 1441 950 948
f 960 958 1441
f 1441 958 956
f 1441 956 954
f 966 964 1441
f 1441 964 962
f 1441 962 960
f 972 970 1441
f 1441 970 968
f 1441 968 966
f 978 976 1441
f 1441 976 974
f 1441 974 972
f 984 982 1441
f 1441 982 980
f 1441 980 978
f 990 988 1441
f 1441 988 986
f 1441 986 984
f 996 994 1441
f 1441 994 992
f 1441 992 990
f 1002 1000 1441
f 1441 1000 998
f 1441 998 996
f 1008 1006 1441
f 1441 1006 1004
f 1441 1004 1002
f 1014 1012 1441
f 1441 1012 1010
f 1441 1010 1008
f 1020 1018 1441
f 1441 1018 1016
f 1441 1016 1014
f 1026 1024 1441
f 1441 1024 1022
f 1441 1022 1020
f 1032 1030 1441
f 1441 1030 1028
f 1441 1028 1026
f 1038 1036 1441
f 1441 1036 1034
f 1441 1034 1032
f 1044 1042 1441
f 1441 1042 1040
f 1441 1040 1038
f 1050 1048 1441
f 1441 1048 1046
f 1441 1046 1044
f 1056 1054 1441
f 1441 1054 1052
f 1441 1052 1050
f 1062 1060 1441
f 1441 1060 1058
f 1441 1058 1056
f 1068 1066 1441
f 1441 1066 1064
f 1441 1064 1062
f 1074 1072 1441
f 1441 1072 1070
f 1441 1070 1068
f 1080 1078 1441
f 1441 1078 1076
f 1441 1076 1074
f 1086 1084 1441
f 1441 1084 1082
f 1441 1082 1080
f 1092 1090 1441
f 1441 1090 1088
f 1441 1088 1086
f 1098 1096 1441
f 1441 1096 1094
f 1441 1094 1092
f 1104 1102 1441
f 1441 1102 1100
f 1441 1100 1098
f 1110 1108 1441
f 1441 1108 1106
f 1441 1106 1104
f 1116 1114 1441
f 1441 1114 1112
f 1441 1112 1110
f 1122 1120 1441
f 1441 1120 1118
f 1441 1118 1116
f 1128 1126 1441
f 1441 1126 1124
f 1441 1124 1122
f 1134 1132 1441
f 1441 1132 1130
f 1441 1130 1128
f 1140 1138 1441
f 1441 1138 1136
f 1441 1136 1134
f 1146 1144 1441
f 1441 1144 1142
f 1441 1142 1140
f 1152 1150 1441
f 1441 1150 1148
f 1441 1148 1146
f 1158 1156 1441
f 1441 1156 1154
f 1441 1154 1152
f 1164 1162 1441
f 1441 1162 1160
f 1441 1160 1158
f 1170 1168 1441
f 1441 1168 1166
f 1441 1166 1164
f 1176 1174 1441
f 1441 1174 1172
f 1441 1172 1170
f 1182 1180 1441
f 1441 1180 1178
f 1441 1178 1176
f 161 1186 1441
f 1441 1186 1184
f 1441 1184 1182
f 155 157 1441
f 1441 157 159
f 1441 159 161
f 149 151 1441
f 1441 151 153
f 1441 153 155
f 143 145 1441
f 1441 145 147
f 1441 147 149
f 137 139 1441
f 1441 139 141
f 1441 141 143
f 131 133 1441
f 1441 133 135
f 1441 135 137
f 125 127 1441
f 1441 127 129
f 1441 129 131
f 119 121 1441
f 1441 121 123
f 1441 123 125
f 113 115 1441
f 1441 115 117
f 1441 117 119
f 107 109 1441
f 1441 109 111
f 1441 111 113
f 101 103 1441
f 1441 103 105
f 1441 105 107
f 95 97 1441
f 1441 97 99
f 1441 99 101
f 89 91 1441
f 1441 91 93
f 1441 93 95
f 83 85 1441
f 1441 85 87
f 1441 87 89
f 77 79 1441
f 1441 79 81
f 1441 81 83
f 71 73 1441
f 1441 73 75
f 1441 75 77
f 65 67 1441
f 1441 67 69
f 1441 69 71
f 59 61 1441
f 1441 61 63
f 1441 63 65
f 53 55 1441
f 1441 55 57
f 1441 57 59
f 47 49 1441
f 1441 49 51
f 1441 51 53
f 41 43 1441
f 1441 43 45
f 1441 45 47
f 35 37 1441
f 1441 37 39
f 1441 39 41
f 29 31 1441
f 1441 31 33
f 1441 33 35
f 23 25 1441
f 1441 25 27
f 1441 27 29
f 17 19 1441
f 1441 19 21
f 1441 21 23
f 11 13 1441
f 1441 13 15
f 1441 15 17
f 5 7 1441
f 1441 7 9
f 1441 9 11
f 417 1 1441
f 1441 1 3
f 1441 3 5
f 411 413 1441
f 1441 413 415
f 1441 415 417
f 405 407 1441
f 1441 407 409
f 1441 409 411
f 399 401 1441
f 1441 401 403
f 1441 403 405
f 393 395 1441
f 1441 395 397
f 1441 397 399
f 387 389 1441
f 1441 389 391
f 1441 391 393
f 381 383 1441
f 1441 383 385
f 1441 385 387
f 375 377 1441
f 1441 377 379
f 1441 379 381
f 369 371 1441
f 1441 371 373
f 1441 373 375
f 363 365 1441
f 1441 365 367
f 1441 367 369
f 357 359 1441
f 1441 359 361
f 1441 361 363
f 351 353 1441
f 1441 353 355
f 1441 355 357
f 345 347 1441
f 1441 347 349
f 1441 349 351
f 339 341 1441
f 1441 341 343
f 1441 343 345
f 333 335 1441
f 1441 335 337
f 1441 337 339
f 327 329 1441
f 1441 329 331
f 1441 331 333
f 321 323 1441
f 1441 323 325
f 1441 325 327
f 315 317 1441
f 1441 317 319
f 1441 319 321
f 309 311 1441
f 1441 311 313
f 1441 313 315
f 303 305 1441
f 1441 305 307
f 1441 307 309
f 297 299 1441
f 1441 299 301
f 1441 301 303
f 291 293 1441
f 1441 293 295
f 1441 295 297
f 285 287 1441
f 1441 287 289
f 1441 289 291
f 279 281 1441
f 1441 281 283
f 1441 283 285
f 273 275 1441
f 1441 275 277
f 1441 277 279
f 267 269 1441
f 1441 269 271
f 1441 271 273
f 261 263 1441
f 1441 263 265
f 1441 265 267
f 255 257 1441
f 1441 257 259
f 1441 259 261
f 249 251 1441
f 1441 251 253
f 1441 253 255
f 243 245 1441
f 1441 245 247
f 1441 247 249
f 237 239 1441
f 1441 239 241
f 1441 241 243
f 231 233 1441
f 1441 233 235
f 1441 235 237
f 225 227 1441
f 1441 227 229
f 1441 229 231
f 219 221 1441
f 1441 221 223
f 1441 223 225
f 213 215 1441
f 1441 215 217
f 1441 217 219
f 207 209 1441
f 1441 209 211
f 1441 211 213
f 201 203 1441
f 1441 203 205
f 1441 205 207
f 195 197 1441
f 1441 197 199
f 1441 199 201
f 189 191 1441
f 1441 191 193
f 1441 193 195
f 183 185 1441
f 1441 185 187
f 1441 187 189
f 177 179 1441
f 1441 179 181
f 1441 181 183
f 171 173 1441
f 1441 173 175
f 1441 175 177
f 165 167 1441
f 1441 167 169
f 1441 169 171
f 671 673 1441
f 1441 673 163
f 1441 163 165
f 665 667 1441
f 1441 667 669
f 1441 669 671
f 659 661 1441
f 1441 661 663
f 1441 663 665
f 653 655 1441
f 1441 655 657
f 1441 657 659
f 647 649 1441
f 1441 649 651
f 1441 651 653
f 641 643 1441
f 1441 643 645
f 1441 645 647
f 635 637 1441
f 1441 637 639
f 1441 639 641
f 629 631 1441
f 1441 631 633
f 1441 633 635
f 931 933 1442
f 1219 1221 1442
f 1305 1307 1442
f 840 838 1443
f 622 1443 624
f 624 1443 626
f 826 824 1443
f 818 816 1443
f 1443 816 814
f 814 812 1443
f 1443 812 810
f 1443 810 808
f 838 836 1443
f 1443 836 834
f 1443 834 832
f 622 620 1443
f 1443 620 618
f 1443 618 616
f 578 576 1443
f 1443 576 574
f 550 548 1443
f 1443 548 546
f 1443 546 544
f 538 536 1443
f 1443 536 534
f 1443 534 532
f 532 530 1443
f 1443 530 528
f 1443 528 526
f 502 500 1443
f 870 868 1443
f 1443 868 866
f 776 774 1442
f 1319 1321 1442
f 1442 1321 1323
f 1323 1325 1442
f 1442 1325 1327
f 1442 1327 1329
f 598 596 1443
f 574 572 1443
f 1443 572 570
f 1443 570 568
f 568 566 1443
f 1443 566 564
f 1443 564 562
f 562 560 1443
f 1443 560 558
f 1443 558 556
f 544 542 1443
f 1443 542 540
f 1443 540 538
f 526 524 1443
f 1443 524 522
f 1443 522 520
f 520 518 1443
f 1443 518 516
f 1443 516 514
f 514 512 1443
f 1443 512 510
f 1443 510 508
f 890 888 1443
f 1443 888 886
f 1443 886 884
f 848 846 1443
f 832 830 1443
f 1443 830 828
f 1443 828 826
f 824 822 1443
f 1443 822 820
f 1443 820 818
f 808 806 1443
f 1443 806 804
f 1443 804 802
f 776 1442 778
f 1241 1243 1442
f 1293 1295 1442
f 1442 1295 1297
f 1442 1297 1299
f 1299 1301 1442
f 1442 1301 1303
f 1442 1303 1305
f 1313 1315 1442
f 1442 1315 1317
f 1442 1317 1319
f 1435 1437 1442
f 1442 1437 1439
f 1442 1439 931
f 616 614 1443
f 1443 614 612
f 1443 612 610
f 556 554 1443
f 1443 554 552
f 1443 552 550
f 1443 898 896
f 1443 878 876
f 866 864 1443
f 1443 864 862
f 1443 862 860
f 860 858 1443
f 1443 858 856
f 1443 856 854
f 846 844 1443
f 1443 844 842
f 1443 842 840
f 790 788 1443
f 1443 788 786
f 786 784 1443
f 1443 784 782
f 1443 782 1442
f 1442 782 780
f 1442 780 778
f 694 692 1442
f 1255 1257 1442
f 1442 1257 1259
f 1442 1259 1261
f 1307 1309 1442
f 1442 1309 1311
f 1442 1311 1313
f 1427 1429 1442
f 1429 1431 1442
f 1442 1431 1433
f 1442 1433 1435
f 604 602 1443
f 1443 602 600
f 1443 600 598
f 596 594 1443
f 1443 594 592
f 1443 592 590
f 508 506 1443
f 1443 506 504
f 1443 504 502
f 1443 472 470
f 470 468 1443
f 1443 468 466
f 1443 466 464
f 896 894 1443
f 1443 894 892
f 1443 892 890
f 884 882 1443
f 1443 882 880
f 1443 880 878
f 876 874 1443
f 1443 874 872
f 1443 872 870
f 854 852 1443
f 1443 852 850
f 1443 850 848
f 802 800 1443
f 1443 800 798
f 1443 798 796
f 768 766 1442
f 1442 742 740
f 722 720 1442
f 1442 720 718
f 1442 1227 1229
f 1229 1231 1442
f 1442 1231 1233
f 1442 1233 1235
f 1235 1237 1442
f 1442 1237 1239
f 1442 1239 1241
f 1285 1287 1442
f 610 608 1443
f 1443 608 606
f 1443 606 604
f 584 582 1443
f 1443 582 580
f 1443 580 578
f 458 456 1443
f 1443 456 454
f 1443 454 452
f 436 1443 438
f 438 1443 440
f 906 904 1443
f 796 794 1443
f 1443 794 792
f 1443 792 790
f 766 764 1442
f 1442 764 762
f 1442 762 760
f 1221 1223 1442
f 1442 1223 1225
f 1442 1225 1227
f 1243 1245 1442
f 1442 1245 1247
f 1442 1247 1249
f 1261 1263 1442
f 1442 1263 1265
f 1442 1265 1267
f 1287 1289 1442
f 1442 1289 1291
f 1442 1291 1293
f 1399 1401 1442
f 1442 1419 1421
f 494 492 1443
f 1443 492 490
f 490 488 1443
f 1443 488 486
f 1443 486 484
f 484 482 1443
f 1443 482 480
f 1443 480 478
f 478 476 1443
f 1443 476 474
f 1443 474 472
f 464 462 1443
f 1443 462 460
f 1443 460 458
f 1443 430 428
f 760 758 1442
f 1442 758 756
f 1442 756 754
f 754 752 1442
f 1442 752 750
f 1442 750 748
f 748 746 1442
f 1442 746 744
f 1442 744 742
f 740 738 1442
f 1442 738 736
f 1442 736 734
f 692 690 1442
f 1442 690 688
f 1442 688 686
f 1249 1251 1442
f 1442 1251 1253
f 1442 1253 1255
f 1267 1269 1442
f 1442 1269 1271
f 1442 1271 1273
f 1273 1275 1442
f 1442 1275 1277
f 1442 1277 1279
f 1279 1281 1442
f 1442 1281 1283
f 1442 1283 1285
f 1387 1442 1385
f 1385 1442 1383
f 1387 1389 1442
f 1442 1389 1391
f 1442 1391 1393
f 1407 1409 1442
f 1442 1409 1411
f 1442 1411 1413
f 1413 1415 1442
f 1442 1415 1417
f 1442 1417 1419
f 1421 1423 1442
f 1442 1423 1425
f 1442 1425 1427
f 590 588 1443
f 1443 588 586
f 1443 586 584
f 452 450 1443
f 1443 450 448
f 1443 448 446
f 446 444 1443
f 1443 444 442
f 1443 442 440
f 436 434 1443
f 1443 434 432
f 1443 432 430
f 904 902 1443
f 1443 902 900
f 1443 900 898
f 774 772 1442
f 1442 772 770
f 1442 770 768
f 734 732 1442
f 1442 732 730
f 1442 730 728
f 728 726 1442
f 1442 726 724
f 1442 724 722
f 718 716 1442
f 1442 716 714
f 1442 714 712
f 700 698 1442
f 1442 698 696
f 1442 696 694
f 1191 1442 1189
f 1189 1442 1187
f 1329 1331 1442
f 1442 1331 1333
f 1442 1333 1335
f 1335 1337 1442
f 1442 1337 1339
f 1442 1339 1341
f 1341 1343 1442
f 1442 1343 1345
f 1442 1345 1347
f 1359 1361 1442
f 1442 1361 1363
f 1442 1363 1365
f 500 498 1443
f 1443 498 496
f 1443 496 494
f 1443 914 912
f 712 710 1442
f 1442 710 708
f 1442 708 706
f 686 684 1442
f 1442 684 682
f 1442 682 680
f 1347 1349 1442
f 1442 1349 1351
f 1442 1351 1353
f 1353 1355 1442
f 1442 1355 1357
f 1442 1357 1359
f 1365 1367 1442
f 1442 1367 1369
f 1442 1369 1371
f 1371 1373 1442
f 1442 1373 1375
f 1442 1375 1377
f 1377 1379 1442
f 1442 1379 1381
f 1442 1381 1383
f 1393 1395 1442
f 1442 1395 1397
f 1442 1397 1399
f 1401 1403 1442
f 1442 1403 1405
f 1442 1405 1407
f 1443 928 926
f 926 924 1443
f 1443 924 922
f 1443 922 920
f 912 910 1443
f 1443 910 908
f 1443 908 906
f 706 704 1442
f 1442 704 702
f 1442 702 700
f 680 678 1442
f 1442 678 676
f 1442 676 1187
f 1213 1215 1442
f 1442 1215 1217
f 1442 1217 1219
f 920 918 1443
f 1443 918 916
f 1443 916 914
f 1201 1442 1199
f 1199 1442 1197
f 1207 1209 1442
f 1442 1209 1211
f 1442 1211 1213
f 428 426 1443
f 1443 426 424
f 1443 424 422
f 422 420 1443
f 1443 420 930
f 1443 930 928
f 1191 1193 1442
f 1442 1193 1195
f 1442 1195 1197
f 1201 1203 1442
f 1442 1203 1205
f 1442 1205 1207
f 1444 965 967
f 628 626 1445
f 981 983 1444
f 1005 1444 1003
f 1003 1444 1001
f 1027 1029 1444
f 1444 66 64
f 56 54 1445
f 360 358 1445
f 650 1445 652
f 652 1445 654
f 965 1444 963
f 981 1444 979
f 983 985 1444
f 1444 985 987
f 1444 987 989
f 1035 1037 1444
f 64 62 1444
f 1444 62 60
f 1444 60 1445
f 1445 60 58
f 1445 58 56
f 1445 36 34
f 34 32 1445
f 1445 32 30
f 1445 30 28
f 28 26 1445
f 1445 26 24
f 1445 24 22
f 638 636 1445
f 1445 636 634
f 933 935 1444
f 1444 935 937
f 1444 937 939
f 939 941 1444
f 1444 941 943
f 1444 943 945
f 945 947 1444
f 1444 947 949
f 1444 949 951
f 951 953 1444
f 1444 953 955
f 1444 955 957
f 967 969 1444
f 1444 969 971
f 1444 971 973
f 989 991 1444
f 1444 991 993
f 1444 993 995
f 995 997 1444
f 1444 997 999
f 1444 999 1001
f 1444 1105 1107
f 1107 1109 1444
f 1444 1109 1111
f 1444 1111 1113
f 1145 1147 1444
f 74 72 1444
f 54 52 1445
f 1445 52 50
f 1445 50 48
f 48 46 1445
f 1445 46 44
f 1445 44 42
f 42 40 1445
f 1445 40 38
f 1445 38 36
f 192 1445 194
f 194 1445 196
f 634 632 1445
f 1445 632 630
f 1445 630 628
f 957 959 1444
f 1444 959 961
f 1444 961 963
f 973 975 1444
f 1444 975 977
f 1444 977 979
f 1017 1019 1444
f 1444 1019 1021
f 1055 1057 1444
f 1444 1057 1059
f 1444 1059 1061
f 1061 1063 1444
f 1444 1063 1065
f 1444 1065 1067
f 1067 1069 1444
f 1444 1069 1071
f 1444 1071 1073
f 1073 1075 1444
f 1444 1075 1077
f 1444 1077 1079
f 1079 1081 1444
f 1444 1081 1083
f 1444 1083 1085
f 1145 1444 1143
f 1147 1149 1444
f 1444 1149 1151
f 1444 1151 1153
f 82 1444 84
f 84 1444 86
f 74 1444 76
f 276 1445 278
f 278 1445 280
f 1445 270 268
f 268 266 1445
f 1445 266 264
f 1445 264 262
f 1445 186 184
f 644 642 1445
f 1445 642 640
f 1445 640 638
f 1005 1007 1444
f 1444 1007 1009
f 1444 1009 1011
f 1021 1023 1444
f 1444 1023 1025
f 1444 1025 1027
f 1029 1031 1444
f 1444 1031 1033
f 1444 1033 1035
f 1037 1039 1444
f 1444 1039 1041
f 1444 1041 1043
f 1097 1099 1444
f 1113 1115 1444
f 1444 1115 1117
f 1444 1117 1119
f 1171 1173 1444
f 1444 1173 1175
f 1444 1175 1177
f 160 158 1444
f 1444 158 156
f 1444 156 154
f 148 146 1444
f 1444 146 144
f 1444 144 142
f 72 70 1444
f 1444 70 68
f 1444 68 66
f 1445 400 398
f 276 274 1445
f 1445 274 272
f 1445 272 270
f 262 260 1445
f 1445 260 258
f 1445 258 256
f 192 190 1445
f 1445 190 188
f 1445 188 186
f 184 182 1445
f 1445 182 180
f 1445 180 178
f 178 176 1445
f 1445 176 174
f 1445 174 172
f 660 658 1445
f 1445 658 656
f 1445 656 654
f 650 648 1445
f 1445 648 646
f 1445 646 644
f 1011 1013 1444
f 1444 1013 1015
f 1444 1015 1017
f 1043 1045 1444
f 1444 1045 1047
f 1444 1047 1049
f 1049 1051 1444
f 1444 1051 1053
f 1444 1053 1055
f 1085 1087 1444
f 1444 1087 1089
f 1444 1089 1091
f 1153 1155 1444
f 1444 1155 1157
f 1444 1157 1159
f 1177 1179 1444
f 1444 1179 1181
f 1444 1181 1183
f 1183 1185 1444
f 1444 1185 162
f 1444 162 160
f 154 152 1444
f 1444 152 150
f 1444 150 148
f 142 140 1444
f 1444 140 138
f 1444 138 136
f 136 134 1444
f 1444 134 132
f 1444 132 130
f 124 122 1444
f 1444 122 120
f 92 1444 94
f 94 1444 96
f 22 20 1445
f 1445 20 18
f 1445 18 16
f 10 8 1445
f 1445 8 6
f 172 170 1445
f 1445 170 168
f 1445 168 166
f 166 164 1445
f 1445 164 674
f 1445 674 672
f 1099 1101 1444
f 1444 1101 1103
f 1444 1103 1105
f 1119 1121 1444
f 1444 1121 1123
f 1444 1123 1125
f 1137 1139 1444
f 1444 1139 1141
f 1444 1141 1143
f 1159 1161 1444
f 1444 1161 1163
f 1444 1163 1165
f 1165 1167 1444
f 1444 1167 1169
f 1444 1169 1171
f 130 128 1444
f 1444 128 126
f 1444 126 124
f 120 118 1444
f 1444 118 116
f 1444 116 114
f 114 112 1444
f 1444 112 110
f 1444 110 108
f 108 106 1444
f 1444 106 104
f 1444 104 102
f 102 100 1444
f 1444 100 98
f 1444 98 96
f 92 90 1444
f 1444 90 88
f 1444 88 86
f 82 80 1444
f 1444 80 78
f 1444 78 76
f 16 14 1445
f 1445 14 12
f 1445 12 10
f 6 4 1445
f 1445 4 2
f 1445 2 418
f 418 416 1445
f 1445 416 414
f 1445 414 412
f 406 404 1445
f 1445 404 402
f 1445 402 400
f 398 396 1445
f 1445 396 394
f 1445 394 392
f 1445 374 372
f 372 370 1445
f 1445 370 368
f 1445 368 366
f 358 356 1445
f 1445 356 354
f 1445 354 352
f 286 1445 288
f 288 1445 290
f 256 254 1445
f 1445 254 252
f 1445 252 250
f 202 200 1445
f 1445 200 198
f 1445 198 196
f 672 670 1445
f 1445 670 668
f 1445 668 666
f 1091 1093 1444
f 1444 1093 1095
f 1444 1095 1097
f 1125 1127 1444
f 1444 1127 1129
f 1444 1129 1131
f 1131 1133 1444
f 1444 1133 1135
f 1444 1135 1137
f 320 318 1445
f 1445 318 316
f 1445 316 314
f 314 312 1445
f 1445 312 310
f 1445 310 308
f 308 306 1445
f 1445 306 304
f 1445 304 302
f 302 300 1445
f 1445 300 298
f 1445 298 296
f 296 294 1445
f 1445 294 292
f 1445 292 290
f 286 284 1445
f 1445 284 282
f 1445 282 280
f 250 248 1445
f 1445 248 246
f 1445 246 244
f 244 242 1445
f 1445 242 240
f 1445 240 238
f 238 236 1445
f 1445 236 234
f 1445 234 232
f 666 664 1445
f 1445 664 662
f 1445 662 660
f 412 410 1445
f 1445 410 408
f 1445 408 406
f 380 378 1445
f 1445 378 376
f 1445 376 374
f 366 364 1445
f 1445 364 362
f 1445 362 360
f 352 350 1445
f 1445 350 348
f 1445 348 346
f 392 390 1445
f 1445 390 388
f 1445 388 386
f 346 344 1445
f 1445 344 342
f 1445 342 340
f 340 338 1445
f 1445 338 336
f 1445 336 334
f 1445 328 326
f 386 384 1445
f 1445 384 382
f 1445 382 380
f 334 332 1445
f 1445 332 330
f 1445 330 328
f 326 324 1445
f 1445 324 322
f 1445 322 320
f 232 230 1445
f 1445 230 228
f 1445 228 226
f 226 224 1445
f 1445 224 222
f 1445 222 220
f 220 218 1445
f 1445 218 216
f 1445 216 214
f 214 212 1445
f 1445 212 210
f 1445 210 208
f 208 206 1445
f 1445 206 204
f 1445 204 202
f 1443 1446 626
f 626 1446 1447
f 626 1447 1445
f 1448 1446 1442
f 1442 1446 1443
f 1444 1449 933
f 933 1449 1448
f 933 1448 1442
f 1447 1449 1445
f 1445 1449 1444
f 1448 1449 1446
f 1446 1449 1447

