# Exported by SolidWorks
g 
v 100.00000149 100.00000149 19.99999955
v 100.00000149 0.00000000 19.99999955
v 100.00000149 100.00000149 0.00000000
v 100.00000149 0.00000000 0.00000000
v 0.00000000 100.00000149 19.99999955
v 0.00000000 100.00000149 0.00000000
v 0.00000000 0.00000000 19.99999955
v 0.00000000 0.00000000 0.00000000
v 39.20210153 52.09890008 19.99999955
v 39.22082856 52.19304562 19.99999955
v 54.29804325 60.12555212 19.99999955
v 54.38624322 60.08766219 19.99999955
v 60.08766219 54.38624322 19.99999955
v 60.12555212 54.29804325 19.99999955
v 60.79789996 52.09890008 19.99999955
v 60.81580371 52.00459436 19.99999955
v 59.75711718 44.92076486 19.99999955
v 59.71242487 44.83581334 19.99999955
v 39.24037516 52.28703097 19.99999955
v 39.26074505 52.38083750 19.99999955
v 39.28193077 52.47446150 19.99999955
v 39.35037553 52.75418237 19.99999955
v 39.37481716 52.84701288 19.99999955
v 39.40006718 52.93962359 19.99999955
v 39.42612186 53.03201452 19.99999955
v 39.45298493 53.12416703 19.99999955
v 39.48064893 53.21609229 19.99999955
v 39.50911388 53.30776423 19.99999955
v 54.64880168 59.96938795 19.99999955
v 54.73562330 59.92843956 19.99999955
v 56.07130751 59.17274579 19.99999955
v 56.15112185 59.11941454 19.99999955
v 60.51935256 46.78391293 19.99999955
v 60.54701656 46.87583074 19.99999955
v 60.57387963 46.96799070 19.99999955
v 39.00167346 49.80802536 19.99999955
v 39.00041804 49.90400746 19.99999955
v 39.30393234 52.56789923 19.99999955
v 39.32674974 52.66113952 19.99999955
v 39.69660401 53.85228246 19.99999955
v 39.73061591 53.94204706 19.99999955
v 39.76540640 54.03151363 19.99999955
v 39.80097920 54.12067473 19.99999955
v 48.46909642 60.89294702 19.99999955
v 48.56421426 60.90589613 19.99999955
v 51.81552470 60.84914505 19.99999955
v 51.91012844 60.83288416 19.99999955
v 52.00459436 60.81580371 19.99999955
v 52.28703097 60.75962633 19.99999955
v 52.38083750 60.73925644 19.99999955
v 52.47446150 60.71807072 19.99999955
v 52.93962359 60.59993804 19.99999955
v 52.84701288 60.62518805 19.99999955
v 52.75418237 60.64962223 19.99999955
v 53.03201452 60.57387963 19.99999955
v 53.12416703 60.54701656 19.99999955
v 53.21609229 60.51935256 19.99999955
v 53.49035189 60.43156236 19.99999955
v 53.58124897 60.40070206 19.99999955
v 53.67187411 60.36905572 19.99999955
v 53.76222357 60.33661962 19.99999955
v 53.85228246 60.30339375 19.99999955
v 53.94204706 60.26938558 19.99999955
v 54.03151363 60.23459136 19.99999955
v 55.50000072 59.52627957 19.99999955
v 55.58292568 59.47792158 19.99999955
v 56.23047054 59.06538665 19.99999955
v 56.30934238 59.01067331 19.99999955
v 56.38773367 58.95527452 19.99999955
v 56.46563694 58.89919028 19.99999955
v 56.54305220 58.84242803 19.99999955
v 56.61996454 58.78499150 19.99999955
v 60.98953262 50.47981441 19.99999955
v 60.98492444 50.57569593 19.99999955
v 60.97948551 50.67153648 19.99999955
v 60.99330261 50.38389564 19.99999955
v 60.99623069 50.28794706 19.99999955
v 60.99832430 50.19197986 19.99999955
v 60.99957973 50.09599403 19.99999955
v 61.00000069 50.00000075 19.99999955
v 60.99957973 49.90400746 19.99999955
v 60.99832430 49.80802536 19.99999955
v 60.97320467 49.23268035 19.99999955
v 60.96608937 49.13695157 19.99999955
v 60.95813960 49.04128611 19.99999955
v 60.94935909 48.94569889 19.99999955
v 60.64962223 47.24581912 19.99999955
v 60.62518805 47.15299234 19.99999955
v 60.59993804 47.06037790 19.99999955
v 59.66698751 44.75125670 19.99999955
v 59.62081999 44.66709495 19.99999955
v 59.57391486 44.58333924 19.99999955
v 59.52627957 44.50000077 19.99999955
v 59.47792158 44.41707954 19.99999955
v 59.42884088 44.33458298 19.99999955
v 59.37904492 44.25251856 19.99999955
v 59.32852998 44.17088628 19.99999955
v 59.27730724 44.08970475 19.99999955
v 59.22537670 44.00897399 19.99999955
v 59.17274579 43.92869398 19.99999955
v 59.11941454 43.84887591 19.99999955
v 58.48786980 43.00313815 19.99999955
v 58.54860693 43.07747632 19.99999955
v 58.60869214 43.15233976 19.99999955
v 56.46563694 41.10081494 19.99999955
v 56.38773367 41.04473069 19.99999955
v 39.03390840 49.13695157 19.99999955
v 39.02679309 49.23268035 19.99999955
v 39.53837976 53.39919031 19.99999955
v 39.56843913 53.49035189 19.99999955
v 39.59929571 53.58124897 19.99999955
v 39.63094205 53.67187411 19.99999955
v 39.66338187 53.76222357 19.99999955
v 46.05795443 60.26938558 19.99999955
v 46.14771903 60.30339375 19.99999955
v 48.65944013 60.91800705 19.99999955
v 48.75476286 60.92929095 19.99999955
v 48.85018989 60.93974411 19.99999955
v 48.94569889 60.94935909 19.99999955
v 49.04128611 60.95813960 19.99999955
v 49.13695157 60.96608937 19.99999955
v 49.42430556 60.98492444 19.99999955
v 49.52018708 60.98953262 19.99999955
v 49.61610958 60.99330261 19.99999955
v 49.71205443 60.99623069 19.99999955
v 49.80802536 60.99832430 19.99999955
v 49.90400746 60.99957973 19.99999955
v 51.24523491 60.92929095 19.99999955
v 51.34056509 60.91800705 19.99999955
v 51.43578723 60.90589613 19.99999955
v 51.53090507 60.89294702 19.99999955
v 51.62590370 60.87917835 19.99999955
v 51.72077939 60.86457148 19.99999955
v 52.09890008 60.79789996 19.99999955
v 52.19304562 60.77917665 19.99999955
v 52.56789923 60.69607288 19.99999955
v 52.66113952 60.67325175 19.99999955
v 53.30776423 60.49088761 19.99999955
v 53.39919031 60.46162546 19.99999955
v 54.12067473 60.19902602 19.99999955
v 54.20951918 60.16267464 19.99999955
v 54.47410047 60.04900113 19.99999955
v 54.56162617 60.00957638 19.99999955
v 54.82208356 59.88673493 19.99999955
v 54.90817502 59.84428152 19.99999955
v 54.99389768 59.80107188 19.99999955
v 55.07923663 59.75711718 19.99999955
v 55.16418815 59.71242487 19.99999955
v 55.24874851 59.66698751 19.99999955
v 55.33290654 59.62081999 19.99999955
v 55.41665852 59.57391486 19.99999955
v 55.66542223 59.42884088 19.99999955
v 55.74748665 59.37904492 19.99999955
v 55.82911149 59.32852998 19.99999955
v 55.91029674 59.27730724 19.99999955
v 55.99103123 59.22537670 19.99999955
v 57.07066506 58.42649192 19.99999955
v 57.14393035 58.36446583 19.99999955
v 57.21664801 58.30180645 19.99999955
v 57.28882179 58.23851377 19.99999955
v 57.36043677 58.17459524 19.99999955
v 57.43149295 58.11005086 19.99999955
v 57.50198290 58.04489180 19.99999955
v 60.71807072 52.47446150 19.99999955
v 60.73925644 52.38083750 19.99999955
v 60.91800705 51.34056509 19.99999955
v 60.92929095 51.24523491 19.99999955
v 60.90589613 51.43578723 19.99999955
v 60.99623069 49.71205443 19.99999955
v 60.99330261 49.61610958 19.99999955
v 60.98953262 49.52018708 19.99999955
v 60.93974411 48.85018989 19.99999955
v 60.92929095 48.75476286 19.99999955
v 60.91800705 48.65944013 19.99999955
v 60.49088761 46.69223726 19.99999955
v 60.46162546 46.60081491 19.99999955
v 60.43156236 46.50964960 19.99999955
v 60.40070206 46.41875252 19.99999955
v 60.36905572 46.32812366 19.99999955
v 60.33661962 46.23777792 19.99999955
v 59.88673493 45.17791793 19.99999955
v 59.84428152 45.09182274 19.99999955
v 59.80107188 45.00610381 19.99999955
v 59.06538665 43.76953095 19.99999955
v 59.01067331 43.69065911 19.99999955
v 58.95527452 43.61226782 19.99999955
v 58.89919028 43.53436455 19.99999955
v 58.84242803 43.45694929 19.99999955
v 58.78499150 43.38003695 19.99999955
v 39.08199444 48.65944013 19.99999955
v 39.07071054 48.75476286 19.99999955
v 39.06026110 48.85018989 19.99999955
v 39.02051970 49.32846874 19.99999955
v 39.01507705 49.42430556 19.99999955
v 39.01047260 49.52018708 19.99999955
v 39.00670260 49.61610958 19.99999955
v 39.00376707 49.71205443 19.99999955
v 40.42609036 55.41665852 19.99999955
v 40.47372192 55.50000072 19.99999955
v 45.96848786 60.23459136 19.99999955
v 46.23777792 60.33661962 19.99999955
v 46.32812366 60.36905572 19.99999955
v 46.41875252 60.40070206 19.99999955
v 49.23268035 60.97320467 19.99999955
v 49.32846874 60.97948551 19.99999955
v 56.69637769 58.72688815 19.99999955
v 56.77227676 58.66811797 19.99999955
v 56.84766173 58.60869214 19.99999955
v 56.92252517 58.54860693 19.99999955
v 56.99685961 58.48786980 19.99999955
v 57.57189915 57.97911808 19.99999955
v 57.64124170 57.91273713 19.99999955
v 57.71000311 57.84575641 19.99999955
v 57.77817592 57.77817592 19.99999955
v 57.84575641 57.71000311 19.99999955
v 57.91273713 57.64124170 19.99999955
v 57.97911808 57.57189915 19.99999955
v 58.04489180 57.50198290 19.99999955
v 58.11005086 57.43149295 19.99999955
v 58.17459524 57.36043677 19.99999955
v 58.23851377 57.28882179 19.99999955
v 58.30180645 57.21664801 19.99999955
v 59.57391486 55.41665852 19.99999955
v 59.62081999 55.33290654 19.99999955
v 59.66698751 55.24874851 19.99999955
v 59.71242487 55.16418815 19.99999955
v 59.84428152 54.90817502 19.99999955
v 59.88673493 54.82208356 19.99999955
v 59.92843956 54.73562330 19.99999955
v 59.96938795 54.64880168 19.99999955
v 60.00957638 54.56162617 19.99999955
v 60.04900113 54.47410047 19.99999955
v 60.16267464 54.20951918 19.99999955
v 60.19902602 54.12067473 19.99999955
v 60.23459136 54.03151363 19.99999955
v 60.57387963 53.03201452 19.99999955
v 60.54701656 53.12416703 19.99999955
v 60.51935256 53.21609229 19.99999955
v 60.59993804 52.93962359 19.99999955
v 60.62518805 52.84701288 19.99999955
v 60.64962223 52.75418237 19.99999955
v 60.75962633 52.28703097 19.99999955
v 60.77917665 52.19304562 19.99999955
v 60.83288416 51.91012844 19.99999955
v 60.84914505 51.81552470 19.99999955
v 60.86457148 51.72077939 19.99999955
v 60.93974411 51.14981532 19.99999955
v 60.94935909 51.05430260 19.99999955
v 60.95813960 50.95871538 19.99999955
v 60.98492444 49.42430556 19.99999955
v 60.97948551 49.32846874 19.99999955
v 60.12555212 45.70195824 19.99999955
v 60.08766219 45.61376199 19.99999955
v 60.04900113 45.52589729 19.99999955
v 60.00957638 45.43837532 19.99999955
v 58.72688815 43.30362752 19.99999955
v 58.66811797 43.22772473 19.99999955
v 56.92252517 41.45139828 19.99999955
v 56.99685961 41.51213169 19.99999955
v 57.07066506 41.57351330 19.99999955
v 56.84766173 41.39131308 19.99999955
v 56.77227676 41.33188352 19.99999955
v 56.69637769 41.27311334 19.99999955
v 56.61996454 41.21500999 19.99999955
v 56.54305220 41.15757346 19.99999955
v 51.53090507 39.10705075 19.99999955
v 51.62590370 39.12082687 19.99999955
v 51.72077939 39.13543001 19.99999955
v 51.43578723 39.09410909 19.99999955
v 51.34056509 39.08199444 19.99999955
v 51.24523491 39.07071054 19.99999955
v 40.98932818 43.69065911 19.99999955
v 40.93461111 43.76953095 19.99999955
v 39.20210153 47.90110141 19.99999955
v 39.18419778 47.99541086 19.99999955
v 39.16711360 48.08986932 19.99999955
v 39.15086016 48.18448052 19.99999955
v 39.13543001 48.27922210 19.99999955
v 39.12082687 48.37409407 19.99999955
v 39.05064240 48.94569889 19.99999955
v 39.04185817 49.04128611 19.99999955
v 39.83732685 54.20951918 19.99999955
v 39.87444565 54.29804325 19.99999955
v 39.91234303 54.38624322 19.99999955
v 39.95100036 54.47410047 19.99999955
v 39.99042511 54.56162617 19.99999955
v 40.03061727 54.64880168 19.99999955
v 41.15757346 56.54305220 19.99999955
v 41.21500999 56.61996454 19.99999955
v 41.39131308 56.84766173 19.99999955
v 41.45139828 56.92252517 19.99999955
v 46.50964960 60.43156236 19.99999955
v 46.60081491 60.46162546 19.99999955
v 46.69223726 60.49088761 19.99999955
v 50.00000075 61.00000069 19.99999955
v 50.09599403 60.99957973 19.99999955
v 50.19197986 60.99832430 19.99999955
v 50.95871538 60.95813960 19.99999955
v 50.86305365 60.96608937 19.99999955
v 50.76732114 60.97320467 19.99999955
v 58.66811797 56.77227676 19.99999955
v 58.72688815 56.69637769 19.99999955
v 58.78499150 56.61996454 19.99999955
v 58.95527452 56.38773367 19.99999955
v 59.01067331 56.30934238 19.99999955
v 59.27730724 55.91029674 19.99999955
v 59.22537670 55.99103123 19.99999955
v 59.17274579 56.07130751 19.99999955
v 59.32852998 55.82911149 19.99999955
v 59.37904492 55.74748665 19.99999955
v 59.42884088 55.66542223 19.99999955
v 59.47792158 55.58292568 19.99999955
v 59.52627957 55.50000072 19.99999955
v 59.75711718 55.07923663 19.99999955
v 59.80107188 54.99389768 19.99999955
v 60.26938558 53.94204706 19.99999955
v 60.30339375 53.85228246 19.99999955
v 60.33661962 53.76222357 19.99999955
v 60.36905572 53.67187411 19.99999955
v 60.40070206 53.58124897 19.99999955
v 60.43156236 53.49035189 19.99999955
v 60.46162546 53.39919031 19.99999955
v 60.49088761 53.30776423 19.99999955
v 60.67325175 52.66113952 19.99999955
v 60.69607288 52.56789923 19.99999955
v 60.87917835 51.62590370 19.99999955
v 60.89294702 51.53090507 19.99999955
v 60.96608937 50.86305365 19.99999955
v 60.97320467 50.76732114 19.99999955
v 60.90589613 48.56421426 19.99999955
v 60.89294702 48.46909642 19.99999955
v 60.87917835 48.37409407 19.99999955
v 60.86457148 48.27922210 19.99999955
v 60.84914505 48.18448052 19.99999955
v 60.83288416 48.08986932 19.99999955
v 60.81580371 47.99541086 19.99999955
v 60.79789996 47.90110141 19.99999955
v 60.77917665 47.80695215 19.99999955
v 60.75962633 47.71297053 19.99999955
v 60.73925644 47.61916399 19.99999955
v 60.71807072 47.52553999 19.99999955
v 60.30339375 46.14771903 19.99999955
v 60.26938558 46.05795443 19.99999955
v 60.23459136 45.96848786 19.99999955
v 60.19902602 45.87933049 19.99999955
v 60.16267464 45.79048231 19.99999955
v 59.96938795 45.35119981 19.99999955
v 59.92843956 45.26437819 19.99999955
v 58.42649192 42.92933643 19.99999955
v 58.36446583 42.85607114 19.99999955
v 58.30180645 42.78335348 19.99999955
v 57.91273713 42.35875607 19.99999955
v 57.84575641 42.28999838 19.99999955
v 57.77817592 42.22182557 19.99999955
v 57.71000311 42.15424880 19.99999955
v 57.64124170 42.08726063 19.99999955
v 57.57189915 42.02088341 19.99999955
v 57.50198290 41.95510969 19.99999955
v 57.43149295 41.88995063 19.99999955
v 57.36043677 41.82540998 19.99999955
v 57.28882179 41.76148772 19.99999955
v 57.21664801 41.69819504 19.99999955
v 57.14393035 41.63553566 19.99999955
v 54.29804325 39.87444565 19.99999955
v 54.20951918 39.83732685 19.99999955
v 54.12067473 39.80097920 19.99999955
v 54.03151363 39.76540640 19.99999955
v 53.94204706 39.73061591 19.99999955
v 53.85228246 39.69660401 19.99999955
v 53.76222357 39.66338187 19.99999955
v 40.62096030 44.25251856 19.99999955
v 40.57116061 44.33458298 19.99999955
v 40.52207991 44.41707954 19.99999955
v 40.47372192 44.50000077 19.99999955
v 39.37481716 47.15299234 19.99999955
v 39.35037553 47.24581912 19.99999955
v 39.28193077 47.52553999 19.99999955
v 39.26074505 47.61916399 19.99999955
v 39.10705075 48.46909642 19.99999955
v 39.09410909 48.56421426 19.99999955
v 39.00000080 50.00000075 19.99999955
v 39.00041804 50.09599403 19.99999955
v 39.00167346 50.19197986 19.99999955
v 40.07156193 54.73562330 19.99999955
v 40.11326656 54.82208356 19.99999955
v 40.15572369 54.90817502 19.99999955
v 40.19892961 54.99389768 19.99999955
v 40.24288058 55.07923663 19.99999955
v 40.28758034 55.16418815 19.99999955
v 40.33301026 55.24874851 19.99999955
v 40.37918523 55.33290654 19.99999955
v 40.77462479 55.99103123 19.99999955
v 40.82725570 56.07130751 19.99999955
v 41.51213169 56.99685961 19.99999955
v 41.57351330 57.07066506 19.99999955
v 41.63553566 57.14393035 19.99999955
v 41.69819504 57.21664801 19.99999955
v 41.76148772 57.28882179 19.99999955
v 41.82540998 57.36043677 19.99999955
v 41.88995063 57.43149295 19.99999955
v 41.95510969 57.50198290 19.99999955
v 42.02088341 57.57189915 19.99999955
v 42.08726063 57.64124170 19.99999955
v 42.15424880 57.71000311 19.99999955
v 42.22182557 57.77817592 19.99999955
v 42.28999838 57.84575641 19.99999955
v 42.35875607 57.91273713 19.99999955
v 42.42810234 57.97911808 19.99999955
v 43.30362752 58.72688815 19.99999955
v 43.38003695 58.78499150 19.99999955
v 43.45694929 58.84242803 19.99999955
v 43.53436455 58.89919028 19.99999955
v 46.78391293 60.51935256 19.99999955
v 46.87583074 60.54701656 19.99999955
v 46.96799070 60.57387963 19.99999955
v 48.18448052 60.84914505 19.99999955
v 48.27922210 60.86457148 19.99999955
v 48.37409407 60.87917835 19.99999955
v 50.28794706 60.99623069 19.99999955
v 50.38389564 60.99330261 19.99999955
v 50.47981441 60.98953262 19.99999955
v 50.57569593 60.98492444 19.99999955
v 50.67153648 60.97948551 19.99999955
v 51.05430260 60.94935909 19.99999955
v 51.14981532 60.93974411 19.99999955
v 58.36446583 57.14393035 19.99999955
v 58.42649192 57.07066506 19.99999955
v 58.48786980 56.99685961 19.99999955
v 58.84242803 56.54305220 19.99999955
v 58.89919028 56.46563694 19.99999955
v 59.06538665 56.23047054 19.99999955
v 59.11941454 56.15112185 19.99999955
v 60.69607288 47.43210226 19.99999955
v 60.67325175 47.33885825 19.99999955
v 58.23851377 42.71118343 19.99999955
v 58.17459524 42.63956472 19.99999955
v 58.11005086 42.56850854 19.99999955
v 58.04489180 42.49801859 19.99999955
v 57.97911808 42.42810234 19.99999955
v 52.38083750 39.26074505 19.99999955
v 52.28703097 39.24037516 19.99999955
v 52.19304562 39.22082856 19.99999955
v 52.09890008 39.20210153 19.99999955
v 52.00459436 39.18419778 19.99999955
v 51.91012844 39.16711360 19.99999955
v 51.81552470 39.15086016 19.99999955
v 50.09599403 39.00041804 19.99999955
v 40.88058695 43.84887591 19.99999955
v 40.82725570 43.92869398 19.99999955
v 40.77462479 44.00897399 19.99999955
v 40.42609036 44.58333924 19.99999955
v 40.37918523 44.66709495 19.99999955
v 40.33301026 44.75125670 19.99999955
v 39.83732685 45.79048231 19.99999955
v 39.80097920 45.87933049 19.99999955
v 39.76540640 45.96848786 19.99999955
v 39.73061591 46.05795443 19.99999955
v 39.69660401 46.14771903 19.99999955
v 39.66338187 46.23777792 19.99999955
v 39.63094205 46.32812366 19.99999955
v 39.59929571 46.41875252 19.99999955
v 39.56843913 46.50964960 19.99999955
v 39.53837976 46.60081491 19.99999955
v 39.45298493 46.87583074 19.99999955
v 39.42612186 46.96799070 19.99999955
v 39.40006718 47.06037790 19.99999955
v 39.24037516 47.71297053 19.99999955
v 39.22082856 47.80695215 19.99999955
v 39.00376707 50.28794706 19.99999955
v 39.00670260 50.38389564 19.99999955
v 39.01047260 50.47981441 19.99999955
v 39.01507705 50.57569593 19.99999955
v 39.02051970 50.67153648 19.99999955
v 39.02679309 50.76732114 19.99999955
v 39.03390840 50.86305365 19.99999955
v 39.04185817 50.95871538 19.99999955
v 39.05064240 51.05430260 19.99999955
v 39.12082687 51.62590370 19.99999955
v 39.13543001 51.72077939 19.99999955
v 39.15086016 51.81552470 19.99999955
v 40.88058695 56.15112185 19.99999955
v 40.93461111 56.23047054 19.99999955
v 40.98932818 56.30934238 19.99999955
v 41.27311334 56.69637769 19.99999955
v 41.33188352 56.77227676 19.99999955
v 43.61226782 58.95527452 19.99999955
v 43.69065911 59.01067331 19.99999955
v 43.76953095 59.06538665 19.99999955
v 47.24581912 60.64962223 19.99999955
v 47.33885825 60.67325175 19.99999955
v 47.43210226 60.69607288 19.99999955
v 47.52553999 60.71807072 19.99999955
v 47.80695215 60.77917665 19.99999955
v 47.90110141 60.79789996 19.99999955
v 55.91029674 40.72269425 19.99999955
v 55.82911149 40.67147151 19.99999955
v 55.74748665 40.62096030 19.99999955
v 55.66542223 40.57116061 19.99999955
v 54.64880168 40.03061727 19.99999955
v 54.56162617 39.99042511 19.99999955
v 54.47410047 39.95100036 19.99999955
v 54.38624322 39.91234303 19.99999955
v 53.67187411 39.63094205 19.99999955
v 53.58124897 39.59929571 19.99999955
v 53.49035189 39.56843913 19.99999955
v 53.39919031 39.53837976 19.99999955
v 53.30776423 39.50911388 19.99999955
v 53.21609229 39.48064893 19.99999955
v 40.72269425 44.08970475 19.99999955
v 40.67147151 44.17088628 19.99999955
v 39.50911388 46.69223726 19.99999955
v 39.48064893 46.78391293 19.99999955
v 39.32674974 47.33885825 19.99999955
v 39.30393234 47.43210226 19.99999955
v 39.06026110 51.14981532 19.99999955
v 39.07071054 51.24523491 19.99999955
v 39.08199444 51.34056509 19.99999955
v 39.16711360 51.91012844 19.99999955
v 39.18419778 52.00459436 19.99999955
v 40.52207991 55.58292568 19.99999955
v 40.57116061 55.66542223 19.99999955
v 40.62096030 55.74748665 19.99999955
v 41.04473069 56.38773367 19.99999955
v 41.10081494 56.46563694 19.99999955
v 42.49801859 58.04489180 19.99999955
v 42.56850854 58.11005086 19.99999955
v 42.63956472 58.17459524 19.99999955
v 42.71118343 58.23851377 19.99999955
v 42.78335348 58.30180645 19.99999955
v 42.85607114 58.36446583 19.99999955
v 42.92933643 58.42649192 19.99999955
v 43.00313815 58.48786980 19.99999955
v 43.07747632 58.54860693 19.99999955
v 43.15233976 58.60869214 19.99999955
v 43.22772473 58.66811797 19.99999955
v 44.25251856 59.37904492 19.99999955
v 44.33458298 59.42884088 19.99999955
v 44.41707954 59.47792158 19.99999955
v 44.50000077 59.52627957 19.99999955
v 44.75125670 59.66698751 19.99999955
v 44.83581334 59.71242487 19.99999955
v 47.61916399 60.73925644 19.99999955
v 47.71297053 60.75962633 19.99999955
v 47.99541086 60.81580371 19.99999955
v 48.08986932 60.83288416 19.99999955
v 58.54860693 56.92252517 19.99999955
v 58.60869214 56.84766173 19.99999955
v 56.30934238 40.98932818 19.99999955
v 56.23047054 40.93461111 19.99999955
v 56.15112185 40.88058695 19.99999955
v 56.07130751 40.82725570 19.99999955
v 55.99103123 40.77462479 19.99999955
v 55.58292568 40.52207991 19.99999955
v 55.50000072 40.47372192 19.99999955
v 55.41665852 40.42609036 19.99999955
v 53.12416703 39.45298493 19.99999955
v 53.03201452 39.42612186 19.99999955
v 52.93962359 39.40006718 19.99999955
v 52.84701288 39.37481716 19.99999955
v 52.75418237 39.35037553 19.99999955
v 52.66113952 39.32674974 19.99999955
v 52.56789923 39.30393234 19.99999955
v 52.47446150 39.28193077 19.99999955
v 49.13695157 39.03390840 19.99999955
v 49.04128611 39.04185817 19.99999955
v 49.23268035 39.02679309 19.99999955
v 40.28758034 44.83581334 19.99999955
v 40.24288058 44.92076486 19.99999955
v 40.19892961 45.00610381 19.99999955
v 40.15572369 45.09182274 19.99999955
v 40.11326656 45.17791793 19.99999955
v 40.07156193 45.26437819 19.99999955
v 40.03061727 45.35119981 19.99999955
v 39.99042511 45.43837532 19.99999955
v 39.95100036 45.52589729 19.99999955
v 39.91234303 45.61376199 19.99999955
v 39.87444565 45.70195824 19.99999955
v 39.09410909 51.43578723 19.99999955
v 39.10705075 51.53090507 19.99999955
v 40.67147151 55.82911149 19.99999955
v 40.72269425 55.91029674 19.99999955
v 43.84887591 59.11941454 19.99999955
v 43.92869398 59.17274579 19.99999955
v 44.00897399 59.22537670 19.99999955
v 47.06037790 60.59993804 19.99999955
v 47.15299234 60.62518805 19.99999955
v 55.33290654 40.37918523 19.99999955
v 55.24874851 40.33301026 19.99999955
v 55.16418815 40.28758034 19.99999955
v 55.07923663 40.24288058 19.99999955
v 54.99389768 40.19892961 19.99999955
v 54.90817502 40.15572369 19.99999955
v 54.82208356 40.11326656 19.99999955
v 54.73562330 40.07156193 19.99999955
v 51.14981532 39.06026110 19.99999955
v 51.05430260 39.05064240 19.99999955
v 50.95871538 39.04185817 19.99999955
v 50.38389564 39.00670260 19.99999955
v 50.28794706 39.00376707 19.99999955
v 50.19197986 39.00167346 19.99999955
v 50.00000075 39.00000080 19.99999955
v 49.90400746 39.00041804 19.99999955
v 49.80802536 39.00167346 19.99999955
v 48.46909642 39.10705075 19.99999955
v 48.37409407 39.12082687 19.99999955
v 48.27922210 39.13543001 19.99999955
v 48.18448052 39.15086016 19.99999955
v 48.08986932 39.16711360 19.99999955
v 47.99541086 39.18419778 19.99999955
v 47.90110141 39.20210153 19.99999955
v 47.80695215 39.22082856 19.99999955
v 47.71297053 39.24037516 19.99999955
v 47.61916399 39.26074505 19.99999955
v 47.33885825 39.32674974 19.99999955
v 47.24581912 39.35037553 19.99999955
v 41.15757346 43.45694929 19.99999955
v 41.10081494 43.53436455 19.99999955
v 41.04473069 43.61226782 19.99999955
v 44.08970475 59.27730724 19.99999955
v 44.17088628 59.32852998 19.99999955
v 44.58333924 59.57391486 19.99999955
v 44.66709495 59.62081999 19.99999955
v 44.92076486 59.75711718 19.99999955
v 45.00610381 59.80107188 19.99999955
v 45.09182274 59.84428152 19.99999955
v 45.17791793 59.88673493 19.99999955
v 45.26437819 59.92843956 19.99999955
v 45.35119981 59.96938795 19.99999955
v 45.61376199 60.08766219 19.99999955
v 45.70195824 60.12555212 19.99999955
v 50.86305365 39.03390840 19.99999955
v 50.76732114 39.02679309 19.99999955
v 50.67153648 39.02051970 19.99999955
v 49.71205443 39.00376707 19.99999955
v 49.61610958 39.00670260 19.99999955
v 49.52018708 39.01047260 19.99999955
v 49.42430556 39.01507705 19.99999955
v 49.32846874 39.02051970 19.99999955
v 47.52553999 39.28193077 19.99999955
v 47.43210226 39.30393234 19.99999955
v 45.79048231 60.16267464 19.99999955
v 45.87933049 60.19902602 19.99999955
v 50.57569593 39.01507705 19.99999955
v 50.47981441 39.01047260 19.99999955
v 48.75476286 39.07071054 19.99999955
v 48.65944013 39.08199444 19.99999955
v 48.56421426 39.09410909 19.99999955
v 41.33188352 43.22772473 19.99999955
v 41.39131308 43.15233976 19.99999955
v 41.45139828 43.07747632 19.99999955
v 41.27311334 43.30362752 19.99999955
v 41.21500999 43.38003695 19.99999955
v 45.43837532 60.00957638 19.99999955
v 45.52589729 60.04900113 19.99999955
v 48.94569889 39.05064240 19.99999955
v 48.85018989 39.06026110 19.99999955
v 43.22772473 41.33188352 19.99999955
v 43.30362752 41.27311334 19.99999955
v 43.38003695 41.21500999 19.99999955
v 43.00313815 41.51213169 19.99999955
v 42.92933643 41.57351330 19.99999955
v 41.82540998 42.63956472 19.99999955
v 41.76148772 42.71118343 19.99999955
v 41.69819504 42.78335348 19.99999955
v 41.63553566 42.85607114 19.99999955
v 41.57351330 42.92933643 19.99999955
v 41.51213169 43.00313815 19.99999955
v 47.15299234 39.37481716 19.99999955
v 47.06037790 39.40006718 19.99999955
v 46.96799070 39.42612186 19.99999955
v 46.87583074 39.45298493 19.99999955
v 46.78391293 39.48064893 19.99999955
v 46.69223726 39.50911388 19.99999955
v 46.05795443 39.73061591 19.99999955
v 45.96848786 39.76540640 19.99999955
v 45.87933049 39.80097920 19.99999955
v 45.79048231 39.83732685 19.99999955
v 45.70195824 39.87444565 19.99999955
v 43.69065911 40.98932818 19.99999955
v 43.61226782 41.04473069 19.99999955
v 42.28999838 42.15424880 19.99999955
v 42.22182557 42.22182557 19.99999955
v 46.41875252 39.59929571 19.99999955
v 46.32812366 39.63094205 19.99999955
v 45.61376199 39.91234303 19.99999955
v 45.52589729 39.95100036 19.99999955
v 45.43837532 39.99042511 19.99999955
v 45.35119981 40.03061727 19.99999955
v 45.26437819 40.07156193 19.99999955
v 45.17791793 40.11326656 19.99999955
v 45.09182274 40.15572369 19.99999955
v 45.00610381 40.19892961 19.99999955
v 44.92076486 40.24288058 19.99999955
v 43.53436455 41.10081494 19.99999955
v 43.45694929 41.15757346 19.99999955
v 43.15233976 41.39131308 19.99999955
v 43.07747632 41.45139828 19.99999955
v 42.85607114 41.63553566 19.99999955
v 42.78335348 41.69819504 19.99999955
v 42.71118343 41.76148772 19.99999955
v 42.15424880 42.28999838 19.99999955
v 42.08726063 42.35875607 19.99999955
v 42.02088341 42.42810234 19.99999955
v 41.95510969 42.49801859 19.99999955
v 41.88995063 42.56850854 19.99999955
v 46.60081491 39.53837976 19.99999955
v 46.50964960 39.56843913 19.99999955
v 46.23777792 39.66338187 19.99999955
v 46.14771903 39.69660401 19.99999955
v 42.63956472 41.82540998 19.99999955
v 42.56850854 41.88995063 19.99999955
v 42.49801859 41.95510969 19.99999955
v 42.42810234 42.02088341 19.99999955
v 42.35875607 42.08726063 19.99999955
v 44.83581334 40.28758034 19.99999955
v 44.75125670 40.33301026 19.99999955
v 44.66709495 40.37918523 19.99999955
v 44.58333924 40.42609036 19.99999955
v 44.50000077 40.47372192 19.99999955
v 44.41707954 40.52207991 19.99999955
v 44.33458298 40.57116061 19.99999955
v 44.25251856 40.62096030 19.99999955
v 44.17088628 40.67147151 19.99999955
v 44.08970475 40.72269425 19.99999955
v 44.00897399 40.77462479 19.99999955
v 43.92869398 40.82725570 19.99999955
v 43.84887591 40.88058695 19.99999955
v 43.76953095 40.93461111 19.99999955
v 54.82208356 59.88673493 9.99999978
v 54.73562330 59.92843956 9.99999978
v 54.64880168 59.96938795 9.99999978
v 54.56162617 60.00957638 9.99999978
v 54.47410047 60.04900113 9.99999978
v 54.38624322 60.08766219 9.99999978
v 54.29804325 60.12555212 9.99999978
v 54.20951918 60.16267464 9.99999978
v 54.12067473 60.19902602 9.99999978
v 54.03151363 60.23459136 9.99999978
v 53.94204706 60.26938558 9.99999978
v 53.85228246 60.30339375 9.99999978
v 53.76222357 60.33661962 9.99999978
v 53.67187411 60.36905572 9.99999978
v 53.58124897 60.40070206 9.99999978
v 53.49035189 60.43156236 9.99999978
v 53.39919031 60.46162546 9.99999978
v 53.30776423 60.49088761 9.99999978
v 53.21609229 60.51935256 9.99999978
v 53.12416703 60.54701656 9.99999978
v 53.03201452 60.57387963 9.99999978
v 52.93962359 60.59993804 9.99999978
v 52.84701288 60.62518805 9.99999978
v 52.75418237 60.64962223 9.99999978
v 52.66113952 60.67325175 9.99999978
v 52.56789923 60.69607288 9.99999978
v 52.47446150 60.71807072 9.99999978
v 52.38083750 60.73925644 9.99999978
v 52.28703097 60.75962633 9.99999978
v 52.19304562 60.77917665 9.99999978
v 52.09890008 60.79789996 9.99999978
v 52.00459436 60.81580371 9.99999978
v 51.91012844 60.83288416 9.99999978
v 51.81552470 60.84914505 9.99999978
v 51.72077939 60.86457148 9.99999978
v 51.62590370 60.87917835 9.99999978
v 51.53090507 60.89294702 9.99999978
v 51.43578723 60.90589613 9.99999978
v 51.34056509 60.91800705 9.99999978
v 51.24523491 60.92929095 9.99999978
v 51.14981532 60.93974411 9.99999978
v 51.05430260 60.94935909 9.99999978
v 50.95871538 60.95813960 9.99999978
v 50.86305365 60.96608937 9.99999978
v 50.76732114 60.97320467 9.99999978
v 50.67153648 60.97948551 9.99999978
v 50.57569593 60.98492444 9.99999978
v 50.47981441 60.98953262 9.99999978
v 50.38389564 60.99330261 9.99999978
v 50.28794706 60.99623069 9.99999978
v 50.19197986 60.99832430 9.99999978
v 50.09599403 60.99957973 9.99999978
v 50.00000075 61.00000069 9.99999978
v 49.90400746 60.99957973 9.99999978
v 49.80802536 60.99832430 9.99999978
v 49.71205443 60.99623069 9.99999978
v 49.61610958 60.99330261 9.99999978
v 49.52018708 60.98953262 9.99999978
v 49.42430556 60.98492444 9.99999978
v 49.32846874 60.97948551 9.99999978
v 49.23268035 60.97320467 9.99999978
v 49.13695157 60.96608937 9.99999978
v 49.04128611 60.95813960 9.99999978
v 48.94569889 60.94935909 9.99999978
v 48.85018989 60.93974411 9.99999978
v 48.75476286 60.92929095 9.99999978
v 48.65944013 60.91800705 9.99999978
v 48.56421426 60.90589613 9.99999978
v 48.46909642 60.89294702 9.99999978
v 48.37409407 60.87917835 9.99999978
v 48.27922210 60.86457148 9.99999978
v 48.18448052 60.84914505 9.99999978
v 48.08986932 60.83288416 9.99999978
v 47.99541086 60.81580371 9.99999978
v 47.90110141 60.79789996 9.99999978
v 47.80695215 60.77917665 9.99999978
v 47.71297053 60.75962633 9.99999978
v 47.61916399 60.73925644 9.99999978
v 47.52553999 60.71807072 9.99999978
v 47.43210226 60.69607288 9.99999978
v 47.33885825 60.67325175 9.99999978
v 39.24037516 52.28703097 9.99999978
v 39.26074505 52.38083750 9.99999978
v 39.28193077 52.47446150 9.99999978
v 39.30393234 52.56789923 9.99999978
v 39.32674974 52.66113952 9.99999978
v 39.35037553 52.75418237 9.99999978
v 39.37481716 52.84701288 9.99999978
v 39.40006718 52.93962359 9.99999978
v 39.42612186 53.03201452 9.99999978
v 39.45298493 53.12416703 9.99999978
v 39.48064893 53.21609229 9.99999978
v 39.50911388 53.30776423 9.99999978
v 39.53837976 53.39919031 9.99999978
v 39.56843913 53.49035189 9.99999978
v 39.59929571 53.58124897 9.99999978
v 39.63094205 53.67187411 9.99999978
v 39.66338187 53.76222357 9.99999978
v 39.69660401 53.85228246 9.99999978
v 39.73061591 53.94204706 9.99999978
v 39.76540640 54.03151363 9.99999978
v 39.80097920 54.12067473 9.99999978
v 39.83732685 54.20951918 9.99999978
v 39.87444565 54.29804325 9.99999978
v 39.91234303 54.38624322 9.99999978
v 39.95100036 54.47410047 9.99999978
v 39.99042511 54.56162617 9.99999978
v 40.03061727 54.64880168 9.99999978
v 40.07156193 54.73562330 9.99999978
v 40.11326656 54.82208356 9.99999978
v 40.15572369 54.90817502 9.99999978
v 40.19892961 54.99389768 9.99999978
v 40.24288058 55.07923663 9.99999978
v 40.28758034 55.16418815 9.99999978
v 40.33301026 55.24874851 9.99999978
v 40.37918523 55.33290654 9.99999978
v 40.42609036 55.41665852 9.99999978
v 40.47372192 55.50000072 9.99999978
v 40.52207991 55.58292568 9.99999978
v 40.57116061 55.66542223 9.99999978
v 40.62096030 55.74748665 9.99999978
v 40.67147151 55.82911149 9.99999978
v 40.72269425 55.91029674 9.99999978
v 40.77462479 55.99103123 9.99999978
v 40.82725570 56.07130751 9.99999978
v 40.88058695 56.15112185 9.99999978
v 40.93461111 56.23047054 9.99999978
v 40.98932818 56.30934238 9.99999978
v 41.04473069 56.38773367 9.99999978
v 41.10081494 56.46563694 9.99999978
v 41.15757346 56.54305220 9.99999978
v 41.21500999 56.61996454 9.99999978
v 41.27311334 56.69637769 9.99999978
v 41.33188352 56.77227676 9.99999978
v 41.39131308 56.84766173 9.99999978
v 41.45139828 56.92252517 9.99999978
v 41.51213169 56.99685961 9.99999978
v 41.57351330 57.07066506 9.99999978
v 41.63553566 57.14393035 9.99999978
v 41.69819504 57.21664801 9.99999978
v 41.76148772 57.28882179 9.99999978
v 41.82540998 57.36043677 9.99999978
v 41.88995063 57.43149295 9.99999978
v 41.95510969 57.50198290 9.99999978
v 42.02088341 57.57189915 9.99999978
v 42.08726063 57.64124170 9.99999978
v 42.15424880 57.71000311 9.99999978
v 42.22182557 57.77817592 9.99999978
v 42.28999838 57.84575641 9.99999978
v 42.35875607 57.91273713 9.99999978
v 42.42810234 57.97911808 9.99999978
v 42.49801859 58.04489180 9.99999978
v 42.56850854 58.11005086 9.99999978
v 42.63956472 58.17459524 9.99999978
v 42.71118343 58.23851377 9.99999978
v 42.78335348 58.30180645 9.99999978
v 42.85607114 58.36446583 9.99999978
v 42.92933643 58.42649192 9.99999978
v 43.00313815 58.48786980 9.99999978
v 43.07747632 58.54860693 9.99999978
v 43.15233976 58.60869214 9.99999978
v 43.22772473 58.66811797 9.99999978
v 43.30362752 58.72688815 9.99999978
v 43.38003695 58.78499150 9.99999978
v 43.45694929 58.84242803 9.99999978
v 43.53436455 58.89919028 9.99999978
v 43.61226782 58.95527452 9.99999978
v 43.69065911 59.01067331 9.99999978
v 43.76953095 59.06538665 9.99999978
v 43.84887591 59.11941454 9.99999978
v 43.92869398 59.17274579 9.99999978
v 44.00897399 59.22537670 9.99999978
v 44.08970475 59.27730724 9.99999978
v 44.17088628 59.32852998 9.99999978
v 44.25251856 59.37904492 9.99999978
v 44.33458298 59.42884088 9.99999978
v 44.41707954 59.47792158 9.99999978
v 44.50000077 59.52627957 9.99999978
v 44.58333924 59.57391486 9.99999978
v 44.66709495 59.62081999 9.99999978
v 44.75125670 59.66698751 9.99999978
v 44.83581334 59.71242487 9.99999978
v 44.92076486 59.75711718 9.99999978
v 45.00610381 59.80107188 9.99999978
v 45.09182274 59.84428152 9.99999978
v 45.17791793 59.88673493 9.99999978
v 45.26437819 59.92843956 9.99999978
v 45.35119981 59.96938795 9.99999978
v 45.43837532 60.00957638 9.99999978
v 45.52589729 60.04900113 9.99999978
v 45.61376199 60.08766219 9.99999978
v 45.70195824 60.12555212 9.99999978
v 45.79048231 60.16267464 9.99999978
v 45.87933049 60.19902602 9.99999978
v 45.96848786 60.23459136 9.99999978
v 46.05795443 60.26938558 9.99999978
v 46.14771903 60.30339375 9.99999978
v 46.23777792 60.33661962 9.99999978
v 46.32812366 60.36905572 9.99999978
v 46.41875252 60.40070206 9.99999978
v 46.50964960 60.43156236 9.99999978
v 46.60081491 60.46162546 9.99999978
v 46.69223726 60.49088761 9.99999978
v 46.78391293 60.51935256 9.99999978
v 46.87583074 60.54701656 9.99999978
v 46.96799070 60.57387963 9.99999978
v 47.06037790 60.59993804 9.99999978
v 47.15299234 60.62518805 9.99999978
v 47.24581912 60.64962223 9.99999978
v 43.22772473 41.33188352 9.99999978
v 43.15233976 41.39131308 9.99999978
v 43.07747632 41.45139828 9.99999978
v 43.00313815 41.51213169 9.99999978
v 42.92933643 41.57351330 9.99999978
v 42.85607114 41.63553566 9.99999978
v 42.78335348 41.69819504 9.99999978
v 42.71118343 41.76148772 9.99999978
v 42.63956472 41.82540998 9.99999978
v 42.56850854 41.88995063 9.99999978
v 42.49801859 41.95510969 9.99999978
v 42.42810234 42.02088341 9.99999978
v 42.35875607 42.08726063 9.99999978
v 42.28999838 42.15424880 9.99999978
v 42.22182557 42.22182557 9.99999978
v 42.15424880 42.28999838 9.99999978
v 42.08726063 42.35875607 9.99999978
v 42.02088341 42.42810234 9.99999978
v 41.95510969 42.49801859 9.99999978
v 41.88995063 42.56850854 9.99999978
v 41.82540998 42.63956472 9.99999978
v 41.76148772 42.71118343 9.99999978
v 41.69819504 42.78335348 9.99999978
v 41.63553566 42.85607114 9.99999978
v 41.57351330 42.92933643 9.99999978
v 41.51213169 43.00313815 9.99999978
v 41.45139828 43.07747632 9.99999978
v 41.39131308 43.15233976 9.99999978
v 41.33188352 43.22772473 9.99999978
v 41.27311334 43.30362752 9.99999978
v 41.21500999 43.38003695 9.99999978
v 41.15757346 43.45694929 9.99999978
v 41.10081494 43.53436455 9.99999978
v 41.04473069 43.61226782 9.99999978
v 40.98932818 43.69065911 9.99999978
v 40.93461111 43.76953095 9.99999978
v 40.88058695 43.84887591 9.99999978
v 40.82725570 43.92869398 9.99999978
v 40.77462479 44.00897399 9.99999978
v 40.72269425 44.08970475 9.99999978
v 40.67147151 44.17088628 9.99999978
v 40.62096030 44.25251856 9.99999978
v 40.57116061 44.33458298 9.99999978
v 40.52207991 44.41707954 9.99999978
v 40.47372192 44.50000077 9.99999978
v 40.42609036 44.58333924 9.99999978
v 40.37918523 44.66709495 9.99999978
v 40.33301026 44.75125670 9.99999978
v 40.28758034 44.83581334 9.99999978
v 40.24288058 44.92076486 9.99999978
v 40.19892961 45.00610381 9.99999978
v 40.15572369 45.09182274 9.99999978
v 40.11326656 45.17791793 9.99999978
v 40.07156193 45.26437819 9.99999978
v 40.03061727 45.35119981 9.99999978
v 39.99042511 45.43837532 9.99999978
v 39.95100036 45.52589729 9.99999978
v 39.91234303 45.61376199 9.99999978
v 39.87444565 45.70195824 9.99999978
v 39.83732685 45.79048231 9.99999978
v 39.80097920 45.87933049 9.99999978
v 39.76540640 45.96848786 9.99999978
v 39.73061591 46.05795443 9.99999978
v 39.69660401 46.14771903 9.99999978
v 39.66338187 46.23777792 9.99999978
v 39.63094205 46.32812366 9.99999978
v 39.59929571 46.41875252 9.99999978
v 39.56843913 46.50964960 9.99999978
v 39.53837976 46.60081491 9.99999978
v 39.50911388 46.69223726 9.99999978
v 39.48064893 46.78391293 9.99999978
v 39.45298493 46.87583074 9.99999978
v 39.42612186 46.96799070 9.99999978
v 39.40006718 47.06037790 9.99999978
v 39.37481716 47.15299234 9.99999978
v 39.35037553 47.24581912 9.99999978
v 39.32674974 47.33885825 9.99999978
v 39.30393234 47.43210226 9.99999978
v 39.28193077 47.52553999 9.99999978
v 39.26074505 47.61916399 9.99999978
v 39.24037516 47.71297053 9.99999978
v 39.22082856 47.80695215 9.99999978
v 39.20210153 47.90110141 9.99999978
v 39.18419778 47.99541086 9.99999978
v 39.16711360 48.08986932 9.99999978
v 39.15086016 48.18448052 9.99999978
v 39.13543001 48.27922210 9.99999978
v 39.12082687 48.37409407 9.99999978
v 39.10705075 48.46909642 9.99999978
v 39.09410909 48.56421426 9.99999978
v 39.08199444 48.65944013 9.99999978
v 39.07071054 48.75476286 9.99999978
v 39.06026110 48.85018989 9.99999978
v 39.05064240 48.94569889 9.99999978
v 39.04185817 49.04128611 9.99999978
v 39.03390840 49.13695157 9.99999978
v 39.02679309 49.23268035 9.99999978
v 39.02051970 49.32846874 9.99999978
v 39.01507705 49.42430556 9.99999978
v 39.01047260 49.52018708 9.99999978
v 39.00670260 49.61610958 9.99999978
v 39.00376707 49.71205443 9.99999978
v 39.00167346 49.80802536 9.99999978
v 39.00041804 49.90400746 9.99999978
v 39.00000080 50.00000075 9.99999978
v 39.00041804 50.09599403 9.99999978
v 39.00167346 50.19197986 9.99999978
v 39.00376707 50.28794706 9.99999978
v 39.00670260 50.38389564 9.99999978
v 39.01047260 50.47981441 9.99999978
v 39.01507705 50.57569593 9.99999978
v 39.02051970 50.67153648 9.99999978
v 39.02679309 50.76732114 9.99999978
v 39.03390840 50.86305365 9.99999978
v 39.04185817 50.95871538 9.99999978
v 39.05064240 51.05430260 9.99999978
v 39.06026110 51.14981532 9.99999978
v 39.07071054 51.24523491 9.99999978
v 39.08199444 51.34056509 9.99999978
v 39.09410909 51.43578723 9.99999978
v 39.10705075 51.53090507 9.99999978
v 39.12082687 51.62590370 9.99999978
v 39.13543001 51.72077939 9.99999978
v 39.15086016 51.81552470 9.99999978
v 39.16711360 51.91012844 9.99999978
v 39.18419778 52.00459436 9.99999978
v 39.20210153 52.09890008 9.99999978
v 39.22082856 52.19304562 9.99999978
v 54.82208356 40.11326656 9.99999978
v 54.73562330 40.07156193 9.99999978
v 54.64880168 40.03061727 9.99999978
v 54.56162617 39.99042511 9.99999978
v 54.47410047 39.95100036 9.99999978
v 54.38624322 39.91234303 9.99999978
v 54.29804325 39.87444565 9.99999978
v 54.20951918 39.83732685 9.99999978
v 54.12067473 39.80097920 9.99999978
v 54.03151363 39.76540640 9.99999978
v 53.94204706 39.73061591 9.99999978
v 53.85228246 39.69660401 9.99999978
v 53.76222357 39.66338187 9.99999978
v 53.67187411 39.63094205 9.99999978
v 53.58124897 39.59929571 9.99999978
v 53.49035189 39.56843913 9.99999978
v 53.39919031 39.53837976 9.99999978
v 53.30776423 39.50911388 9.99999978
v 53.21609229 39.48064893 9.99999978
v 53.12416703 39.45298493 9.99999978
v 53.03201452 39.42612186 9.99999978
v 52.93962359 39.40006718 9.99999978
v 52.84701288 39.37481716 9.99999978
v 52.75418237 39.35037553 9.99999978
v 52.66113952 39.32674974 9.99999978
v 52.56789923 39.30393234 9.99999978
v 52.47446150 39.28193077 9.99999978
v 52.38083750 39.26074505 9.99999978
v 52.28703097 39.24037516 9.99999978
v 52.19304562 39.22082856 9.99999978
v 52.09890008 39.20210153 9.99999978
v 52.00459436 39.18419778 9.99999978
v 51.91012844 39.16711360 9.99999978
v 51.81552470 39.15086016 9.99999978
v 51.72077939 39.13543001 9.99999978
v 51.62590370 39.12082687 9.99999978
v 51.53090507 39.10705075 9.99999978
v 51.43578723 39.09410909 9.99999978
v 51.34056509 39.08199444 9.99999978
v 51.24523491 39.07071054 9.99999978
v 51.14981532 39.06026110 9.99999978
v 51.05430260 39.05064240 9.99999978
v 50.95871538 39.04185817 9.99999978
v 50.86305365 39.03390840 9.99999978
v 50.76732114 39.02679309 9.99999978
v 50.67153648 39.02051970 9.99999978
v 50.57569593 39.01507705 9.99999978
v 50.47981441 39.01047260 9.99999978
v 50.38389564 39.00670260 9.99999978
v 50.28794706 39.00376707 9.99999978
v 50.19197986 39.00167346 9.99999978
v 50.09599403 39.00041804 9.99999978
v 50.00000075 39.00000080 9.99999978
v 49.90400746 39.00041804 9.99999978
v 49.80802536 39.00167346 9.99999978
v 49.71205443 39.00376707 9.99999978
v 49.61610958 39.00670260 9.99999978
v 49.52018708 39.01047260 9.99999978
v 49.42430556 39.01507705 9.99999978
v 49.32846874 39.02051970 9.99999978
v 49.23268035 39.02679309 9.99999978
v 49.13695157 39.03390840 9.99999978
v 49.04128611 39.04185817 9.99999978
v 48.94569889 39.05064240 9.99999978
v 48.85018989 39.06026110 9.99999978
v 48.75476286 39.07071054 9.99999978
v 48.65944013 39.08199444 9.99999978
v 48.56421426 39.09410909 9.99999978
v 48.46909642 39.10705075 9.99999978
v 48.37409407 39.12082687 9.99999978
v 48.27922210 39.13543001 9.99999978
v 48.18448052 39.15086016 9.99999978
v 48.08986932 39.16711360 9.99999978
v 47.99541086 39.18419778 9.99999978
v 47.90110141 39.20210153 9.99999978
v 47.80695215 39.22082856 9.99999978
v 47.71297053 39.24037516 9.99999978
v 47.61916399 39.26074505 9.99999978
v 47.52553999 39.28193077 9.99999978
v 47.43210226 39.30393234 9.99999978
v 47.33885825 39.32674974 9.99999978
v 47.24581912 39.35037553 9.99999978
v 47.15299234 39.37481716 9.99999978
v 47.06037790 39.40006718 9.99999978
v 46.96799070 39.42612186 9.99999978
v 46.87583074 39.45298493 9.99999978
v 46.78391293 39.48064893 9.99999978
v 46.69223726 39.50911388 9.99999978
v 46.60081491 39.53837976 9.99999978
v 46.50964960 39.56843913 9.99999978
v 46.41875252 39.59929571 9.99999978
v 46.32812366 39.63094205 9.99999978
v 46.23777792 39.66338187 9.99999978
v 46.14771903 39.69660401 9.99999978
v 46.05795443 39.73061591 9.99999978
v 45.96848786 39.76540640 9.99999978
v 45.87933049 39.80097920 9.99999978
v 45.79048231 39.83732685 9.99999978
v 45.70195824 39.87444565 9.99999978
v 45.61376199 39.91234303 9.99999978
v 45.52589729 39.95100036 9.99999978
v 45.43837532 39.99042511 9.99999978
v 45.35119981 40.03061727 9.99999978
v 45.26437819 40.07156193 9.99999978
v 45.17791793 40.11326656 9.99999978
v 45.09182274 40.15572369 9.99999978
v 45.00610381 40.19892961 9.99999978
v 44.92076486 40.24288058 9.99999978
v 44.83581334 40.28758034 9.99999978
v 44.75125670 40.33301026 9.99999978
v 44.66709495 40.37918523 9.99999978
v 44.58333924 40.42609036 9.99999978
v 44.50000077 40.47372192 9.99999978
v 44.41707954 40.52207991 9.99999978
v 44.33458298 40.57116061 9.99999978
v 44.25251856 40.62096030 9.99999978
v 44.17088628 40.67147151 9.99999978
v 44.08970475 40.72269425 9.99999978
v 44.00897399 40.77462479 9.99999978
v 43.92869398 40.82725570 9.99999978
v 43.84887591 40.88058695 9.99999978
v 43.76953095 40.93461111 9.99999978
v 43.69065911 40.98932818 9.99999978
v 43.61226782 41.04473069 9.99999978
v 43.53436455 41.10081494 9.99999978
v 43.45694929 41.15757346 9.99999978
v 43.38003695 41.21500999 9.99999978
v 43.30362752 41.27311334 9.99999978
v 61.00000069 50.00000075 9.99999978
v 60.99957973 49.90400746 9.99999978
v 60.99832430 49.80802536 9.99999978
v 60.99623069 49.71205443 9.99999978
v 60.99330261 49.61610958 9.99999978
v 60.98953262 49.52018708 9.99999978
v 60.98492444 49.42430556 9.99999978
v 60.97948551 49.32846874 9.99999978
v 60.97320467 49.23268035 9.99999978
v 60.96608937 49.13695157 9.99999978
v 60.95813960 49.04128611 9.99999978
v 60.94935909 48.94569889 9.99999978
v 60.93974411 48.85018989 9.99999978
v 60.92929095 48.75476286 9.99999978
v 60.91800705 48.65944013 9.99999978
v 60.90589613 48.56421426 9.99999978
v 60.89294702 48.46909642 9.99999978
v 60.87917835 48.37409407 9.99999978
v 60.86457148 48.27922210 9.99999978
v 60.84914505 48.18448052 9.99999978
v 60.83288416 48.08986932 9.99999978
v 60.81580371 47.99541086 9.99999978
v 60.79789996 47.90110141 9.99999978
v 60.77917665 47.80695215 9.99999978
v 60.75962633 47.71297053 9.99999978
v 60.73925644 47.61916399 9.99999978
v 60.71807072 47.52553999 9.99999978
v 60.69607288 47.43210226 9.99999978
v 60.67325175 47.33885825 9.99999978
v 60.64962223 47.24581912 9.99999978
v 60.62518805 47.15299234 9.99999978
v 60.59993804 47.06037790 9.99999978
v 60.57387963 46.96799070 9.99999978
v 60.54701656 46.87583074 9.99999978
v 60.51935256 46.78391293 9.99999978
v 60.49088761 46.69223726 9.99999978
v 60.46162546 46.60081491 9.99999978
v 60.43156236 46.50964960 9.99999978
v 60.40070206 46.41875252 9.99999978
v 60.36905572 46.32812366 9.99999978
v 60.33661962 46.23777792 9.99999978
v 60.30339375 46.14771903 9.99999978
v 60.26938558 46.05795443 9.99999978
v 60.23459136 45.96848786 9.99999978
v 60.19902602 45.87933049 9.99999978
v 60.16267464 45.79048231 9.99999978
v 60.12555212 45.70195824 9.99999978
v 60.08766219 45.61376199 9.99999978
v 60.04900113 45.52589729 9.99999978
v 60.00957638 45.43837532 9.99999978
v 59.96938795 45.35119981 9.99999978
v 59.92843956 45.26437819 9.99999978
v 59.88673493 45.17791793 9.99999978
v 59.84428152 45.09182274 9.99999978
v 59.80107188 45.00610381 9.99999978
v 59.75711718 44.92076486 9.99999978
v 59.71242487 44.83581334 9.99999978
v 59.66698751 44.75125670 9.99999978
v 59.62081999 44.66709495 9.99999978
v 59.57391486 44.58333924 9.99999978
v 59.52627957 44.50000077 9.99999978
v 59.47792158 44.41707954 9.99999978
v 59.42884088 44.33458298 9.99999978
v 59.37904492 44.25251856 9.99999978
v 59.32852998 44.17088628 9.99999978
v 59.27730724 44.08970475 9.99999978
v 59.22537670 44.00897399 9.99999978
v 59.17274579 43.92869398 9.99999978
v 59.11941454 43.84887591 9.99999978
v 59.06538665 43.76953095 9.99999978
v 59.01067331 43.69065911 9.99999978
v 58.95527452 43.61226782 9.99999978
v 58.89919028 43.53436455 9.99999978
v 58.84242803 43.45694929 9.99999978
v 58.78499150 43.38003695 9.99999978
v 58.72688815 43.30362752 9.99999978
v 58.66811797 43.22772473 9.99999978
v 58.60869214 43.15233976 9.99999978
v 58.54860693 43.07747632 9.99999978
v 58.48786980 43.00313815 9.99999978
v 58.42649192 42.92933643 9.99999978
v 58.36446583 42.85607114 9.99999978
v 58.30180645 42.78335348 9.99999978
v 58.23851377 42.71118343 9.99999978
v 58.17459524 42.63956472 9.99999978
v 58.11005086 42.56850854 9.99999978
v 58.04489180 42.49801859 9.99999978
v 57.97911808 42.42810234 9.99999978
v 57.91273713 42.35875607 9.99999978
v 57.84575641 42.28999838 9.99999978
v 57.77817592 42.22182557 9.99999978
v 57.71000311 42.15424880 9.99999978
v 57.64124170 42.08726063 9.99999978
v 57.57189915 42.02088341 9.99999978
v 57.50198290 41.95510969 9.99999978
v 57.43149295 41.88995063 9.99999978
v 57.36043677 41.82540998 9.99999978
v 57.28882179 41.76148772 9.99999978
v 57.21664801 41.69819504 9.99999978
v 57.14393035 41.63553566 9.99999978
v 57.07066506 41.57351330 9.99999978
v 56.99685961 41.51213169 9.99999978
v 56.92252517 41.45139828 9.99999978
v 56.84766173 41.39131308 9.99999978
v 56.77227676 41.33188352 9.99999978
v 56.69637769 41.27311334 9.99999978
v 56.61996454 41.21500999 9.99999978
v 56.54305220 41.15757346 9.99999978
v 56.46563694 41.10081494 9.99999978
v 56.38773367 41.04473069 9.99999978
v 56.30934238 40.98932818 9.99999978
v 56.23047054 40.93461111 9.99999978
v 56.15112185 40.88058695 9.99999978
v 56.07130751 40.82725570 9.99999978
v 55.99103123 40.77462479 9.99999978
v 55.91029674 40.72269425 9.99999978
v 55.82911149 40.67147151 9.99999978
v 55.74748665 40.62096030 9.99999978
v 55.66542223 40.57116061 9.99999978
v 55.58292568 40.52207991 9.99999978
v 55.50000072 40.47372192 9.99999978
v 55.41665852 40.42609036 9.99999978
v 55.33290654 40.37918523 9.99999978
v 55.24874851 40.33301026 9.99999978
v 55.16418815 40.28758034 9.99999978
v 55.07923663 40.24288058 9.99999978
v 54.99389768 40.19892961 9.99999978
v 54.90817502 40.15572369 9.99999978
v 54.90817502 59.84428152 9.99999978
v 54.99389768 59.80107188 9.99999978
v 55.07923663 59.75711718 9.99999978
v 55.16418815 59.71242487 9.99999978
v 55.24874851 59.66698751 9.99999978
v 55.33290654 59.62081999 9.99999978
v 55.41665852 59.57391486 9.99999978
v 55.50000072 59.52627957 9.99999978
v 55.58292568 59.47792158 9.99999978
v 55.66542223 59.42884088 9.99999978
v 55.74748665 59.37904492 9.99999978
v 55.82911149 59.32852998 9.99999978
v 55.91029674 59.27730724 9.99999978
v 55.99103123 59.22537670 9.99999978
v 56.07130751 59.17274579 9.99999978
v 56.15112185 59.11941454 9.99999978
v 56.23047054 59.06538665 9.99999978
v 56.30934238 59.01067331 9.99999978
v 56.38773367 58.95527452 9.99999978
v 56.46563694 58.89919028 9.99999978
v 56.54305220 58.84242803 9.99999978
v 56.61996454 58.78499150 9.99999978
v 56.69637769 58.72688815 9.99999978
v 56.77227676 58.66811797 9.99999978
v 56.84766173 58.60869214 9.99999978
v 56.92252517 58.54860693 9.99999978
v 56.99685961 58.48786980 9.99999978
v 57.07066506 58.42649192 9.99999978
v 57.14393035 58.36446583 9.99999978
v 57.21664801 58.30180645 9.99999978
v 57.28882179 58.23851377 9.99999978
v 57.36043677 58.17459524 9.99999978
v 57.43149295 58.11005086 9.99999978
v 57.50198290 58.04489180 9.99999978
v 57.57189915 57.97911808 9.99999978
v 57.64124170 57.91273713 9.99999978
v 57.71000311 57.84575641 9.99999978
v 57.77817592 57.77817592 9.99999978
v 57.84575641 57.71000311 9.99999978
v 57.91273713 57.64124170 9.99999978
v 57.97911808 57.57189915 9.99999978
v 58.04489180 57.50198290 9.99999978
v 58.11005086 57.43149295 9.99999978
v 58.17459524 57.36043677 9.99999978
v 58.23851377 57.28882179 9.99999978
v 58.30180645 57.21664801 9.99999978
v 58.36446583 57.14393035 9.99999978
v 58.42649192 57.07066506 9.99999978
v 58.48786980 56.99685961 9.99999978
v 58.54860693 56.92252517 9.99999978
v 58.60869214 56.84766173 9.99999978
v 58.66811797 56.77227676 9.99999978
v 58.72688815 56.69637769 9.99999978
v 58.78499150 56.61996454 9.99999978
v 58.84242803 56.54305220 9.99999978
v 58.89919028 56.46563694 9.99999978
v 58.95527452 56.38773367 9.99999978
v 59.01067331 56.30934238 9.99999978
v 59.06538665 56.23047054 9.99999978
v 59.11941454 56.15112185 9.99999978
v 59.17274579 56.07130751 9.99999978
v 59.22537670 55.99103123 9.99999978
v 59.27730724 55.91029674 9.99999978
v 59.32852998 55.82911149 9.99999978
v 59.37904492 55.74748665 9.99999978
v 59.42884088 55.66542223 9.99999978
v 59.47792158 55.58292568 9.99999978
v 59.52627957 55.50000072 9.99999978
v 59.57391486 55.41665852 9.99999978
v 59.62081999 55.33290654 9.99999978
v 59.66698751 55.24874851 9.99999978
v 59.71242487 55.16418815 9.99999978
v 59.75711718 55.07923663 9.99999978
v 59.80107188 54.99389768 9.99999978
v 59.84428152 54.90817502 9.99999978
v 59.88673493 54.82208356 9.99999978
v 59.92843956 54.73562330 9.99999978
v 59.96938795 54.64880168 9.99999978
v 60.00957638 54.56162617 9.99999978
v 60.04900113 54.47410047 9.99999978
v 60.08766219 54.38624322 9.99999978
v 60.12555212 54.29804325 9.99999978
v 60.16267464 54.20951918 9.99999978
v 60.19902602 54.12067473 9.99999978
v 60.23459136 54.03151363 9.99999978
v 60.26938558 53.94204706 9.99999978
v 60.30339375 53.85228246 9.99999978
v 60.33661962 53.76222357 9.99999978
v 60.36905572 53.67187411 9.99999978
v 60.40070206 53.58124897 9.99999978
v 60.43156236 53.49035189 9.99999978
v 60.46162546 53.39919031 9.99999978
v 60.49088761 53.30776423 9.99999978
v 60.51935256 53.21609229 9.99999978
v 60.54701656 53.12416703 9.99999978
v 60.57387963 53.03201452 9.99999978
v 60.59993804 52.93962359 9.99999978
v 60.62518805 52.84701288 9.99999978
v 60.64962223 52.75418237 9.99999978
v 60.67325175 52.66113952 9.99999978
v 60.69607288 52.56789923 9.99999978
v 60.71807072 52.47446150 9.99999978
v 60.73925644 52.38083750 9.99999978
v 60.75962633 52.28703097 9.99999978
v 60.77917665 52.19304562 9.99999978
v 60.79789996 52.09890008 9.99999978
v 60.81580371 52.00459436 9.99999978
v 60.83288416 51.91012844 9.99999978
v 60.84914505 51.81552470 9.99999978
v 60.86457148 51.72077939 9.99999978
v 60.87917835 51.62590370 9.99999978
v 60.89294702 51.53090507 9.99999978
v 60.90589613 51.43578723 9.99999978
v 60.91800705 51.34056509 9.99999978
v 60.92929095 51.24523491 9.99999978
v 60.93974411 51.14981532 9.99999978
v 60.94935909 51.05430260 9.99999978
v 60.95813960 50.95871538 9.99999978
v 60.96608937 50.86305365 9.99999978
v 60.97320467 50.76732114 9.99999978
v 60.97948551 50.67153648 9.99999978
v 60.98492444 50.57569593 9.99999978
v 60.98953262 50.47981441 9.99999978
v 60.99330261 50.38389564 9.99999978
v 60.99623069 50.28794706 9.99999978
v 60.99832430 50.19197986 9.99999978
v 60.99957973 50.09599403 9.99999978
v 50.00000075 50.00000075 9.99999978
f 1 2 3
f 3 2 4
f 5 1 6
f 6 1 3
f 7 5 8
f 8 5 6
f 2 7 4
f 4 7 8
f 9 10 5
f 11 12 1
f 13 14 1
f 15 16 1
f 17 18 2
f 10 19 5
f 5 19 20
f 5 20 21
f 22 23 5
f 5 23 24
f 5 24 25
f 25 26 5
f 5 26 27
f 5 27 28
f 29 30 1
f 31 32 1
f 33 2 34
f 34 2 35
f 36 37 7
f 21 38 5
f 5 38 39
f 5 39 22
f 40 41 5
f 5 41 42
f 5 42 43
f 44 45 5
f 46 47 1
f 1 47 48
f 49 50 1
f 1 50 51
f 52 1 53
f 53 1 54
f 52 55 1
f 1 55 56
f 1 56 57
f 58 59 1
f 1 59 60
f 1 60 61
f 61 62 1
f 1 62 63
f 1 63 64
f 1 65 66
f 32 67 1
f 1 67 68
f 1 68 69
f 69 70 1
f 1 70 71
f 1 71 72
f 73 1 74
f 74 1 75
f 73 76 1
f 1 76 77
f 1 77 78
f 78 79 1
f 1 79 80
f 1 80 2
f 2 80 81
f 2 81 82
f 83 84 2
f 2 84 85
f 2 85 86
f 87 88 2
f 2 88 89
f 2 89 35
f 18 90 2
f 2 90 91
f 2 91 92
f 92 93 2
f 2 93 94
f 2 94 95
f 95 96 2
f 2 96 97
f 2 97 98
f 98 99 2
f 2 99 100
f 2 100 101
f 102 2 103
f 103 2 104
f 2 105 106
f 7 107 108
f 7 37 5
f 28 109 5
f 5 109 110
f 5 110 111
f 111 112 5
f 5 112 113
f 5 113 40
f 5 114 115
f 45 116 5
f 5 116 117
f 5 117 118
f 118 119 5
f 5 119 120
f 5 120 121
f 122 123 5
f 5 123 124
f 5 124 125
f 125 126 5
f 5 126 127
f 5 127 1
f 128 129 1
f 1 129 130
f 1 130 131
f 131 132 1
f 1 132 133
f 1 133 46
f 48 134 1
f 1 134 135
f 1 135 49
f 51 136 1
f 1 136 137
f 1 137 54
f 57 138 1
f 1 138 139
f 1 139 58
f 64 140 1
f 1 140 141
f 1 141 11
f 12 142 1
f 1 142 143
f 1 143 29
f 30 144 1
f 1 144 145
f 1 145 146
f 146 147 1
f 1 147 148
f 1 148 149
f 149 150 1
f 1 150 151
f 1 151 65
f 66 152 1
f 1 152 153
f 1 153 154
f 154 155 1
f 1 155 156
f 1 156 31
f 157 158 1
f 1 158 159
f 1 159 160
f 160 161 1
f 1 161 162
f 1 162 163
f 1 164 165
f 166 167 1
f 166 1 168
f 82 169 2
f 2 169 170
f 2 170 171
f 86 172 2
f 2 172 173
f 2 173 174
f 33 175 2
f 2 175 176
f 2 176 177
f 177 178 2
f 2 178 179
f 2 179 180
f 181 182 2
f 2 182 183
f 2 183 17
f 101 184 2
f 2 184 185
f 2 185 186
f 186 187 2
f 2 187 188
f 2 188 189
f 190 191 7
f 7 191 192
f 108 193 7
f 7 193 194
f 7 194 195
f 195 196 7
f 7 196 197
f 7 197 36
f 198 199 5
f 114 5 200
f 115 201 5
f 5 201 202
f 5 202 203
f 121 204 5
f 5 204 205
f 5 205 122
f 72 206 1
f 1 206 207
f 1 207 208
f 208 209 1
f 1 209 210
f 1 210 157
f 163 211 1
f 1 211 212
f 1 212 213
f 213 214 1
f 1 214 215
f 1 215 216
f 216 217 1
f 1 217 218
f 1 218 219
f 219 220 1
f 1 220 221
f 1 221 222
f 223 224 1
f 1 224 225
f 1 225 226
f 227 228 1
f 1 228 229
f 1 229 230
f 230 231 1
f 1 231 232
f 1 232 13
f 14 233 1
f 1 233 234
f 1 234 235
f 236 1 237
f 237 1 238
f 236 239 1
f 1 239 240
f 1 240 241
f 165 242 1
f 1 242 243
f 1 243 15
f 16 244 1
f 1 244 245
f 1 245 246
f 167 247 1
f 1 247 248
f 1 248 249
f 171 250 2
f 2 250 251
f 2 251 83
f 252 253 2
f 2 253 254
f 2 254 255
f 189 256 2
f 2 256 257
f 2 257 104
f 258 2 259
f 259 2 260
f 258 261 2
f 2 261 262
f 2 262 263
f 263 264 2
f 2 264 265
f 2 265 105
f 266 2 267
f 267 2 268
f 266 269 2
f 2 269 270
f 2 270 271
f 272 273 7
f 274 275 7
f 7 275 276
f 276 277 7
f 7 277 278
f 7 278 279
f 192 280 7
f 7 280 281
f 7 281 107
f 43 282 5
f 5 282 283
f 5 283 284
f 284 285 5
f 5 285 286
f 5 286 287
f 288 289 5
f 290 291 5
f 203 292 5
f 5 292 293
f 5 293 294
f 127 295 1
f 1 295 296
f 1 296 297
f 298 1 299
f 299 1 300
f 301 302 1
f 1 302 303
f 1 304 305
f 306 1 307
f 307 1 308
f 306 309 1
f 1 309 310
f 1 310 311
f 311 312 1
f 1 312 313
f 1 313 223
f 226 314 1
f 1 314 315
f 1 315 227
f 235 316 1
f 1 316 317
f 1 317 318
f 318 319 1
f 1 319 320
f 1 320 321
f 321 322 1
f 1 322 323
f 1 323 238
f 241 324 1
f 1 324 325
f 1 325 164
f 246 326 1
f 1 326 327
f 1 327 168
f 249 328 1
f 1 328 329
f 1 329 75
f 174 330 2
f 2 330 331
f 2 331 332
f 332 333 2
f 2 333 334
f 2 334 335
f 335 336 2
f 2 336 337
f 2 337 338
f 338 339 2
f 2 339 340
f 2 340 341
f 180 342 2
f 2 342 343
f 2 343 344
f 344 345 2
f 2 345 346
f 2 346 252
f 255 347 2
f 2 347 348
f 2 348 181
f 102 349 2
f 2 349 350
f 2 350 351
f 352 353 2
f 2 353 354
f 2 354 355
f 355 356 2
f 2 356 357
f 2 357 358
f 358 359 2
f 2 359 360
f 2 360 361
f 361 362 2
f 2 362 363
f 2 363 260
f 364 365 2
f 2 365 366
f 2 366 367
f 367 368 2
f 2 368 369
f 2 369 370
f 371 372 7
f 7 372 373
f 7 373 374
f 7 375 376
f 7 377 378
f 279 379 7
f 7 379 380
f 7 380 190
f 37 381 5
f 5 381 382
f 5 382 383
f 287 384 5
f 5 384 385
f 5 385 386
f 386 387 5
f 5 387 388
f 5 388 389
f 389 390 5
f 5 390 391
f 5 391 198
f 392 393 5
f 291 394 5
f 5 394 395
f 5 395 396
f 396 397 5
f 5 397 398
f 5 398 399
f 399 400 5
f 5 400 401
f 5 401 402
f 402 403 5
f 5 403 404
f 5 404 405
f 405 406 5
f 5 406 407
f 5 407 408
f 409 410 5
f 5 410 411
f 5 411 412
f 294 413 5
f 5 413 414
f 5 414 415
f 416 417 5
f 5 417 418
f 5 418 44
f 297 419 1
f 1 419 420
f 1 420 421
f 421 422 1
f 1 422 423
f 1 423 300
f 298 424 1
f 1 424 425
f 1 425 128
f 222 426 1
f 1 426 427
f 1 427 428
f 303 429 1
f 1 429 430
f 1 430 304
f 305 431 1
f 1 431 432
f 1 432 308
f 341 433 2
f 2 433 434
f 2 434 87
f 351 435 2
f 2 435 436
f 2 436 437
f 437 438 2
f 2 438 439
f 2 439 352
f 440 441 2
f 441 442 2
f 2 442 443
f 2 443 444
f 444 445 2
f 2 445 446
f 2 446 268
f 7 2 447
f 273 448 7
f 7 448 449
f 7 449 450
f 374 451 7
f 7 451 452
f 7 452 453
f 454 455 7
f 7 455 456
f 7 456 457
f 457 458 7
f 7 458 459
f 7 459 460
f 460 461 7
f 7 461 462
f 7 462 463
f 464 465 7
f 7 465 466
f 7 466 375
f 378 467 7
f 7 467 468
f 7 468 274
f 383 469 5
f 5 469 470
f 5 470 471
f 471 472 5
f 5 472 473
f 5 473 474
f 474 475 5
f 5 475 476
f 5 476 477
f 478 479 5
f 5 479 480
f 393 481 5
f 5 481 482
f 5 482 483
f 289 484 5
f 5 484 485
f 5 485 290
f 412 486 5
f 5 486 487
f 5 487 488
f 489 490 5
f 5 490 491
f 5 491 492
f 5 493 494
f 495 496 2
f 2 496 497
f 2 497 498
f 499 500 2
f 500 501 2
f 2 501 502
f 2 502 364
f 370 503 2
f 2 503 504
f 2 504 505
f 505 506 2
f 2 506 507
f 2 507 508
f 450 509 7
f 7 509 510
f 7 510 371
f 463 511 7
f 7 511 512
f 7 512 464
f 376 513 7
f 7 513 514
f 7 514 377
f 477 515 5
f 5 515 516
f 5 516 517
f 480 518 5
f 5 518 519
f 5 519 9
f 199 520 5
f 5 520 521
f 5 521 522
f 483 523 5
f 5 523 524
f 5 524 288
f 408 525 5
f 5 525 526
f 5 526 527
f 527 528 5
f 5 528 529
f 5 529 530
f 530 531 5
f 5 531 532
f 5 532 533
f 533 534 5
f 5 534 535
f 5 535 409
f 536 537 5
f 5 537 538
f 5 538 539
f 540 541 5
f 492 542 5
f 5 542 543
f 5 543 493
f 494 544 5
f 5 544 545
f 5 545 416
f 428 546 1
f 1 546 547
f 1 547 301
f 106 548 2
f 2 548 549
f 2 549 550
f 550 551 2
f 2 551 552
f 2 552 495
f 498 553 2
f 2 553 554
f 2 554 555
f 508 556 2
f 2 556 557
f 2 557 558
f 558 559 2
f 2 559 560
f 2 560 561
f 561 562 2
f 2 562 563
f 2 563 440
f 564 565 7
f 564 7 566
f 453 567 7
f 7 567 568
f 7 568 569
f 569 570 7
f 7 570 571
f 7 571 572
f 572 573 7
f 7 573 574
f 7 574 575
f 575 576 7
f 7 576 577
f 7 577 454
f 517 578 5
f 5 578 579
f 5 579 478
f 522 580 5
f 5 580 581
f 5 581 392
f 488 582 5
f 5 582 583
f 5 583 584
f 415 585 5
f 5 585 586
f 5 586 489
f 555 587 2
f 2 587 588
f 2 588 589
f 589 590 2
f 2 590 591
f 2 591 592
f 592 593 2
f 2 593 594
f 2 594 499
f 271 595 2
f 2 595 596
f 2 596 597
f 598 599 2
f 2 599 600
f 2 600 447
f 447 601 7
f 7 601 602
f 7 602 603
f 604 605 7
f 7 605 606
f 7 606 607
f 607 608 7
f 7 608 609
f 7 609 610
f 610 611 7
f 7 611 612
f 7 612 613
f 7 614 615
f 616 617 7
f 7 617 618
f 7 618 272
f 584 619 5
f 5 619 620
f 5 620 536
f 539 621 5
f 5 621 622
f 5 622 540
f 541 623 5
f 5 623 624
f 5 624 625
f 625 626 5
f 5 626 627
f 5 627 628
f 5 629 630
f 597 631 2
f 2 631 632
f 2 632 633
f 603 634 7
f 7 634 635
f 7 635 636
f 636 637 7
f 7 637 638
f 7 638 566
f 613 639 7
f 7 639 640
f 7 640 614
f 630 641 5
f 5 641 642
f 5 642 200
f 633 643 2
f 2 643 644
f 2 644 598
f 645 646 7
f 7 646 647
f 7 647 604
f 648 7 649
f 649 7 650
f 648 651 7
f 7 651 652
f 7 652 616
f 628 653 5
f 5 653 654
f 5 654 629
f 565 655 7
f 7 655 656
f 7 656 645
f 657 7 658
f 658 7 659
f 660 661 7
f 662 663 7
f 7 663 664
f 7 664 665
f 665 666 7
f 7 666 667
f 7 667 650
f 615 668 7
f 7 668 669
f 7 669 670
f 670 671 7
f 7 671 672
f 7 672 673
f 7 674 675
f 675 676 7
f 7 676 677
f 7 677 678
f 679 680 7
f 7 681 682
f 7 683 684
f 678 685 7
f 7 685 686
f 7 686 687
f 687 688 7
f 7 688 689
f 7 689 690
f 690 691 7
f 7 691 692
f 7 692 693
f 680 694 7
f 7 694 695
f 7 695 659
f 657 696 7
f 7 696 697
f 7 697 660
f 661 698 7
f 7 698 699
f 7 699 700
f 682 701 7
f 7 701 702
f 7 702 703
f 703 704 7
f 7 704 705
f 7 705 662
f 673 706 7
f 7 706 707
f 7 707 683
f 684 708 7
f 7 708 709
f 7 709 674
f 700 710 7
f 7 710 711
f 7 711 712
f 712 713 7
f 7 713 714
f 7 714 681
f 693 715 7
f 7 715 716
f 7 716 717
f 717 718 7
f 7 718 719
f 7 719 720
f 720 721 7
f 7 721 722
f 7 722 723
f 723 724 7
f 7 724 725
f 7 725 726
f 726 727 7
f 7 727 728
f 7 728 679
f 8 6 4
f 4 6 3
f 729 144 730
f 730 144 30
f 730 30 731
f 731 30 29
f 731 29 732
f 732 29 143
f 732 143 733
f 733 143 142
f 733 142 734
f 734 142 12
f 734 12 735
f 735 12 11
f 735 11 736
f 736 11 141
f 736 141 737
f 737 141 140
f 737 140 738
f 738 140 64
f 738 64 739
f 739 64 63
f 739 63 740
f 740 63 62
f 740 62 741
f 741 62 61
f 741 61 742
f 742 61 60
f 742 60 743
f 743 60 59
f 743 59 744
f 744 59 58
f 744 58 745
f 745 58 139
f 745 139 746
f 746 139 138
f 746 138 747
f 747 138 57
f 747 57 748
f 748 57 56
f 748 56 749
f 749 56 55
f 749 55 750
f 750 55 52
f 750 52 751
f 751 52 53
f 751 53 752
f 752 53 54
f 752 54 753
f 753 54 137
f 753 137 754
f 754 137 136
f 754 136 755
f 755 136 51
f 755 51 756
f 756 51 50
f 756 50 757
f 757 50 49
f 757 49 758
f 758 49 135
f 758 135 759
f 759 135 134
f 759 134 760
f 760 134 48
f 760 48 761
f 761 48 47
f 761 47 762
f 762 47 46
f 762 46 763
f 763 46 133
f 763 133 764
f 764 133 132
f 764 132 765
f 765 132 131
f 765 131 766
f 766 131 130
f 766 130 767
f 767 130 129
f 767 129 768
f 768 129 128
f 768 128 769
f 769 128 425
f 769 425 770
f 770 425 424
f 770 424 771
f 771 424 298
f 771 298 772
f 772 298 299
f 772 299 773
f 773 299 300
f 773 300 774
f 774 300 423
f 774 423 775
f 775 423 422
f 775 422 776
f 776 422 421
f 776 421 777
f 777 421 420
f 777 420 778
f 778 420 419
f 778 419 779
f 779 419 297
f 779 297 780
f 780 297 296
f 780 296 781
f 781 296 295
f 781 295 782
f 782 295 127
f 782 127 783
f 783 127 126
f 783 126 784
f 784 126 125
f 784 125 785
f 785 125 124
f 785 124 786
f 786 124 123
f 786 123 787
f 787 123 122
f 787 122 788
f 788 122 205
f 788 205 789
f 789 205 204
f 789 204 790
f 790 204 121
f 790 121 791
f 791 121 120
f 791 120 792
f 792 120 119
f 792 119 793
f 793 119 118
f 793 118 794
f 794 118 117
f 794 117 795
f 795 117 116
f 795 116 796
f 796 116 45
f 796 45 797
f 797 45 44
f 797 44 798
f 798 44 418
f 798 418 799
f 799 418 417
f 799 417 800
f 800 417 416
f 800 416 801
f 801 416 545
f 801 545 802
f 802 545 544
f 802 544 803
f 803 544 494
f 803 494 804
f 804 494 493
f 804 493 805
f 805 493 543
f 805 543 806
f 806 543 542
f 806 542 807
f 807 542 492
f 807 492 808
f 808 492 491
f 808 491 809
f 809 491 490
f 19 810 20
f 20 810 811
f 20 811 21
f 21 811 812
f 21 812 38
f 38 812 813
f 38 813 39
f 39 813 814
f 39 814 22
f 22 814 815
f 22 815 23
f 23 815 816
f 23 816 24
f 24 816 817
f 24 817 25
f 25 817 818
f 25 818 26
f 26 818 819
f 26 819 27
f 27 819 820
f 27 820 28
f 28 820 821
f 28 821 109
f 109 821 822
f 109 822 110
f 110 822 823
f 110 823 111
f 111 823 824
f 111 824 112
f 112 824 825
f 112 825 113
f 113 825 826
f 113 826 40
f 40 826 827
f 40 827 41
f 41 827 828
f 41 828 42
f 42 828 829
f 42 829 43
f 43 829 830
f 43 830 282
f 282 830 831
f 282 831 283
f 283 831 832
f 283 832 284
f 284 832 833
f 284 833 285
f 285 833 834
f 285 834 286
f 286 834 835
f 286 835 287
f 287 835 836
f 287 836 384
f 384 836 837
f 384 837 385
f 385 837 838
f 385 838 386
f 386 838 839
f 386 839 387
f 387 839 840
f 387 840 388
f 388 840 841
f 388 841 389
f 389 841 842
f 389 842 390
f 390 842 843
f 390 843 391
f 391 843 844
f 391 844 198
f 198 844 845
f 198 845 199
f 199 845 846
f 199 846 520
f 520 846 847
f 520 847 521
f 521 847 848
f 521 848 522
f 522 848 849
f 522 849 580
f 580 849 850
f 580 850 581
f 581 850 851
f 581 851 392
f 392 851 852
f 392 852 393
f 393 852 853
f 393 853 481
f 481 853 854
f 481 854 482
f 482 854 855
f 482 855 483
f 483 855 856
f 483 856 523
f 523 856 857
f 523 857 524
f 524 857 858
f 524 858 288
f 288 858 859
f 288 859 289
f 289 859 860
f 289 860 484
f 484 860 861
f 484 861 485
f 485 861 862
f 485 862 290
f 290 862 863
f 290 863 291
f 291 863 864
f 291 864 394
f 394 864 865
f 394 865 395
f 395 865 866
f 395 866 396
f 396 866 867
f 396 867 397
f 397 867 868
f 397 868 398
f 398 868 869
f 398 869 399
f 399 869 870
f 399 870 400
f 400 870 871
f 400 871 401
f 401 871 872
f 401 872 402
f 402 872 873
f 402 873 403
f 403 873 874
f 403 874 404
f 404 874 875
f 404 875 405
f 405 875 876
f 405 876 406
f 406 876 877
f 406 877 407
f 407 877 878
f 407 878 408
f 408 878 879
f 408 879 525
f 525 879 880
f 525 880 526
f 526 880 881
f 526 881 527
f 527 881 882
f 527 882 528
f 528 882 883
f 528 883 529
f 529 883 884
f 529 884 530
f 530 884 885
f 530 885 531
f 531 885 886
f 531 886 532
f 532 886 887
f 532 887 533
f 533 887 888
f 533 888 534
f 534 888 889
f 534 889 535
f 535 889 890
f 535 890 409
f 409 890 891
f 409 891 410
f 410 891 892
f 410 892 411
f 411 892 893
f 411 893 412
f 412 893 894
f 412 894 486
f 486 894 895
f 486 895 487
f 487 895 896
f 487 896 488
f 488 896 897
f 488 897 582
f 582 897 898
f 582 898 583
f 583 898 899
f 583 899 584
f 584 899 900
f 584 900 619
f 619 900 901
f 619 901 620
f 620 901 902
f 620 902 536
f 536 902 903
f 536 903 537
f 537 903 904
f 537 904 538
f 538 904 905
f 538 905 539
f 539 905 906
f 539 906 621
f 621 906 907
f 621 907 622
f 622 907 908
f 622 908 540
f 540 908 909
f 540 909 541
f 541 909 910
f 541 910 623
f 623 910 911
f 623 911 624
f 624 911 912
f 624 912 625
f 625 912 913
f 625 913 626
f 626 913 914
f 626 914 627
f 627 914 915
f 627 915 628
f 628 915 916
f 628 916 653
f 653 916 917
f 653 917 654
f 654 917 918
f 654 918 629
f 629 918 919
f 629 919 630
f 630 919 920
f 630 920 641
f 641 920 921
f 641 921 642
f 642 921 922
f 642 922 200
f 200 922 923
f 200 923 114
f 114 923 924
f 114 924 115
f 115 924 925
f 115 925 201
f 201 925 926
f 201 926 202
f 202 926 927
f 202 927 203
f 203 927 928
f 203 928 292
f 292 928 929
f 292 929 293
f 293 929 930
f 293 930 294
f 294 930 931
f 294 931 413
f 413 931 932
f 413 932 414
f 414 932 933
f 414 933 415
f 415 933 934
f 415 934 585
f 585 934 935
f 585 935 586
f 586 935 936
f 586 936 489
f 489 936 937
f 489 937 490
f 490 937 809
f 657 938 696
f 696 938 939
f 696 939 697
f 697 939 940
f 697 940 660
f 660 940 941
f 660 941 661
f 661 941 942
f 661 942 698
f 698 942 943
f 698 943 699
f 699 943 944
f 699 944 700
f 700 944 945
f 700 945 710
f 710 945 946
f 710 946 711
f 711 946 947
f 711 947 712
f 712 947 948
f 712 948 713
f 713 948 949
f 713 949 714
f 714 949 950
f 714 950 681
f 681 950 951
f 681 951 682
f 682 951 952
f 682 952 701
f 701 952 953
f 701 953 702
f 702 953 954
f 702 954 703
f 703 954 955
f 703 955 704
f 704 955 956
f 704 956 705
f 705 956 957
f 705 957 662
f 662 957 958
f 662 958 663
f 663 958 959
f 663 959 664
f 664 959 960
f 664 960 665
f 665 960 961
f 665 961 666
f 666 961 962
f 666 962 667
f 667 962 963
f 667 963 650
f 650 963 964
f 650 964 649
f 649 964 965
f 649 965 648
f 648 965 966
f 648 966 651
f 651 966 967
f 651 967 652
f 652 967 968
f 652 968 616
f 616 968 969
f 616 969 617
f 617 969 970
f 617 970 618
f 618 970 971
f 618 971 272
f 272 971 972
f 272 972 273
f 273 972 973
f 273 973 448
f 448 973 974
f 448 974 449
f 449 974 975
f 449 975 450
f 450 975 976
f 450 976 509
f 509 976 977
f 509 977 510
f 510 977 978
f 510 978 371
f 371 978 979
f 371 979 372
f 372 979 980
f 372 980 373
f 373 980 981
f 373 981 374
f 374 981 982
f 374 982 451
f 451 982 983
f 451 983 452
f 452 983 984
f 452 984 453
f 453 984 985
f 453 985 567
f 567 985 986
f 567 986 568
f 568 986 987
f 568 987 569
f 569 987 988
f 569 988 570
f 570 988 989
f 570 989 571
f 571 989 990
f 571 990 572
f 572 990 991
f 572 991 573
f 573 991 992
f 573 992 574
f 574 992 993
f 574 993 575
f 575 993 994
f 575 994 576
f 576 994 995
f 576 995 577
f 577 995 996
f 577 996 454
f 454 996 997
f 454 997 455
f 455 997 998
f 455 998 456
f 456 998 999
f 456 999 457
f 457 999 1000
f 457 1000 458
f 458 1000 1001
f 458 1001 459
f 459 1001 1002
f 459 1002 460
f 460 1002 1003
f 460 1003 461
f 461 1003 1004
f 461 1004 462
f 462 1004 1005
f 462 1005 463
f 463 1005 1006
f 463 1006 511
f 511 1006 1007
f 511 1007 512
f 512 1007 1008
f 512 1008 464
f 464 1008 1009
f 464 1009 465
f 465 1009 1010
f 465 1010 466
f 466 1010 1011
f 466 1011 375
f 375 1011 1012
f 375 1012 376
f 376 1012 1013
f 376 1013 513
f 513 1013 1014
f 513 1014 514
f 514 1014 1015
f 514 1015 377
f 377 1015 1016
f 377 1016 378
f 378 1016 1017
f 378 1017 467
f 467 1017 1018
f 467 1018 468
f 468 1018 1019
f 468 1019 274
f 274 1019 1020
f 274 1020 275
f 275 1020 1021
f 275 1021 276
f 276 1021 1022
f 276 1022 277
f 277 1022 1023
f 277 1023 278
f 278 1023 1024
f 278 1024 279
f 279 1024 1025
f 279 1025 379
f 379 1025 1026
f 379 1026 380
f 380 1026 1027
f 380 1027 190
f 190 1027 1028
f 190 1028 191
f 191 1028 1029
f 191 1029 192
f 192 1029 1030
f 192 1030 280
f 280 1030 1031
f 280 1031 281
f 281 1031 1032
f 281 1032 107
f 107 1032 1033
f 107 1033 108
f 108 1033 1034
f 108 1034 193
f 193 1034 1035
f 193 1035 194
f 194 1035 1036
f 194 1036 195
f 195 1036 1037
f 195 1037 196
f 196 1037 1038
f 196 1038 197
f 197 1038 1039
f 197 1039 36
f 36 1039 1040
f 36 1040 37
f 37 1040 1041
f 37 1041 381
f 381 1041 1042
f 381 1042 382
f 382 1042 1043
f 382 1043 383
f 383 1043 1044
f 383 1044 469
f 469 1044 1045
f 469 1045 470
f 470 1045 1046
f 470 1046 471
f 471 1046 1047
f 471 1047 472
f 472 1047 1048
f 472 1048 473
f 473 1048 1049
f 473 1049 474
f 474 1049 1050
f 474 1050 475
f 475 1050 1051
f 475 1051 476
f 476 1051 1052
f 476 1052 477
f 477 1052 1053
f 477 1053 515
f 515 1053 1054
f 515 1054 516
f 516 1054 1055
f 516 1055 517
f 517 1055 1056
f 517 1056 578
f 578 1056 1057
f 578 1057 579
f 579 1057 1058
f 579 1058 478
f 478 1058 1059
f 478 1059 479
f 479 1059 1060
f 479 1060 480
f 480 1060 1061
f 480 1061 518
f 518 1061 1062
f 518 1062 519
f 519 1062 1063
f 519 1063 9
f 9 1063 1064
f 9 1064 10
f 10 1064 1065
f 10 1065 19
f 19 1065 810
f 593 1066 594
f 594 1066 1067
f 594 1067 499
f 499 1067 1068
f 499 1068 500
f 500 1068 1069
f 500 1069 501
f 501 1069 1070
f 501 1070 502
f 502 1070 1071
f 502 1071 364
f 364 1071 1072
f 364 1072 365
f 365 1072 1073
f 365 1073 366
f 366 1073 1074
f 366 1074 367
f 367 1074 1075
f 367 1075 368
f 368 1075 1076
f 368 1076 369
f 369 1076 1077
f 369 1077 370
f 370 1077 1078
f 370 1078 503
f 503 1078 1079
f 503 1079 504
f 504 1079 1080
f 504 1080 505
f 505 1080 1081
f 505 1081 506
f 506 1081 1082
f 506 1082 507
f 507 1082 1083
f 507 1083 508
f 508 1083 1084
f 508 1084 556
f 556 1084 1085
f 556 1085 557
f 557 1085 1086
f 557 1086 558
f 558 1086 1087
f 558 1087 559
f 559 1087 1088
f 559 1088 560
f 560 1088 1089
f 560 1089 561
f 561 1089 1090
f 561 1090 562
f 562 1090 1091
f 562 1091 563
f 563 1091 1092
f 563 1092 440
f 440 1092 1093
f 440 1093 441
f 441 1093 1094
f 441 1094 442
f 442 1094 1095
f 442 1095 443
f 443 1095 1096
f 443 1096 444
f 444 1096 1097
f 444 1097 445
f 445 1097 1098
f 445 1098 446
f 446 1098 1099
f 446 1099 268
f 268 1099 1100
f 268 1100 267
f 267 1100 1101
f 267 1101 266
f 266 1101 1102
f 266 1102 269
f 269 1102 1103
f 269 1103 270
f 270 1103 1104
f 270 1104 271
f 271 1104 1105
f 271 1105 595
f 595 1105 1106
f 595 1106 596
f 596 1106 1107
f 596 1107 597
f 597 1107 1108
f 597 1108 631
f 631 1108 1109
f 631 1109 632
f 632 1109 1110
f 632 1110 633
f 633 1110 1111
f 633 1111 643
f 643 1111 1112
f 643 1112 644
f 644 1112 1113
f 644 1113 598
f 598 1113 1114
f 598 1114 599
f 599 1114 1115
f 599 1115 600
f 600 1115 1116
f 600 1116 447
f 447 1116 1117
f 447 1117 601
f 601 1117 1118
f 601 1118 602
f 602 1118 1119
f 602 1119 603
f 603 1119 1120
f 603 1120 634
f 634 1120 1121
f 634 1121 635
f 635 1121 1122
f 635 1122 636
f 636 1122 1123
f 636 1123 637
f 637 1123 1124
f 637 1124 638
f 638 1124 1125
f 638 1125 566
f 566 1125 1126
f 566 1126 564
f 564 1126 1127
f 564 1127 565
f 565 1127 1128
f 565 1128 655
f 655 1128 1129
f 655 1129 656
f 656 1129 1130
f 656 1130 645
f 645 1130 1131
f 645 1131 646
f 646 1131 1132
f 646 1132 647
f 647 1132 1133
f 647 1133 604
f 604 1133 1134
f 604 1134 605
f 605 1134 1135
f 605 1135 606
f 606 1135 1136
f 606 1136 607
f 607 1136 1137
f 607 1137 608
f 608 1137 1138
f 608 1138 609
f 609 1138 1139
f 609 1139 610
f 610 1139 1140
f 610 1140 611
f 611 1140 1141
f 611 1141 612
f 612 1141 1142
f 612 1142 613
f 613 1142 1143
f 613 1143 639
f 639 1143 1144
f 639 1144 640
f 640 1144 1145
f 640 1145 614
f 614 1145 1146
f 614 1146 615
f 615 1146 1147
f 615 1147 668
f 668 1147 1148
f 668 1148 669
f 669 1148 1149
f 669 1149 670
f 670 1149 1150
f 670 1150 671
f 671 1150 1151
f 671 1151 672
f 672 1151 1152
f 672 1152 673
f 673 1152 1153
f 673 1153 706
f 706 1153 1154
f 706 1154 707
f 707 1154 1155
f 707 1155 683
f 683 1155 1156
f 683 1156 684
f 684 1156 1157
f 684 1157 708
f 708 1157 1158
f 708 1158 709
f 709 1158 1159
f 709 1159 674
f 674 1159 1160
f 674 1160 675
f 675 1160 1161
f 675 1161 676
f 676 1161 1162
f 676 1162 677
f 677 1162 1163
f 677 1163 678
f 678 1163 1164
f 678 1164 685
f 685 1164 1165
f 685 1165 686
f 686 1165 1166
f 686 1166 687
f 687 1166 1167
f 687 1167 688
f 688 1167 1168
f 688 1168 689
f 689 1168 1169
f 689 1169 690
f 690 1169 1170
f 690 1170 691
f 691 1170 1171
f 691 1171 692
f 692 1171 1172
f 692 1172 693
f 693 1172 1173
f 693 1173 715
f 715 1173 1174
f 715 1174 716
f 716 1174 1175
f 716 1175 717
f 717 1175 1176
f 717 1176 718
f 718 1176 1177
f 718 1177 719
f 719 1177 1178
f 719 1178 720
f 720 1178 1179
f 720 1179 721
f 721 1179 1180
f 721 1180 722
f 722 1180 1181
f 722 1181 723
f 723 1181 1182
f 723 1182 724
f 724 1182 1183
f 724 1183 725
f 725 1183 1184
f 725 1184 726
f 726 1184 1185
f 726 1185 727
f 727 1185 1186
f 727 1186 728
f 728 1186 1187
f 728 1187 679
f 679 1187 1188
f 679 1188 680
f 680 1188 1189
f 680 1189 694
f 694 1189 1190
f 694 1190 695
f 695 1190 1191
f 695 1191 659
f 659 1191 1192
f 659 1192 658
f 658 1192 1193
f 658 1193 657
f 657 1193 938
f 80 1194 81
f 81 1194 1195
f 81 1195 82
f 82 1195 1196
f 82 1196 169
f 169 1196 1197
f 169 1197 170
f 170 1197 1198
f 170 1198 171
f 171 1198 1199
f 171 1199 250
f 250 1199 1200
f 250 1200 251
f 251 1200 1201
f 251 1201 83
f 83 1201 1202
f 83 1202 84
f 84 1202 1203
f 84 1203 85
f 85 1203 1204
f 85 1204 86
f 86 1204 1205
f 86 1205 172
f 172 1205 1206
f 172 1206 173
f 173 1206 1207
f 173 1207 174
f 174 1207 1208
f 174 1208 330
f 330 1208 1209
f 330 1209 331
f 331 1209 1210
f 331 1210 332
f 332 1210 1211
f 332 1211 333
f 333 1211 1212
f 333 1212 334
f 334 1212 1213
f 334 1213 335
f 335 1213 1214
f 335 1214 336
f 336 1214 1215
f 336 1215 337
f 337 1215 1216
f 337 1216 338
f 338 1216 1217
f 338 1217 339
f 339 1217 1218
f 339 1218 340
f 340 1218 1219
f 340 1219 341
f 341 1219 1220
f 341 1220 433
f 433 1220 1221
f 433 1221 434
f 434 1221 1222
f 434 1222 87
f 87 1222 1223
f 87 1223 88
f 88 1223 1224
f 88 1224 89
f 89 1224 1225
f 89 1225 35
f 35 1225 1226
f 35 1226 34
f 34 1226 1227
f 34 1227 33
f 33 1227 1228
f 33 1228 175
f 175 1228 1229
f 175 1229 176
f 176 1229 1230
f 176 1230 177
f 177 1230 1231
f 177 1231 178
f 178 1231 1232
f 178 1232 179
f 179 1232 1233
f 179 1233 180
f 180 1233 1234
f 180 1234 342
f 342 1234 1235
f 342 1235 343
f 343 1235 1236
f 343 1236 344
f 344 1236 1237
f 344 1237 345
f 345 1237 1238
f 345 1238 346
f 346 1238 1239
f 346 1239 252
f 252 1239 1240
f 252 1240 253
f 253 1240 1241
f 253 1241 254
f 254 1241 1242
f 254 1242 255
f 255 1242 1243
f 255 1243 347
f 347 1243 1244
f 347 1244 348
f 348 1244 1245
f 348 1245 181
f 181 1245 1246
f 181 1246 182
f 182 1246 1247
f 182 1247 183
f 183 1247 1248
f 183 1248 17
f 17 1248 1249
f 17 1249 18
f 18 1249 1250
f 18 1250 90
f 90 1250 1251
f 90 1251 91
f 91 1251 1252
f 91 1252 92
f 92 1252 1253
f 92 1253 93
f 93 1253 1254
f 93 1254 94
f 94 1254 1255
f 94 1255 95
f 95 1255 1256
f 95 1256 96
f 96 1256 1257
f 96 1257 97
f 97 1257 1258
f 97 1258 98
f 98 1258 1259
f 98 1259 99
f 99 1259 1260
f 99 1260 100
f 100 1260 1261
f 100 1261 101
f 101 1261 1262
f 101 1262 184
f 184 1262 1263
f 184 1263 185
f 185 1263 1264
f 185 1264 186
f 186 1264 1265
f 186 1265 187
f 187 1265 1266
f 187 1266 188
f 188 1266 1267
f 188 1267 189
f 189 1267 1268
f 189 1268 256
f 256 1268 1269
f 256 1269 257
f 257 1269 1270
f 257 1270 104
f 104 1270 1271
f 104 1271 103
f 103 1271 1272
f 103 1272 102
f 102 1272 1273
f 102 1273 349
f 349 1273 1274
f 349 1274 350
f 350 1274 1275
f 350 1275 351
f 351 1275 1276
f 351 1276 435
f 435 1276 1277
f 435 1277 436
f 436 1277 1278
f 436 1278 437
f 437 1278 1279
f 437 1279 438
f 438 1279 1280
f 438 1280 439
f 439 1280 1281
f 439 1281 352
f 352 1281 1282
f 352 1282 353
f 353 1282 1283
f 353 1283 354
f 354 1283 1284
f 354 1284 355
f 355 1284 1285
f 355 1285 356
f 356 1285 1286
f 356 1286 357
f 357 1286 1287
f 357 1287 358
f 358 1287 1288
f 358 1288 359
f 359 1288 1289
f 359 1289 360
f 360 1289 1290
f 360 1290 361
f 361 1290 1291
f 361 1291 362
f 362 1291 1292
f 362 1292 363
f 363 1292 1293
f 363 1293 260
f 260 1293 1294
f 260 1294 259
f 259 1294 1295
f 259 1295 258
f 258 1295 1296
f 258 1296 261
f 261 1296 1297
f 261 1297 262
f 262 1297 1298
f 262 1298 263
f 263 1298 1299
f 263 1299 264
f 264 1299 1300
f 264 1300 265
f 265 1300 1301
f 265 1301 105
f 105 1301 1302
f 105 1302 106
f 106 1302 1303
f 106 1303 548
f 548 1303 1304
f 548 1304 549
f 549 1304 1305
f 549 1305 550
f 550 1305 1306
f 550 1306 551
f 551 1306 1307
f 551 1307 552
f 552 1307 1308
f 552 1308 495
f 495 1308 1309
f 495 1309 496
f 496 1309 1310
f 496 1310 497
f 497 1310 1311
f 497 1311 498
f 498 1311 1312
f 498 1312 553
f 553 1312 1313
f 553 1313 554
f 554 1313 1314
f 554 1314 555
f 555 1314 1315
f 555 1315 587
f 587 1315 1316
f 587 1316 588
f 588 1316 1317
f 588 1317 589
f 589 1317 1318
f 589 1318 590
f 590 1318 1319
f 590 1319 591
f 591 1319 1320
f 591 1320 592
f 592 1320 1321
f 592 1321 593
f 593 1321 1066
f 144 729 145
f 145 729 1322
f 145 1322 146
f 146 1322 1323
f 146 1323 147
f 147 1323 1324
f 147 1324 148
f 148 1324 1325
f 148 1325 149
f 149 1325 1326
f 149 1326 150
f 150 1326 1327
f 150 1327 151
f 151 1327 1328
f 151 1328 65
f 65 1328 1329
f 65 1329 66
f 66 1329 1330
f 66 1330 152
f 152 1330 1331
f 152 1331 153
f 153 1331 1332
f 153 1332 154
f 154 1332 1333
f 154 1333 155
f 155 1333 1334
f 155 1334 156
f 156 1334 1335
f 156 1335 31
f 31 1335 1336
f 31 1336 32
f 32 1336 1337
f 32 1337 67
f 67 1337 1338
f 67 1338 68
f 68 1338 1339
f 68 1339 69
f 69 1339 1340
f 69 1340 70
f 70 1340 1341
f 70 1341 71
f 71 1341 1342
f 71 1342 72
f 72 1342 1343
f 72 1343 206
f 206 1343 1344
f 206 1344 207
f 207 1344 1345
f 207 1345 208
f 208 1345 1346
f 208 1346 209
f 209 1346 1347
f 209 1347 210
f 210 1347 1348
f 210 1348 157
f 157 1348 1349
f 157 1349 158
f 158 1349 1350
f 158 1350 159
f 159 1350 1351
f 159 1351 160
f 160 1351 1352
f 160 1352 161
f 161 1352 1353
f 161 1353 162
f 162 1353 1354
f 162 1354 163
f 163 1354 1355
f 163 1355 211
f 211 1355 1356
f 211 1356 212
f 212 1356 1357
f 212 1357 213
f 213 1357 1358
f 213 1358 214
f 214 1358 1359
f 214 1359 215
f 215 1359 1360
f 215 1360 216
f 216 1360 1361
f 216 1361 217
f 217 1361 1362
f 217 1362 218
f 218 1362 1363
f 218 1363 219
f 219 1363 1364
f 219 1364 220
f 220 1364 1365
f 220 1365 221
f 221 1365 1366
f 221 1366 222
f 222 1366 1367
f 222 1367 426
f 426 1367 1368
f 426 1368 427
f 427 1368 1369
f 427 1369 428
f 428 1369 1370
f 428 1370 546
f 546 1370 1371
f 546 1371 547
f 547 1371 1372
f 547 1372 301
f 301 1372 1373
f 301 1373 302
f 302 1373 1374
f 302 1374 303
f 303 1374 1375
f 303 1375 429
f 429 1375 1376
f 429 1376 430
f 430 1376 1377
f 430 1377 304
f 304 1377 1378
f 304 1378 305
f 305 1378 1379
f 305 1379 431
f 431 1379 1380
f 431 1380 432
f 432 1380 1381
f 432 1381 308
f 308 1381 1382
f 308 1382 307
f 307 1382 1383
f 307 1383 306
f 306 1383 1384
f 306 1384 309
f 309 1384 1385
f 309 1385 310
f 310 1385 1386
f 310 1386 311
f 311 1386 1387
f 311 1387 312
f 312 1387 1388
f 312 1388 313
f 313 1388 1389
f 313 1389 223
f 223 1389 1390
f 223 1390 224
f 224 1390 1391
f 224 1391 225
f 225 1391 1392
f 225 1392 226
f 226 1392 1393
f 226 1393 314
f 314 1393 1394
f 314 1394 315
f 315 1394 1395
f 315 1395 227
f 227 1395 1396
f 227 1396 228
f 228 1396 1397
f 228 1397 229
f 229 1397 1398
f 229 1398 230
f 230 1398 1399
f 230 1399 231
f 231 1399 1400
f 231 1400 232
f 232 1400 1401
f 232 1401 13
f 13 1401 1402
f 13 1402 14
f 14 1402 1403
f 14 1403 233
f 233 1403 1404
f 233 1404 234
f 234 1404 1405
f 234 1405 235
f 235 1405 1406
f 235 1406 316
f 316 1406 1407
f 316 1407 317
f 317 1407 1408
f 317 1408 318
f 318 1408 1409
f 318 1409 319
f 319 1409 1410
f 319 1410 320
f 320 1410 1411
f 320 1411 321
f 321 1411 1412
f 321 1412 322
f 322 1412 1413
f 322 1413 323
f 323 1413 1414
f 323 1414 238
f 238 1414 1415
f 238 1415 237
f 237 1415 1416
f 237 1416 236
f 236 1416 1417
f 236 1417 239
f 239 1417 1418
f 239 1418 240
f 240 1418 1419
f 240 1419 241
f 241 1419 1420
f 241 1420 324
f 324 1420 1421
f 324 1421 325
f 325 1421 1422
f 325 1422 164
f 164 1422 1423
f 164 1423 165
f 165 1423 1424
f 165 1424 242
f 242 1424 1425
f 242 1425 243
f 243 1425 1426
f 243 1426 15
f 15 1426 1427
f 15 1427 16
f 16 1427 1428
f 16 1428 244
f 244 1428 1429
f 244 1429 245
f 245 1429 1430
f 245 1430 246
f 246 1430 1431
f 246 1431 326
f 326 1431 1432
f 326 1432 327
f 327 1432 1433
f 327 1433 168
f 168 1433 1434
f 168 1434 166
f 166 1434 1435
f 166 1435 167
f 167 1435 1436
f 167 1436 247
f 247 1436 1437
f 247 1437 248
f 248 1437 1438
f 248 1438 249
f 249 1438 1439
f 249 1439 328
f 328 1439 1440
f 328 1440 329
f 329 1440 1441
f 329 1441 75
f 75 1441 1442
f 75 1442 74
f 74 1442 1443
f 74 1443 73
f 73 1443 1444
f 73 1444 76
f 76 1444 1445
f 76 1445 77
f 77 1445 1446
f 77 1446 78
f 78 1446 1447
f 78 1447 79
f 79 1447 1448
f 79 1448 80
f 80 1448 1194
f 1196 1195 1449
f 1449 1195 1194
f 1449 1194 1448
f 1199 1198 1449
f 1449 1198 1197
f 1449 1197 1196
f 1202 1201 1449
f 1449 1201 1200
f 1449 1200 1199
f 1205 1204 1449
f 1449 1204 1203
f 1449 1203 1202
f 1208 1207 1449
f 1449 1207 1206
f 1449 1206 1205
f 1211 1210 1449
f 1449 1210 1209
f 1449 1209 1208
f 1214 1213 1449
f 1449 1213 1212
f 1449 1212 1211
f 1217 1216 1449
f 1449 1216 1215
f 1449 1215 1214
f 1220 1219 1449
f 1449 1219 1218
f 1449 1218 1217
f 1223 1222 1449
f 1449 1222 1221
f 1449 1221 1220
f 1226 1225 1449
f 1449 1225 1224
f 1449 1224 1223
f 1229 1228 1449
f 1449 1228 1227
f 1449 1227 1226
f 1232 1231 1449
f 1449 1231 1230
f 1449 1230 1229
f 1235 1234 1449
f 1449 1234 1233
f 1449 1233 1232
f 1238 1237 1449
f 1449 1237 1236
f 1449 1236 1235
f 1241 1240 1449
f 1449 1240 1239
f 1449 1239 1238
f 1244 1243 1449
f 1449 1243 1242
f 1449 1242 1241
f 1247 1246 1449
f 1449 1246 1245
f 1449 1245 1244
f 1250 1249 1449
f 1449 1249 1248
f 1449 1248 1247
f 1253 1252 1449
f 1449 1252 1251
f 1449 1251 1250
f 1256 1255 1449
f 1449 1255 1254
f 1449 1254 1253
f 1259 1258 1449
f 1449 1258 1257
f 1449 1257 1256
f 1262 1261 1449
f 1449 1261 1260
f 1449 1260 1259
f 1265 1264 1449
f 1449 1264 1263
f 1449 1263 1262
f 1268 1267 1449
f 1449 1267 1266
f 1449 1266 1265
f 1271 1270 1449
f 1449 1270 1269
f 1449 1269 1268
f 1274 1273 1449
f 1449 1273 1272
f 1449 1272 1271
f 1277 1276 1449
f 1449 1276 1275
f 1449 1275 1274
f 1280 1279 1449
f 1449 1279 1278
f 1449 1278 1277
f 1283 1282 1449
f 1449 1282 1281
f 1449 1281 1280
f 1286 1285 1449
f 1449 1285 1284
f 1449 1284 1283
f 1289 1288 1449
f 1449 1288 1287
f 1449 1287 1286
f 1292 1291 1449
f 1449 1291 1290
f 1449 1290 1289
f 1295 1294 1449
f 1449 1294 1293
f 1449 1293 1292
f 1298 1297 1449
f 1449 1297 1296
f 1449 1296 1295
f 1301 1300 1449
f 1449 1300 1299
f 1449 1299 1298
f 1304 1303 1449
f 1449 1303 1302
f 1449 1302 1301
f 1307 1306 1449
f 1449 1306 1305
f 1449 1305 1304
f 1310 1309 1449
f 1449 1309 1308
f 1449 1308 1307
f 1313 1312 1449
f 1449 1312 1311
f 1449 1311 1310
f 1316 1315 1449
f 1449 1315 1314
f 1449 1314 1313
f 1319 1318 1449
f 1449 1318 1317
f 1449 1317 1316
f 1066 1321 1449
f 1449 1321 1320
f 1449 1320 1319
f 1069 1068 1449
f 1449 1068 1067
f 1449 1067 1066
f 1072 1071 1449
f 1449 1071 1070
f 1449 1070 1069
f 1075 1074 1449
f 1449 1074 1073
f 1449 1073 1072
f 1078 1077 1449
f 1449 1077 1076
f 1449 1076 1075
f 1081 1080 1449
f 1449 1080 1079
f 1449 1079 1078
f 1084 1083 1449
f 1449 1083 1082
f 1449 1082 1081
f 1087 1086 1449
f 1449 1086 1085
f 1449 1085 1084
f 1090 1089 1449
f 1449 1089 1088
f 1449 1088 1087
f 1093 1092 1449
f 1449 1092 1091
f 1449 1091 1090
f 1096 1095 1449
f 1449 1095 1094
f 1449 1094 1093
f 1099 1098 1449
f 1449 1098 1097
f 1449 1097 1096
f 1102 1101 1449
f 1449 1101 1100
f 1449 1100 1099
f 1105 1104 1449
f 1449 1104 1103
f 1449 1103 1102
f 1108 1107 1449
f 1449 1107 1106
f 1449 1106 1105
f 1111 1110 1449
f 1449 1110 1109
f 1449 1109 1108
f 1114 1113 1449
f 1449 1113 1112
f 1449 1112 1111
f 1117 1116 1449
f 1449 1116 1115
f 1449 1115 1114
f 1120 1119 1449
f 1449 1119 1118
f 1449 1118 1117
f 1123 1122 1449
f 1449 1122 1121
f 1449 1121 1120
f 1126 1125 1449
f 1449 1125 1124
f 1449 1124 1123
f 1129 1128 1449
f 1449 1128 1127
f 1449 1127 1126
f 1132 1131 1449
f 1449 1131 1130
f 1449 1130 1129
f 1135 1134 1449
f 1449 1134 1133
f 1449 1133 1132
f 1138 1137 1449
f 1449 1137 1136
f 1449 1136 1135
f 1141 1140 1449
f 1449 1140 1139
f 1449 1139 1138
f 1144 1143 1449
f 1449 1143 1142
f 1449 1142 1141
f 1147 1146 1449
f 1449 1146 1145
f 1449 1145 1144
f 1150 1149 1449
f 1449 1149 1148
f 1449 1148 1147
f 1153 1152 1449
f 1449 1152 1151
f 1449 1151 1150
f 1156 1155 1449
f 1449 1155 1154
f 1449 1154 1153
f 1159 1158 1449
f 1449 1158 1157
f 1449 1157 1156
f 1162 1161 1449
f 1449 1161 1160
f 1449 1160 1159
f 1165 1164 1449
f 1449 1164 1163
f 1449 1163 1162
f 1168 1167 1449
f 1449 1167 1166
f 1449 1166 1165
f 1171 1170 1449
f 1449 1170 1169
f 1449 1169 1168
f 1174 1173 1449
f 1449 1173 1172
f 1449 1172 1171
f 1177 1176 1449
f 1449 1176 1175
f 1449 1175 1174
f 1180 1179 1449
f 1449 1179 1178
f 1449 1178 1177
f 1183 1182 1449
f 1449 1182 1181
f 1449 1181 1180
f 1186 1185 1449
f 1449 1185 1184
f 1449 1184 1183
f 1189 1188 1449
f 1449 1188 1187
f 1449 1187 1186
f 1192 1191 1449
f 1449 1191 1190
f 1449 1190 1189
f 939 938 1449
f 1449 938 1193
f 1449 1193 1192
f 942 941 1449
f 1449 941 940
f 1449 940 939
f 945 944 1449
f 1449 944 943
f 1449 943 942
f 948 947 1449
f 1449 947 946
f 1449 946 945
f 951 950 1449
f 1449 950 949
f 1449 949 948
f 954 953 1449
f 1449 953 952
f 1449 952 951
f 957 956 1449
f 1449 956 955
f 1449 955 954
f 960 959 1449
f 1449 959 958
f 1449 958 957
f 963 962 1449
f 1449 962 961
f 1449 961 960
f 966 965 1449
f 1449 965 964
f 1449 964 963
f 969 968 1449
f 1449 968 967
f 1449 967 966
f 972 971 1449
f 1449 971 970
f 1449 970 969
f 975 974 1449
f 1449 974 973
f 1449 973 972
f 978 977 1449
f 1449 977 976
f 1449 976 975
f 981 980 1449
f 1449 980 979
f 1449 979 978
f 984 983 1449
f 1449 983 982
f 1449 982 981
f 987 986 1449
f 1449 986 985
f 1449 985 984
f 990 989 1449
f 1449 989 988
f 1449 988 987
f 993 992 1449
f 1449 992 991
f 1449 991 990
f 996 995 1449
f 1449 995 994
f 1449 994 993
f 999 998 1449
f 1449 998 997
f 1449 997 996
f 1002 1001 1449
f 1449 1001 1000
f 1449 1000 999
f 1005 1004 1449
f 1449 1004 1003
f 1449 1003 1002
f 1008 1007 1449
f 1449 1007 1006
f 1449 1006 1005
f 1011 1010 1449
f 1449 1010 1009
f 1449 1009 1008
f 1014 1013 1449
f 1449 1013 1012
f 1449 1012 1011
f 1017 1016 1449
f 1449 1016 1015
f 1449 1015 1014
f 1020 1019 1449
f 1449 1019 1018
f 1449 1018 1017
f 1023 1022 1449
f 1449 1022 1021
f 1449 1021 1020
f 1026 1025 1449
f 1449 1025 1024
f 1449 1024 1023
f 1029 1028 1449
f 1449 1028 1027
f 1449 1027 1026
f 1032 1031 1449
f 1449 1031 1030
f 1449 1030 1029
f 1035 1034 1449
f 1449 1034 1033
f 1449 1033 1032
f 1038 1037 1449
f 1449 1037 1036
f 1449 1036 1035
f 1041 1040 1449
f 1449 1040 1039
f 1449 1039 1038
f 1044 1043 1449
f 1449 1043 1042
f 1449 1042 1041
f 1047 1046 1449
f 1449 1046 1045
f 1449 1045 1044
f 1050 1049 1449
f 1449 1049 1048
f 1449 1048 1047
f 1053 1052 1449
f 1449 1052 1051
f 1449 1051 1050
f 1056 1055 1449
f 1449 1055 1054
f 1449 1054 1053
f 1059 1058 1449
f 1449 1058 1057
f 1449 1057 1056
f 1062 1061 1449
f 1449 1061 1060
f 1449 1060 1059
f 1065 1064 1449
f 1449 1064 1063
f 1449 1063 1062
f 812 811 1449
f 1449 811 810
f 1449 810 1065
f 815 814 1449
f 1449 814 813
f 1449 813 812
f 818 817 1449
f 1449 817 816
f 1449 816 815
f 821 820 1449
f 1449 820 819
f 1449 819 818
f 824 823 1449
f 1449 823 822
f 1449 822 821
f 827 826 1449
f 1449 826 825
f 1449 825 824
f 830 829 1449
f 1449 829 828
f 1449 828 827
f 833 832 1449
f 1449 832 831
f 1449 831 830
f 836 835 1449
f 1449 835 834
f 1449 834 833
f 839 838 1449
f 1449 838 837
f 1449 837 836
f 842 841 1449
f 1449 841 840
f 1449 840 839
f 845 844 1449
f 1449 844 843
f 1449 843 842
f 848 847 1449
f 1449 847 846
f 1449 846 845
f 851 850 1449
f 1449 850 849
f 1449 849 848
f 854 853 1449
f 1449 853 852
f 1449 852 851
f 857 856 1449
f 1449 856 855
f 1449 855 854
f 860 859 1449
f 1449 859 858
f 1449 858 857
f 863 862 1449
f 1449 862 861
f 1449 861 860
f 866 865 1449
f 1449 865 864
f 1449 864 863
f 869 868 1449
f 1449 868 867
f 1449 867 866
f 872 871 1449
f 1449 871 870
f 1449 870 869
f 875 874 1449
f 1449 874 873
f 1449 873 872
f 878 877 1449
f 1449 877 876
f 1449 876 875
f 881 880 1449
f 1449 880 879
f 1449 879 878
f 884 883 1449
f 1449 883 882
f 1449 882 881
f 887 886 1449
f 1449 886 885
f 1449 885 884
f 890 889 1449
f 1449 889 888
f 1449 888 887
f 893 892 1449
f 1449 892 891
f 1449 891 890
f 896 895 1449
f 1449 895 894
f 1449 894 893
f 899 898 1449
f 1449 898 897
f 1449 897 896
f 902 901 1449
f 1449 901 900
f 1449 900 899
f 905 904 1449
f 1449 904 903
f 1449 903 902
f 908 907 1449
f 1449 907 906
f 1449 906 905
f 911 910 1449
f 1449 910 909
f 1449 909 908
f 914 913 1449
f 1449 913 912
f 1449 912 911
f 917 916 1449
f 1449 916 915
f 1449 915 914
f 920 919 1449
f 1449 919 918
f 1449 918 917
f 923 922 1449
f 1449 922 921
f 1449 921 920
f 926 925 1449
f 1449 925 924
f 1449 924 923
f 929 928 1449
f 1449 928 927
f 1449 927 926
f 932 931 1449
f 1449 931 930
f 1449 930 929
f 935 934 1449
f 1449 934 933
f 1449 933 932
f 809 937 1449
f 1449 937 936
f 1449 936 935
f 806 807 1449
f 1449 807 808
f 1449 808 809
f 803 804 1449
f 1449 804 805
f 1449 805 806
f 800 801 1449
f 1449 801 802
f 1449 802 803
f 797 798 1449
f 1449 798 799
f 1449 799 800
f 794 795 1449
f 1449 795 796
f 1449 796 797
f 791 792 1449
f 1449 792 793
f 1449 793 794
f 788 789 1449
f 1449 789 790
f 1449 790 791
f 785 786 1449
f 1449 786 787
f 1449 787 788
f 782 783 1449
f 1449 783 784
f 1449 784 785
f 779 780 1449
f 1449 780 781
f 1449 781 782
f 776 777 1449
f 1449 777 778
f 1449 778 779
f 773 774 1449
f 1449 774 775
f 1449 775 776
f 770 771 1449
f 1449 771 772
f 1449 772 773
f 767 768 1449
f 1449 768 769
f 1449 769 770
f 764 765 1449
f 1449 765 766
f 1449 766 767
f 761 762 1449
f 1449 762 763
f 1449 763 764
f 758 759 1449
f 1449 759 760
f 1449 760 761
f 755 756 1449
f 1449 756 757
f 1449 757 758
f 752 753 1449
f 1449 753 754
f 1449 754 755
f 749 750 1449
f 1449 750 751
f 1449 751 752
f 746 747 1449
f 1449 747 748
f 1449 748 749
f 743 744 1449
f 1449 744 745
f 1449 745 746
f 740 741 1449
f 1449 741 742
f 1449 742 743
f 737 738 1449
f 1449 738 739
f 1449 739 740
f 734 735 1449
f 1449 735 736
f 1449 736 737
f 731 732 1449
f 1449 732 733
f 1449 733 734
f 1322 729 1449
f 1449 729 730
f 1449 730 731
f 1325 1324 1449
f 1449 1324 1323
f 1449 1323 1322
f 1328 1327 1449
f 1449 1327 1326
f 1449 1326 1325
f 1331 1330 1449
f 1449 1330 1329
f 1449 1329 1328
f 1334 1333 1449
f 1449 1333 1332
f 1449 1332 1331
f 1337 1336 1449
f 1449 1336 1335
f 1449 1335 1334
f 1340 1339 1449
f 1449 1339 1338
f 1449 1338 1337
f 1343 1342 1449
f 1449 1342 1341
f 1449 1341 1340
f 1346 1345 1449
f 1449 1345 1344
f 1449 1344 1343
f 1349 1348 1449
f 1449 1348 1347
f 1449 1347 1346
f 1352 1351 1449
f 1449 1351 1350
f 1449 1350 1349
f 1355 1354 1449
f 1449 1354 1353
f 1449 1353 1352
f 1358 1357 1449
f 1449 1357 1356
f 1449 1356 1355
f 1361 1360 1449
f 1449 1360 1359
f 1449 1359 1358
f 1364 1363 1449
f 1449 1363 1362
f 1449 1362 1361
f 1367 1366 1449
f 1449 1366 1365
f 1449 1365 1364
f 1370 1369 1449
f 1449 1369 1368
f 1449 1368 1367
f 1373 1372 1449
f 1449 1372 1371
f 1449 1371 1370
f 1376 1375 1449
f 1449 1375 1374
f 1449 1374 1373
f 1379 1378 1449
f 1449 1378 1377
f 1449 1377 1376
f 1382 1381 1449
f 1449 1381 1380
f 1449 1380 1379
f 1385 1384 1449
f 1449 1384 1383
f 1449 1383 1382
f 1388 1387 1449
f 1449 1387 1386
f 1449 1386 1385
f 1391 1390 1449
f 1449 1390 1389
f 1449 1389 1388
f 1394 1393 1449
f 1449 1393 1392
f 1449 1392 1391
f 1397 1396 1449
f 1449 1396 1395
f 1449 1395 1394
f 1400 1399 1449
f 1449 1399 1398
f 1449 1398 1397
f 1403 1402 1449
f 1449 1402 1401
f 1449 1401 1400
f 1406 1405 1449
f 1449 1405 1404
f 1449 1404 1403
f 1409 1408 1449
f 1449 1408 1407
f 1449 1407 1406
f 1412 1411 1449
f 1449 1411 1410
f 1449 1410 1409
f 1415 1414 1449
f 1449 1414 1413
f 1449 1413 1412
f 1418 1417 1449
f 1449 1417 1416
f 1449 1416 1415
f 1421 1420 1449
f 1449 1420 1419
f 1449 1419 1418
f 1424 1423 1449
f 1449 1423 1422
f 1449 1422 1421
f 1427 1426 1449
f 1449 1426 1425
f 1449 1425 1424
f 1430 1429 1449
f 1449 1429 1428
f 1449 1428 1427
f 1433 1432 1449
f 1449 1432 1431
f 1449 1431 1430
f 1436 1435 1449
f 1449 1435 1434
f 1449 1434 1433
f 1439 1438 1449
f 1449 1438 1437
f 1449 1437 1436
f 1442 1441 1449
f 1449 1441 1440
f 1449 1440 1439
f 1445 1444 1449
f 1449 1444 1443
f 1449 1443 1442
f 1448 1447 1449
f 1449 1447 1446
f 1449 1446 1445

